<?xml version="1.0" encoding="UTF-8"?>
<svg id="Layer_2" data-name="Layer 2" xmlns="http://www.w3.org/2000/svg" viewBox="0 0 27.38 16.92">
  <defs>
    <style>
      .cls-1 {
        fill-rule: evenodd;
      }
    </style>
  </defs>
  <g id="_54" data-name="54">
    <path class="cls-1" d="M19.08,13.25c-.76,0-1.3-.54-1.3-1.18s.54-1.29,1.3-1.29c.65,0,1.18.64,1.18,1.29s-.54,1.18-1.18,1.18h0ZM4.75,9.7h0c-.65,0-1.19-.65-1.19-1.29s.54-1.19,1.19-1.19,1.29.54,1.29,1.19-.65,1.29-1.29,1.29h0ZM8.3,9.7h0c-.64,0-1.18-.65-1.18-1.29s.54-1.19,1.18-1.19c.76,0,1.19.54,1.19,1.19s-.43,1.29-1.19,1.29h0ZM11.86,9.7h0c-.65,0-1.18-.65-1.18-1.29s.54-1.19,1.18-1.19c.76,0,1.29.54,1.29,1.19s-.53,1.29-1.29,1.29h0ZM15.52,9.7h0c-.75,0-1.29-.65-1.29-1.29s.54-1.19,1.29-1.19c.65,0,1.19.54,1.19,1.19s-.54,1.29-1.19,1.29h0ZM1.19,9.7h0c-.65,0-1.19-.65-1.19-1.29s.54-1.19,1.19-1.19,1.19.54,1.19,1.19-.55,1.29-1.19,1.29h0ZM22.64,9.7h0c-.76,0-1.18-.65-1.18-1.29s.42-1.19,1.18-1.19c.64,0,1.18.54,1.18,1.19s-.54,1.29-1.18,1.29h0ZM22.64,6.03h0c-.76,0-1.18-.54-1.18-1.19s.42-1.29,1.18-1.29c.64,0,1.18.65,1.18,1.29s-.54,1.19-1.18,1.19h0ZM22.64,13.25h0c-.76,0-1.18-.54-1.18-1.18s.42-1.29,1.18-1.29c.64,0,1.18.64,1.18,1.29s-.54,1.18-1.18,1.18h0ZM26.2,9.7h0c-.66,0-1.3-.65-1.3-1.29s.64-1.19,1.3-1.19,1.18.54,1.18,1.19-.54,1.29-1.18,1.29h0ZM19.08,16.92h0c-.76,0-1.3-.54-1.3-1.29,0-.65.54-1.19,1.3-1.19.65,0,1.18.54,1.18,1.19,0,.75-.54,1.29-1.18,1.29h0ZM19.08,2.37h0c-.76,0-1.3-.54-1.3-1.18s.54-1.18,1.3-1.18c.65,0,1.18.54,1.18,1.18s-.54,1.18-1.18,1.18h0ZM19.08,6.03h0c-.76,0-1.3-.54-1.3-1.19s.54-1.29,1.3-1.29c.65,0,1.18.65,1.18,1.29s-.54,1.19-1.18,1.19h0ZM19.08,9.7h0c-.76,0-1.3-.65-1.3-1.29s.54-1.19,1.3-1.19c.65,0,1.18.54,1.18,1.19s-.54,1.29-1.18,1.29h0Z"/>
  </g>
</svg>