<?xml version="1.0" encoding="UTF-8"?>
<svg id="Layer_2" data-name="Layer 2" xmlns="http://www.w3.org/2000/svg" viewBox="0 0 27.38 19.73">
  <defs>
    <style>
      .cls-1 {
        fill-rule: evenodd;
      }
    </style>
  </defs>
  <g id="_54" data-name="54">
    <path class="cls-1" d="M27.38,9.81l-5.61,4.96-5.5,4.96v-4.32l.64-.65,5.61-4.96-5.61-4.95-.64-.65V0l5.5,4.86,5.61,4.95ZM11.1,9.81h0l-5.61,4.96L0,19.73v-4.32l.65-.65,5.61-4.96L.65,4.86l-.65-.65V0l5.5,4.86,5.61,4.95ZM19.19,9.81h0l-5.5,4.96-5.6,4.96v-4.32l.75-.65,5.5-4.96-5.5-4.95-.75-.65V0l5.6,4.86,5.5,4.95Z"/>
  </g>
</svg>