<?xml version="1.0" encoding="UTF-8"?>
<svg id="Layer_2" data-name="Layer 2" xmlns="http://www.w3.org/2000/svg" viewBox="0 0 27.38 27.37">
  <defs>
    <style>
      .cls-1 {
        fill-rule: evenodd;
      }
    </style>
  </defs>
  <g id="_54" data-name="54">
    <path class="cls-1" d="M12.07,7.86l5.71,5.71v.22l-5.71,5.6q-.1.11-.21,0l-1.18-1.18,4.42-4.42v-.22l-4.42-4.42,1.18-1.3h.21ZM13.69,0h0c3.77,0,7.22,1.5,9.7,3.98,2.48,2.48,3.99,5.82,3.99,9.7s-1.51,7.12-3.99,9.59c-2.48,2.59-5.93,4.1-9.7,4.1s-7.22-1.5-9.7-4.1c-2.48-2.48-3.99-5.81-3.99-9.59S1.51,6.46,3.99,3.98C6.46,1.5,9.92,0,13.69,0h0ZM21.24,6.03h0c-1.83-1.95-4.53-3.13-7.55-3.13s-5.61,1.18-7.55,3.13c-2.05,1.94-3.23,4.63-3.23,7.65s1.19,5.61,3.23,7.55c1.94,1.93,4.53,3.23,7.55,3.23s5.71-1.3,7.55-3.23c2.05-1.94,3.23-4.64,3.23-7.55s-1.18-5.71-3.23-7.65h0Z"/>
  </g>
</svg>