<?xml version="1.0" encoding="UTF-8"?>
<svg id="Layer_2" data-name="Layer 2" xmlns="http://www.w3.org/2000/svg" xmlns:xlink="http://www.w3.org/1999/xlink" viewBox="0 0 2000.39 1363.25">
  <defs>
    <style>
      .cls-1 {
        fill: none;
      }

      .cls-2 {
        clip-path: url(#clippath);
      }

      .cls-3 {
        fill: #cf9;
      }
    </style>
    <clipPath id="clippath">
      <rect id="Clipped_Mask" data-name="Clipped Mask" class="cls-1" x="440.53" width="1074.74" height="1351"/>
    </clipPath>
  </defs>
  <g id="Final">
    <g id="Messaging">
      <g class="cls-2">
        <g id="Envelope_2" data-name="Envelope 2">
          <g>
            <path class="cls-3" d="M4.45,1363.25H0c38.35-24.22,76.69-48.44,115.04-72.66s76.69-48.44,115.04-72.66c76.69-48.44,153.39-96.88,230.08-145.33h2.4c-76.35,48.44-152.7,96.88-229.06,145.33-38.18,24.22-76.35,48.44-114.53,72.66-38.18,24.22-76.35,48.44-114.53,72.66Z"/>
            <path class="cls-3" d="M483.65,1072.6c-.2.14-.3.21-.5.34-73.17,48.33-146.34,96.65-219.51,144.98-36.68,24.22-73.35,48.44-110.03,72.66-36.67,24.19-74.07,55.13-114.39,72.66.38-.26.56-.39.94-.65,36.5-24,73.01-48.01,109.51-72.02,36.85-24.22,73.69-48.44,110.54-72.66,73.76-48.48,146.23-102.54,223.43-145.33Z"/>
            <path class="cls-3" d="M504.73,1072.6c-.17.14-.26.2-.44.34l-210.52,144.99c-35.18,24.22-70.35,48.44-105.53,72.66-35.09,24.14-70.92,55.17-109.8,72.66.33-.25.5-.38.83-.64,35.01-24.01,70.02-48.02,105.03-72.03,35.35-24.22,70.69-48.44,106.04-72.66,70.77-48.49,140.19-102.26,214.38-145.33Z"/>
            <path class="cls-3" d="M525.81,1072.6c-.15.13-.23.2-.38.33-67.18,48.33-134.35,96.66-201.53,145-33.74,24.27-66.76,49.58-100.97,73.16-34.69,23.08-67.56,54.35-105.27,72.17.29-.25.43-.37.72-.62,33.46-23.97,66.66-48.39,100.59-71.69,34.35-23.59,67.61-48.76,101.5-73.01,67.78-48.5,134.17-101.92,205.33-145.33Z"/>
            <path class="cls-3" d="M546.9,1072.6c-.13.13-.19.19-.32.32-64.18,48.33-128.36,96.67-192.54,145-32.56,24.51-63.65,50.8-96.25,75.2-34.4,21.37-64.82,51.98-100.89,70.13.25-.24.37-.37.62-.61,31.71-23.78,62.96-48.32,96.31-69.79,32.81-24.24,64.11-50.45,96.79-74.92,64.74-48.47,128.02-101.95,196.28-145.33Z"/>
            <path class="cls-3" d="M567.98,1072.6c-.11.13-.16.19-.26.32-61.18,48.34-122.36,96.67-183.54,145.01-31.57,24.93-60.99,51.44-91.49,77.59-33.38,20.32-62.33,49.5-96.56,67.73.2-.24.3-.36.51-.6,30.03-23.63,59.61-47.15,92.09-67.38,30.76-25.94,60.35-52.47,92.03-77.35,61.74-48.47,121.95-101.74,187.23-145.33Z"/>
            <path class="cls-3" d="M589.06,1072.6c-.08.12-.12.19-.21.31-58.18,48.34-116.37,96.68-174.55,145.02-30.42,25.25-58.7,51.24-86.84,79-15.04,9.9-30.49,19.34-44.92,30.13-15.62,11.68-30.05,26.75-47.21,36.2.16-.23.24-.35.4-.58,28.51-23.59,56.74-45.62,87.78-65.81,28.41-27.62,56.79-53.7,87.36-78.93,58.69-48.43,115.76-101.81,178.18-145.33Z"/>
            <path class="cls-3" d="M610.13,1072.28c-.06.12-.09.18-.15.3-54.29,49.4-110.33,96.99-165.54,145.35-28.71,25.13-56.7,49.85-82.44,78.08-13.66,11.06-28.67,20.21-42.57,30.91-15.04,11.57-28.27,26.94-44.87,36.33.12-.23.18-.34.29-.57,27.03-23.58,54.79-44.65,83.24-66.41,26-28.26,53.98-53.17,82.92-78.35,55.87-48.59,110.25-100.74,169.11-145.65Z"/>
            <path class="cls-3" d="M631.04,1069.74c-.04.11-.05.17-.09.28-48.55,52.48-103.93,99.32-156.37,147.9-26.58,24.6-50.76,50.25-78.43,73.5-12,13.45-26.03,24.02-39.82,35.5-14.07,11.71-26.7,26.96-42.54,36.33.07-.22.11-.33.18-.56,25.76-23.77,53.81-45.55,78.32-70.52,24.56-25.84,52.45-49.96,78.86-74.24,53.43-49.12,105.81-99.93,159.89-148.18Z"/>
            <path class="cls-3" d="M651.81,1065.2c-.01.11-.02.16-.03.27-42.99,55.84-96.84,103.09-147.08,152.46-10.85,10.66-29.24,23.23-37.01,36.33-5.86,9.89-3.65,19.19-13.75,27.87-21.01,14.08-42.3,27.31-60.73,44.79-12.73,12.08-25.3,26.95-40.21,36.33l.08-.54c30.44-29.81,59.19-56.26,94.89-80.05,9.41-9.84,9.6-18.02,16.04-28.4,8.18-13.19,26.17-25.51,37.26-36.33,24.89-24.26,49.81-48.48,74.78-72.66,16.55-16.03,34.36-31.39,49.93-48.37,9.2-10.04,16.18-22.09,25.83-31.69Z"/>
            <path class="cls-3" d="M672.5,1059.25c0,.1.01.15.02.26-20.71,32.33-41.97,58.25-68.39,85.9-23.1,24.17-46.19,48.35-69.29,72.52-10.11,10.56-26.3,22.62-32.98,35.81-4.69,9.27-3.84,19.07-5.16,29.38-21.68,14.97-46.05,25.99-65.97,43.5-13.13,11.54-23.94,26.82-38.5,36.64-.01-.21-.02-.32-.03-.53,11.49-11.98,22.46-24.98,34.75-36.15,19.35-17.59,43.87-29.87,65.67-44.01,2.1-10.04,1-19.74,5.62-28.88,6.65-13.17,23.06-25.26,33.18-35.76,23.38-24.26,46.8-48.48,70.27-72.66,15.54-16.01,33.61-31.47,46.86-49.45,8.61-11.69,14.34-25.63,23.96-36.56Z"/>
            <path class="cls-3" d="M693.13,1052.52c.03.1.05.15.08.25-11.78,22.1-20.52,43.87-36.95,62.99-8.63,10.04-17.66,19.77-26.49,29.65-21.6,24.18-43.2,48.35-64.8,72.53-20.58,23.01-41.04,39.85-38.49,73.23-18.6,13.8-42.03,20.03-59.46,35.76-12.52,11.29-21.94,26.23-35.56,36.33-.06-.21-.08-.31-.14-.52,10.95-12.21,21.39-25.86,33.74-36.66,17.28-15.1,39.29-23.77,58.48-36.05-3-33.04,17.58-49.44,38.01-72.1,21.88-24.26,43.8-48.48,65.76-72.66,14.73-16.22,32.64-32.11,43.75-51.09,7.88-13.46,12.43-29.27,22.07-41.65Z"/>
            <path class="cls-3" d="M713.74,1045.63c.06.09.08.14.14.24-10.84,24-17.5,48.94-33.83,69.88-7.89,10.12-16.45,19.78-24.65,29.65-20.1,24.18-40.2,48.35-60.3,72.53-9.85,11.83-21.67,23.56-29.94,36.58-8.83,13.89-12.23,31.37-15.29,47.44-13.28,11.56-32.55,12.65-45.97,24.97-12.02,11.04-20.27,26.2-33.23,36.33-.1-.2-.15-.3-.25-.51,10.07-12.06,19.66-26.11,31.47-36.46,13.37-11.71,30.55-16.24,45.43-25.57,5.54-35.69,21.88-56.04,44.35-82.79,20.38-24.26,40.79-48.48,61.25-72.66,14.16-16.74,31.3-33.03,40.62-53.05,7.05-15.14,10.52-32.79,20.19-46.59Z"/>
            <path class="cls-3" d="M734.39,1039.18c.08.09.12.14.2.23-9.98,25.67-14.71,53.63-30.73,76.32-7.17,10.16-15.23,19.79-22.81,29.65-18.6,24.18-37.2,48.35-55.8,72.53-9.23,11.98-19.77,23.65-28.01,36.33-11.22,17.28-15.38,38.26-23.73,56.9-7.99,9.1-23.24,6.94-32.69,15.77-11.54,10.77-18.55,26.24-30.91,36.33-.14-.2-.21-.3-.35-.49,9.01-11.67,17.54-26.2,28.75-35.91,9.94-8.6,22.47-8.32,32.3-16.53,7.84-18.44,11.92-39.11,22.96-56.06,8.28-12.71,18.95-24.36,28.26-36.33,18.87-24.25,37.78-48.48,56.75-72.66,13.69-17.46,29.73-34.03,37.49-55.07,6.11-16.57,8.65-35.98,18.34-51.01Z"/>
            <path class="cls-3" d="M755.11,1033.81c.1.09.15.14.26.23-9.25,27.04-12.21,57.43-27.71,81.7-6.49,10.16-14.01,19.8-20.97,29.65-17.1,24.18-34.21,48.36-51.31,72.54-8.53,12.04-17.96,23.8-25.75,36.33-11.55,18.58-16.31,40.56-25.79,60.19-5.73,8.81-18.22,5.55-26.12,12.47-11.32,9.91-17.26,26.03-28.58,36.33-.19-.19-.28-.29-.46-.48,7.87-11.08,15.54-26.45,25.79-35.51,7.81-6.9,18.8-4.68,25.47-12.74,9.83-19.53,14.43-41.64,26.01-60.26,7.81-12.56,17.4-24.31,26.01-36.33,17.37-24.25,34.78-48.48,52.24-72.66,13.22-18.31,27.8-35.01,34.37-56.92,5.27-17.59,6.82-38.62,16.56-54.53Z"/>
            <path class="cls-3" d="M776.07,1030.1c.13.09.19.14.32.24-8.64,28.01-10.05,59.86-24.81,85.4-5.86,10.14-12.78,19.81-19.14,29.65-15.6,24.18-31.21,48.36-46.81,72.54-19.18,29.65-35.51,57.91-50.25,90.08-2.93,10.23-13.83,12.14-20.65,18.91-10.44,10.36-15.57,25.91-26.25,36.33-.23-.19-.34-.28-.57-.47,7.27-11.22,14.02-25.85,23.36-35.5,6.41-6.63,17.64-8.31,20.75-18.12,14.69-32.75,30.6-61.27,50.2-91.24,15.87-24.25,31.77-48.48,47.73-72.66,13.06-19.79,26.22-37.13,31.76-60.56,4.11-17.38,5.06-38.95,14.37-54.6Z"/>
            <path class="cls-3" d="M797.09,1028.73c.15.1.22.15.37.25-8.18,28.4-8.33,60.43-22.06,86.75-5.27,10.11-11.55,19.81-17.3,29.65-14.11,24.18-28.21,48.36-42.32,72.54-15.88,27.15-34.46,51.2-51.71,77.45-3.28,23.09-20.46,51.38-36.36,67.87-.27-.18-.41-.27-.68-.45,12.24-20.89,27.77-42.29,33.81-65.86,16.77-26.92,35.34-51.7,51.51-79.01,14.36-24.25,28.77-48.47,43.23-72.66,12.11-20.26,23.98-37.89,28.66-61.4,3.4-17.08,3.4-39.95,12.84-55.13Z"/>
            <path class="cls-3" d="M818.29,1030.08c.17.12.26.19.44.31-7.47,27.97-7.22,59.02-19.49,85.33-4.7,10.07-10.32,19.8-15.46,29.66-12.61,24.18-25.21,48.36-37.82,72.55-5.72,10.94-10.93,26.98-19,36.33-8.33,9.64-23.68,19.22-33.53,28.15-1.11,29.36-6.38,58.02-26.45,80.85-.31-.18-.47-.26-.79-.44,6-11.46,14.81-23.88,18.84-36.19,4.26-13,4.1-29.48,4.92-42.91,9.89-9.54,24.79-19.42,33.32-29.45,8.12-9.54,13.4-25.27,19.26-36.33,12.86-24.25,25.76-48.47,38.72-72.66,11.51-21.48,21.78-39.5,26.02-63.86,2.8-16.12,2.67-36.74,11.03-51.32Z"/>
            <path class="cls-3" d="M839.65,1033.74c.2.14.3.22.5.37-6.34,26.17-6.4,54.63-16.23,79.75-4.19,10.7-9.68,21.07-14.48,31.52l-33.33,72.55c-5.2,11.28-9.45,25.72-17.68,35.11-8.08,9.21-21.21,15.73-31.65,21.93-.95,31.28,1.12,62.88-20.56,88.29-.36-.17-.54-.26-.89-.43,5.03-10.89,14.28-24.43,16.58-36.24,3.06-15.72.5-35.27.77-51.24,9.18-5,26.04-13.32,33-21.08,7.61-8.5,12.18-26.02,17.01-36.33,11.35-24.24,22.75-48.47,34.21-72.66,9.17-19.37,18.56-36.97,22.2-58.29,2.89-16.99,2.52-37.61,10.56-53.23Z"/>
            <path class="cls-3" d="M861.12,1039.1c.22.16.34.24.56.4-5.55,24.51-5.91,50.54-14.06,74.35-3.65,10.65-8.37,21.06-12.52,31.52-9.61,24.18-19.22,48.37-28.83,72.55-9.49,23.77-15.89,46.51-38.73,60.97-5.94,29.02-3.65,59.2-22.06,84.36-.4-.17-.6-.25-1-.41,4.46-11.17,12.27-24.36,14.35-36.24,2.74-15.69,1.48-32.93,3.61-48.91,24.07-14.1,30.48-35.29,40.42-59.76,9.85-24.24,19.75-48.46,29.7-72.66,8.15-19.8,16.36-38.02,19.6-59.34,2.28-14.99,2.17-32.98,8.97-46.82Z"/>
            <path class="cls-3" d="M882.66,1045.54c.25.17.37.25.62.42-7.06,34.14-11.42,66.3-22.52,99.4-8.11,24.19-16.22,48.37-24.33,72.56-8.64,25.61-16.92,51.32-25.42,76.98-8.24,21.94-13.42,48.77-26.29,68.35-.44-.16-.67-.24-1.11-.4,7.81-23.14,15.3-46.35,23.74-69.27,8.66-25.18,16.98-50.48,25.65-75.66,8.35-24.24,16.74-48.46,25.2-72.66,6.67-19.08,13.65-37.26,16.68-57.34,2.06-13.68,2.07-29.56,7.78-42.38Z"/>
            <path class="cls-3" d="M904.23,1052.44c.27.17.41.25.68.42-5.82,31.36-10.07,61.69-18.49,92.5-6.61,24.19-13.22,48.37-19.84,72.56-7.69,27.94-15.09,55.95-22.41,84-6.19,19.98-10.24,43.01-20.21,61.33-.49-.16-.73-.23-1.22-.39,5.65-20.53,11.33-41.01,17.58-61.36,7.45-27.91,14.98-55.77,22.83-83.57,6.85-24.24,13.74-48.46,20.69-72.66,5.25-18.27,11.13-36.18,13.76-55.06,1.72-12.31,1.76-26.2,6.63-37.76Z"/>
            <path class="cls-3" d="M925.8,1059.19c.29.16.44.24.74.41-8.51,53.24-18.63,105.54-29.79,158.33-6.01,28.18-12.02,56.35-18.02,84.53-4.27,19.82-6.87,42.49-15.51,60.79-.53-.15-.79-.23-1.32-.38,4.28-20.08,8.57-40.16,12.86-60.23,6.17-28.24,12.35-56.48,18.57-84.72,5.34-24.23,10.73-48.45,16.18-72.66,3.95-17.53,8.45-34.96,10.87-52.78,1.47-10.87,1.51-22.97,5.43-33.3Z"/>
            <path class="cls-3" d="M947.31,1065.15c.32.15.48.22.79.37-6.53,50.91-13.61,101.62-21.2,152.41-4.1,27.09-8.38,54.13-12.8,81.17-2.8,20.59-3.62,44.99-11.63,64.16-.57-.15-.86-.22-1.43-.36,3.19-21.08,6.21-42.16,9.02-63.3,4.61-27.2,9.1-54.42,13.42-81.67,3.84-24.23,7.73-48.45,11.67-72.66,4.23-25.95,4.84-55.01,12.16-80.11Z"/>
            <path class="cls-3" d="M968.73,1069.72c.34.12.51.19.85.31-4.06,49.31-8.2,98.61-12.51,147.9-2.28,25.52-4.71,51.01-7.31,76.5-1.7,21.92-.85,48.01-8.04,68.83-.62-.14-.92-.21-1.54-.35,2.02-22.65,3.86-45.29,5.53-67.96,2.81-25.66,5.45-51.32,7.93-77.01,4.69-48.57,4.84-100.57,15.09-148.21Z"/>
            <path class="cls-3" d="M990.01,1072.27c.36.09.54.14.9.23-1.25,48.48-2.45,96.95-3.69,145.43-.67,24.37-1.36,48.73-2.09,73.09-.6,22.91,2.2,50.18-4.17,72.23-.66-.13-.99-.2-1.65-.34.65-23.88,1.26-47.77,1.83-71.66.93-24.44,1.81-48.89,2.65-73.33,1.67-48.06-.21-98,6.22-145.65Z"/>
            <path class="cls-3" d="M1010.4,1072.6c.38.07.57.1.95.17,1.74,47.92,3.52,95.84,5.28,143.76.86,24.69,1.66,49.37,2.51,74.06.78,23.05,5.19,50.09.33,72.66-.7-.13-1.05-.19-1.76-.32-.84-24.11-1.67-48.23-2.51-72.34-.67-24.52-1.31-49.03-1.99-73.55-1.2-47.79-5.58-96.71-2.81-144.44Z"/>
            <path class="cls-3" d="M1031.66,1072.6c.4.07.61.1,1.01.17,4.43,45.06,9.89,90.08,14.28,135.09,2.42,27.58,4.35,55.17,7.01,82.73,2.21,23.08,8.19,49.69,4.91,72.66-.75-.12-1.12-.19-1.86-.31-2.33-24.12-4.66-48.23-6.99-72.35-2.42-27.12-4-54.32-6.5-81.43-3.22-45.43-11.4-90.93-11.86-136.56Z"/>
            <path class="cls-3" d="M1052.9,1072.6c.43.06.64.1,1.07.16,3.88,24.19,7.76,48.39,11.63,72.58,2.57,16.03,2.35,35.51,11.63,48.51,3.91,32.35,6.41,64.53,11.51,96.74,3.65,23.13,11.12,49.28,9.5,72.66-.79-.12-1.18-.18-1.97-.3-3.82-24.12-7.65-48.24-11.47-72.36-4.79-31.63-7.24-63.24-11-94.98-14.18-35.32-18.08-83.71-20.91-123.01Z"/>
            <path class="cls-3" d="M1073.99,1072.6c.45.06.68.09,1.13.15,8.28,37.27,15.95,74.76,25.19,111.81,1.36-3.41,3.72-5.71,7.07-6.93,5.38,38.1,7.72,75.35,16.01,112.96,5.1,23.2,14.01,48.89,14.09,72.66-.83-.11-1.25-.17-2.08-.29-5.32-24.13-10.63-48.25-15.95-72.38-7.89-37-10.27-73.66-15.5-111.09-.63-.93-.37-1.68-1.33-2.52-.91,2.64-4.05,5.77-5.02,8.2-12.33-34.46-18.63-76.26-23.61-112.58Z"/>
            <path class="cls-3" d="M1095.07,1072.6c.47.06.71.09,1.19.15,10.4,36.61,20.68,73.25,31.29,109.8,3.59-6.68,6.91-13.48,9.96-20.42,7.1,43.67,8.47,85.83,20.51,128.47,6.61,23.47,16.44,48.37,18.68,72.66-.87-.11-1.31-.16-2.19-.27l-20.43-72.39c-11.59-42.12-13.06-83.77-20-126.84-4.99.5-4.84,14.53-9.54,18.98-10.61-36.12-22.12-73.17-29.47-110.13Z"/>
            <path class="cls-3" d="M1116.15,1072.6c.5.06.75.08,1.24.14,12.66,36.58,25.12,73.23,38.11,109.69,4.11-10.68,8.16-21.39,12.13-32.12,6.21,33.92,4.11,69.93,12.51,103.32,3.14,12.48,8.32,24.81,12.51,36.97,8.09,23.54,19.24,48.09,23.27,72.66-.92-.1-1.38-.16-2.29-.26-8.3-24.13-16.61-48.27-24.91-72.4-4.1-12.17-9.18-24.5-12.25-36.98-8.16-33.1-6.17-68.65-12.25-102.25-5.79.73-7.61,24.79-10.56,31.41-12.54-19.39-17.08-47.19-24.38-69.23-4.49-13.57-9.38-27.15-13.12-40.95Z"/>
            <path class="cls-3" d="M1137.24,1072.6c.52.05.78.08,1.3.13,14.93,36.6,29.66,73.28,44.93,109.74,4.46-12.55,9.22-24.98,14.3-37.3,10.58,50.46,9.64,99.85,28.87,148.21,7.1,24.04,22.68,45.13,28.5,69.88-.96-.1-1.44-.15-2.4-.25-9.56-23.56-20.92-46.65-29.87-70.35-4.95-12.51-10.31-25.98-14.03-38.92-9.99-34.7-7.2-72.97-14.5-108.41-6.37-.45-9.47,29.95-12.51,37.2-14.48-17.78-20.45-47.47-28.91-68.98-5.34-13.57-11.04-27.12-15.69-40.95Z"/>
            <path class="cls-3" d="M1158.32,1072.6c.54.05.82.07,1.36.12,17.17,36.55,32.28,75.57,53.28,110.08,2.37-12.42,7.32-23.62,14.84-33.61,11.65,51.59,12.15,104.16,31.21,154.05,2.99,11.1,13.85,14.84,19.69,23.82,6.66,10.25,12.1,24.44,15.67,36.19-1-.09-1.51-.14-2.51-.23-5.43-11.62-9.96-25.21-16.99-35.97-6.23-9.53-13.92-14.66-19.47-25.19-19.23-49.78-19.46-102.01-30.99-153.57-6.76-3.69-10.62,29.57-15.92,34.4-17.54-36.01-35.4-72.81-50.16-110.09Z"/>
            <path class="cls-3" d="M1179.4,1072.6c.57.05.85.07,1.42.12,10.71,20.14,21.71,40.16,31.84,60.61,7.38,14.9,15.2,39.76,29.87,48.8.83-10.81,5.86-17.9,15.1-21.26,13.02,51.17,15.64,105.91,32.85,156.09,3.69,11.97,17.56,3.58,25.14,9.96,7.73,6.51,14.39,27.05,17.96,36.33-1.05-.09-1.57-.13-2.62-.22-4.91-9.28-10.87-28.99-19.18-36.22-9.66-8.4-14.36-1.67-24.86-11.5-17.41-50.21-19.85-104.8-32.68-156.06-7.51-7.32-8.86,13.47-12.46,17.59-7.42,8.49-6.59,3.85-11.94-5.72-4.81-8.59-9.54-17.11-13.89-25.95-11.94-24.29-25.14-48.06-36.56-72.58Z"/>
            <path class="cls-3" d="M1200.49,1072.6c.59.04.89.07,1.48.11,14.08,23.73,26.37,47.82,39.05,72.22,5.06,9.73,14.91,30.49,24.02,35.2,12.9,6.68,9.68-12.65,22.33-3.12,8.5,28.06,11.81,57.26,20.62,85.21,7.08,22.46,6.61,46.49,13.9,68.83,8.31,11.84,20.06-9.18,30.39-3.06,8.09,4.79,16.43,26.13,20.54,35.26l-2.73-.21c-4.19-7.09-13.42-31.87-21.42-36.21-13.08-7.1-16.73,13.51-30.37,2.71-7.17-21.97-7-45.6-13.91-67.7-8.9-28.44-11.93-58.19-20.4-86.78-5.23-11.11-8.89,3.41-13.52,5.96-8.35,4.6-8.13-.9-14.13-9.23-6.36-8.84-12.75-17.16-17.73-26.88-12.42-24.29-25.42-48.14-38.12-72.3Z"/>
            <path class="cls-3" d="M1221.57,1072.6c.61.04.92.06,1.53.1,9.28,14.26,19.85,28.67,27.6,43.85,4.57,8.95,6.17,19.06,10.99,27.91,6.63,12.18,17.37,20.8,26.3,31.16,2.52,7.81,7.43,11.61,14.75,11.39,6.82-3.39,11.59-.91,14.31,7.43,9.58,22.71,14.1,47.79,22.65,70.92,9.12,24.66,5.49,51.98,14.3,76.67,12.12,10.93,21.61-21.49,35.43-15.11,7.86,3.63,18.62,28.74,22.61,36.33-1.13-.08-1.7-.12-2.83-.19-4.39-6.73-15.48-32.54-23.66-36.22-7.1-.94-12.63,1.49-16.6,7.29-4.45,6.4-10.67,8.7-18.66,6.93-8.59-24.52-5.29-51.53-14.2-76.01-8.61-23.67-12.84-49.26-22.41-72.54-3.44-10.89-8.11-4.32-14.58-6.08-13.8-3.74-32.23-28.22-39.52-41.94-8.93-16.8-14.76-33.96-24.83-50.45-4.37-7.15-8.86-14.24-13.17-21.43Z"/>
            <path class="cls-3" d="M1242.66,1072.6c.64.04.96.06,1.59.1,9.22,13.12,20.22,26.76,27.56,41.05,5,9.73,4.97,20.68,10.16,30.25,14.68,27.06,48.57,40.41,64.81,65.96,9.55,18.05,16.9,39.23,24.74,58.06,10.34,24.85,4.71,53.96,16.09,78.41,13.57,9.39,23.13-26.27,38.49-18.61,9.56,4.77,19.59,25.98,25.15,35.43-1.18-.07-1.76-.11-2.94-.18-5.86-8.2-16.49-30.8-26.23-34.81-4.2-5.8-8.96-4.64-14.28,3.46-5.31,10.15-13.35,15.03-24.12,14.64-10.96-24.67-5.63-53.58-15.81-78.53-7.87-19.29-14.94-40.9-24.49-59.45-3.74-8.66-8.81-11.05-15.68-16.4-15.81-12.29-38.45-30.21-48.15-48.03-4.32-7.93-4.4-16.84-7.68-25.11-3.5-8.84-9.92-16.81-15.07-24.76-4.67-7.2-9.41-14.34-14.16-21.48Z"/>
            <path class="cls-3" d="M1263.74,1072.6c.66.04.99.05,1.65.09,8.77,11.68,21.4,25.21,27.45,38.55,4.66,10.28,2.72,22.45,8.25,32.09,9.91,17.25,33.06,25.48,46.48,39.56,10.91,11.45,20.68,24.11,29.08,37.47,10.06,14.74,18.87,32.03,27.22,47.79,11.94,22.52,6.31,50.69,19.4,72.81,15.02,6.1,23.07-21.82,39.95-14.04,9.31,4.29,21.33,27.22,27.27,36.33-1.22-.07-1.83-.1-3.05-.17-6.89-8.87-17.86-30.27-28.42-35.08-13.36-6.08-25.22,10.28-39.89,14.06-12.91-22.57-6.99-51-18.95-73.86-8.38-16-16.9-33.61-26.93-48.67-4.94-8.96-10.99-16.02-17.65-23.7-16.01-18.45-44.96-31.66-56.64-52.5-4.44-7.93-2.51-17.08-5.32-25.42-2.82-8.36-9.3-15.66-14.21-22.86-5.15-7.55-10.29-15.08-15.68-22.46Z"/>
            <path class="cls-3" d="M1284.82,1072.6c.68.03,1.02.05,1.71.08,8.95,11.23,20.6,23.58,27.29,36.31,5.84,11.11,2.07,23.78,8.54,34,10.67,16.85,34.69,25.07,49.41,38.01,13.54,11.91,23.65,27.86,34.96,41.91,10.8,13.32,20.87,29.33,29.82,43.95,11.44,18.68,9.63,43.57,23.84,60.91,14.6,6.3,24.35-12.25,39.66-.69,11.19,8.45,21.39,24.67,29.66,36.17-1.26-.06-1.89-.09-3.16-.16-8.68-10.36-18.96-28.47-30.55-35.72-13.38-8.38-24.44.71-39.89,2.14-14.06-17.95-11.86-43.21-23.32-62.36-8.81-14.71-18.77-30.86-29.5-44.24-6.69-7.97-12.63-16.54-19.04-24.73-7.54-9.62-14.89-17.18-24.77-24.51-11.64-8.64-33.15-17.54-40.34-30.84-4.58-8.47-1.28-17.48-3.96-26.3-2.43-8.01-9.08-14.8-13.89-21.55-5.39-7.55-10.74-15.09-16.47-22.38Z"/>
            <path class="cls-3" d="M1305.91,1072.6c.71.03,1.06.05,1.76.08,9.19,10.93,21.99,23.48,28.6,36.15,5.89,11.3.88,23.58,7.98,33.81,12.13,17.48,38.85,25.34,55.09,38.59,14.39,11.74,25.37,27.66,37.51,41.68,10.93,13.01,22.85,26.68,32.96,40.22,11.11,14.89,12.96,36.52,28.33,48.28,13.55,8.34,26.26,2.1,38.87,15.31,11.06,11.58,21.96,23.97,31.92,36.53-1.31-.06-1.96-.09-3.26-.14-10.38-11.54-20.59-26.46-32.62-36.28-13.34-10.89-22.86-9.42-39.21-13.55-15.34-12.31-16.67-34.47-27.8-49.77-9.95-13.67-21.8-27.49-32.61-40.6-6.84-7.67-13.18-15.75-19.73-23.67-8.72-10.53-17.08-18.45-28.64-26.07-13.03-8.59-35.02-17.1-43.8-30.64-5.77-8.9-1.06-16.21-3.51-25.64-2.09-8.06-9.03-14.61-13.93-21.13-5.88-7.82-11.6-15.69-17.91-23.17Z"/>
            <path class="cls-3" d="M1326.99,1072.6c.73.03,1.09.04,1.82.07,10.22,11.47,24.07,24.28,30.97,38,5.28,10.51.14,21.78,7.48,31.64,12.49,16.78,40.79,24.77,57.42,36.94,16.2,11.86,28.69,29.02,42.3,43.66,12.11,12.3,24.07,25.12,35.7,37.85,10.94,11.97,18.39,27.38,33.04,35.71,12.94,10.95,26.38,17.57,38.18,30.45,11.24,12.26,23.42,23.71,34.25,36.33-1.35-.05-2.02-.08-3.37-.13-23.67-24.63-44.41-46.95-73.3-65.17-14.69-8.52-21.68-24.73-32.55-36.9-11.47-12.85-23.4-25.74-35.38-38.14-7.02-7.36-13.61-15.1-20.36-22.71-9.79-11.04-19.29-19.7-31.88-27.63-13.14-8.28-38-16.91-46.83-30.29-6.04-9.16-1.5-15.41-4.04-24.97-2.35-8.86-9.77-15.46-15.39-22.56-5.93-7.49-11.68-15.05-18.09-22.15Z"/>
            <path class="cls-3" d="M1348.07,1072.6c.75.02,1.13.04,1.88.06,10.52,11.13,23.23,23.24,31.7,36.11,7.49,11.4,3.26,23.65,13.15,33.97,16.37,17.09,42.34,24.6,60.98,38.93,15.31,11.77,27.78,27.57,41.34,41.23,25.4,22.14,46.62,46.36,75.2,64.61,24.72,25.46,50.99,49.66,75.06,75.73-1.39-.05-2.09-.07-3.48-.12-25.41-24.84-49.93-50.58-75.66-75.04-28.44-18.1-49.46-42.99-74.54-65.18-7.78-7.66-15.13-15.73-22.66-23.65-8.78-9.24-17.56-17.35-28.35-24.3-15.96-10.28-38.57-18.06-51.32-32.37-8.25-9.26-4.23-14.54-7.15-24.82-2.7-9.5-11.58-16.54-17.78-23.96-6.01-7.19-11.86-14.45-18.37-21.2Z"/>
            <path class="cls-3" d="M1369.16,1072.6c.78.02,1.16.03,1.94.06,11.26,11.23,24.44,23.22,33.9,36.1,8.45,11.5,7.28,24.55,18.34,34.78,17.35,16.04,41.58,24,60.36,38.23,15.83,11.99,29.18,27.52,43.56,41.15,14.61,11.69,26.31,25.82,40.06,38.43,12.22,11.21,26.87,17.29,39.89,27.35,25.35,26.07,53.72,48.85,79.39,74.56-1.44-.04-2.15-.06-3.59-.1-26.83-24.74-54.41-48.66-79.71-74.98-12.93-10.01-27.38-16.19-39.57-27.27-13.69-12.44-25.46-26.37-39.91-37.99-8.23-7.64-16.06-15.7-24.05-23.58-23.64-23.31-56.77-33.44-80.04-56-9.35-9.06-7.25-15.91-11.93-26.61-3.73-8.53-11.44-14.4-17.64-21.25-6.97-7.69-13.56-15.63-21.01-22.87Z"/>
            <path class="cls-3" d="M1390.24,1072.6c.8.02,1.2.03,2,.05,12.16,11.37,28.64,24.68,38.43,37.98,8.55,11.63,10.27,24.04,21.73,33.9,16.69,14.37,38.53,22.65,56.42,35.46,17.47,12.52,32.59,28.62,48.58,42.92,16.58,13.41,26.32,30.46,40.73,45.57,11.84,12.41,29.13,14.97,43.65,23.34,28.24,23.54,57.17,46.33,84.06,71.43-1.48-.04-2.22-.05-3.7-.09-27.8-24.26-56.2-47.68-84.31-71.58-14.6-8.65-31.23-11.63-43.14-24.23-14.13-14.94-24.39-31.37-40.72-44.44-8.39-7.36-16.42-15.1-24.58-22.71-24.33-22.68-55.73-34.33-80.34-55.84-9.25-8.09-10.88-17.06-16.66-27.05-5.2-8.97-13.43-15.07-20.55-22.51-7.16-7.49-13.91-15.23-21.59-22.21Z"/>
            <path class="cls-3" d="M1411.21,1072.84c.81.05,1.21.08,2.01.14,13.04,12.39,29.14,24.47,41.07,37.67,10.62,11.75,15.75,25.1,28.57,35.2,16.72,13.16,36.72,21.93,54.03,34.31,17.9,12.8,33.86,28.55,50.62,42.76,15.75,14.96,25.48,38.09,42.07,51.62,12.61,10.28,32.58,10.87,47,18.33,30.42,22.17,60.14,45.58,88.46,70.39-1.52-.03-2.28-.05-3.8-.08-29.1-24.1-58.36-47.72-88.63-70.35-14.38-7.45-34.18-8.16-46.67-18.61-16.47-13.79-25.81-36.44-41.85-51.3-9.49-7.89-18.59-16.22-27.86-24.36-23.76-20.88-52.08-33.59-76.76-52.88-10.23-7.99-14.5-16.97-21.8-27.14-6.69-9.33-15.35-15.12-23.64-22.97-7.8-7.38-14.86-15.5-22.82-22.73Z"/>
            <path class="cls-3" d="M1431.55,1074.42c.8.1,1.21.15,2.01.25,13.63,12.34,28.71,22.52,42.52,34.31,13.77,11.76,22.42,27.25,37.35,38.14,17.35,12.65,36.66,22.34,54.01,35.03,17.37,12.71,33.4,27.27,50.27,40.63,14.67,15.43,26.79,38.71,44.61,50.47,14.48,9.56,33.73,10.65,49.23,19.29,32.02,21.91,62.77,46.06,92.72,70.7-1.56-.03-2.35-.04-3.91-.06-30.54-24.07-60.95-48.2-92.79-70.56-15.09-8.17-35.3-8.73-49.15-18.21-17.36-11.89-29.84-36.43-44.16-51.6-9.69-7.54-18.97-15.56-28.39-23.42-23.9-19.95-50.9-34.15-75.89-52.42-11.81-8.63-18.93-19.23-28.53-29.75-7.34-8.04-16.12-13.14-24.58-19.86-8.91-7.08-16.86-15.33-25.32-22.94Z"/>
            <path class="cls-3" d="M1451.44,1076.96c.81.13,1.22.19,2.03.32,14.75,11.95,31.03,20.66,46.11,31.71,15.78,11.56,27.28,27.8,43.47,39.21,35.07,24.73,70.36,48.56,105.04,73.95,14.87,15.26,28.8,35.99,47.48,46.76,16.24,9.36,34.64,12.54,50.96,22.7,33.21,22.49,65.3,47.04,96.97,71.65-1.61-.02-2.41-.03-4.02-.05-32.08-24.11-63.89-48.67-96.92-71.48-16.24-9.98-34.74-12.84-50.79-22.19-18.59-10.84-32.35-31.98-47.14-47.28-34.76-25.1-69.84-49.35-104.82-74.1-22.11-15.64-39.26-35.24-61.84-50.33-9.35-6.25-17.87-13.69-26.53-20.85Z"/>
            <path class="cls-3" d="M1471.16,1079.88c.83.13,1.25.19,2.09.32,16.69,11.5,35.45,19.47,51.98,30.67,16.49,11.18,29.81,26.73,46.31,38.15,35.35,24.47,71.55,47.89,107.08,72.14,15.9,14.69,31.27,31.29,50.48,41.69,17.73,9.59,35.41,16.38,52.3,27.89,34.16,23.56,67.83,47.99,101.32,72.5-1.65-.02-2.48-.02-4.13-.04-33.67-24.19-67.15-48.67-101.14-72.39-16.84-11.39-34.57-17.71-52.16-27.26-19.18-10.41-34.39-27.49-50.15-42.27-35.56-24.05-71.47-47.88-106.72-72.34-23.29-16.16-41.33-35.66-66.41-49.11-10.82-5.8-20.91-12.8-30.86-19.96Z"/>
            <path class="cls-3" d="M1490.97,1082.59c.87.11,1.3.16,2.17.27,18.05,10.15,38.45,17.12,55.79,28.05,17.46,11.01,32.07,26.58,49.11,38.34,35.97,24.84,74.38,47.08,111.16,70.8,33.78,26.88,71.39,46.21,106.89,70.53,35.3,24.19,70.74,48.21,105.86,72.66-1.69-.01-2.54-.02-4.23-.03l-105.57-72.64c-35.42-24.39-72.85-43.21-106.43-70.4-36.74-23.57-74.69-46.2-110.55-70.95-24.74-17.07-44.36-36.91-71.81-49.49-11.13-5.1-21.88-10.88-32.39-17.15Z"/>
            <path class="cls-3" d="M1511.16,1084.5c.91.06,1.37.09,2.28.14,20.32,9.01,43.07,15.29,61.56,27.78,16.92,11.44,31.85,25.48,49.09,36.55,37.83,24.29,77.39,46.35,115.66,70.03,36.31,24.83,74.2,47.41,110.97,71.58,36.83,24.21,73.71,48.32,110.45,72.66-1.74,0-2.61,0-4.34-.01-36.68-24.22-73.36-48.43-110.05-72.65-36.59-24.17-74.51-46.47-110.5-71.47-38.16-23.58-77.61-45.69-115.19-70.08-26.57-17.25-47.58-38.27-77.17-50.43-11.01-4.52-22-9.02-32.76-14.11Z"/>
            <path class="cls-3" d="M2000.39,1363.25h-4.45c-38.18-24.22-76.35-48.44-114.53-72.66-38.16-24.21-76.31-48.42-114.68-72.29-39.4-23.87-80.05-45.76-119.34-69.72-18.81-11.47-35.48-25.93-53.96-37.84-18.84-12.14-40.45-18.39-61.43-25.73.97-.02,1.46-.03,2.43-.06,21.25,7.21,42.67,13.51,61.67,25.79,18.54,11.98,35.39,26.32,54.31,37.77,39.49,23.91,80.24,45.81,119.78,69.72,38.57,23.83,76.83,48.15,115.16,72.36,38.35,24.22,76.69,48.44,115.04,72.66Z"/>
          </g>
        </g>
      </g>
    </g>
  </g>
</svg>