<?xml version="1.0" encoding="UTF-8"?>
<svg id="Layer_2" data-name="Layer 2" xmlns="http://www.w3.org/2000/svg" xmlns:xlink="http://www.w3.org/1999/xlink" viewBox="0 0 1080 1350">
  <defs>
    <style>
      .cls-1 {
        fill: none;
      }

      .cls-2 {
        clip-path: url(#clippath);
      }

      .cls-3 {
        fill: #cf9;
      }
    </style>
    <clipPath id="clippath">
      <rect class="cls-1" x="0" y="0" width="1080" height="1350"/>
    </clipPath>
  </defs>
  <g id="Final">
    <g id="Links">
      <g id="Line_Wave_7" data-name="Line Wave 7">
        <g class="cls-2">
          <g>
            <path class="cls-3" d="M1110.5,1060.06c-62.47-32.73-114.73-30.09-181.19-15.38-54.52,12.07-110.19,10.73-165.02,22.54-54.44,11.73-108.89,28.15-164.72,31.69-42.79,2.72-82.11-7.66-122.24-21.26-42.5-14.39-81.02-21.6-125.72-24.31-48.31-2.92-95.08-17.96-143.43-20.38-25.43-1.27-51.09,1-74.37,11.94-30.15,14.15-53.03,34.41-87.19,39.25-58.23,8.25-112.11-25.1-169.16-30.16,0-.2,0-.29,0-.49,57.05,5.1,110.87,38.66,169.11,30.36,34.15-4.87,57.19-25.06,87.23-39.51,23.13-11.13,49.03-13.29,74.35-12.01,48.37,2.44,95.14,17.58,143.47,20.52,44.7,2.72,83.22,9.91,125.72,24.31,40.13,13.6,79.44,23.98,122.23,21.25,55.84-3.55,110.3-19.96,164.75-31.69,54.81-11.8,110.49-10.45,164.98-22.61,66.53-14.84,118.72-17.46,181.22,15.45v.49Z"/>
            <path class="cls-3" d="M1110.33,1065.8c-62.11-30.46-115.2-27.49-180.85-14.31-54.84,11.01-110.36,9.78-165.29,21.73-54.21,11.8-108.41,28.31-164.04,31.77-42.92,2.67-82.32-7.79-122.59-21.37-42.6-14.36-81.27-21.78-126.09-24.29-48.08-2.7-94.84-16.58-142.96-18.78-25.38-1.16-51.08.9-74.63,11.06-30,12.94-53.33,31.77-86.77,36.12-58.14,7.56-112.64-23.19-169.8-27.81,0-.23,0-.35,0-.58,57.15,4.66,111.59,35.66,169.74,28.04,33.51-4.39,56.8-23.36,86.81-36.42,23.52-10.23,49.22-12.32,74.6-11.15,48.14,2.22,94.9,16.21,143,18.93,44.8,2.53,83.45,9.93,126.03,24.29,40.25,13.58,79.64,24.03,122.54,21.36,55.66-3.47,109.89-19.97,164.13-31.76,54.93-11.94,110.46-10.7,165.28-21.81,65.73-13.32,118.73-16.27,180.88,14.41,0,.22,0,.33,0,.56Z"/>
            <path class="cls-3" d="M1110.16,1071.36c-62.16-28.28-116.68-24.68-181.93-12.87-53.49,9.68-107.23,8.49-160.65,20.11-54.4,11.84-108.78,28.97-164.61,32.58-43.58,2.82-83.74-7.75-124.67-21.51-41.44-13.94-79.36-22.2-123.02-24.18-51.93-2.35-102.67-16.95-154.71-17.62-21.86-.28-44.07,1.8-64.63,9.67-29.68,11.36-54.34,29.39-86.72,33.57-58.67,7.56-114.19-21.01-172.03-25.26,0-.26,0-.4,0-.66,57.83,4.29,113.28,33.16,171.96,25.52,32.46-4.23,57.07-22.43,86.77-33.92,20.54-7.94,42.74-10.06,64.6-9.77,52.07.68,102.81,15.43,154.76,17.8,43.62,2,81.5,10.22,122.91,24.16,40.89,13.76,81.01,24.31,124.56,21.49,55.89-3.61,110.33-20.73,164.78-32.56,53.43-11.61,107.2-10.39,160.68-20.18,65.34-11.96,119.76-15.55,181.96,12.99,0,.25,0,.37,0,.62Z"/>
            <path class="cls-3" d="M1110,1076.78c-61.81-25.86-117.18-22.09-181.61-11.62-53.59,8.71-106.97,7.69-160.3,19.54-53.81,11.96-107.58,29.24-162.88,32.84-43.91,2.86-84.51-7.99-125.77-21.74-41.83-13.94-80.24-22.49-124.3-24.33-51.7-2.16-102.42-15.38-154.22-15.97-21.87-.25-44.09,1.61-64.89,8.81-29.49,10.2-54.59,26.7-86.32,30.4-58.62,6.83-114.71-19.1-172.66-22.91,0-.3,0-.45,0-.75,57.94,3.86,113.96,30.13,172.58,23.21,31.81-3.75,56.86-20.44,86.37-30.8,20.76-7.28,42.99-9.17,64.85-8.92,51.83.59,102.55,13.99,154.28,16.18,44,1.86,82.35,10.36,124.12,24.3,41.22,13.75,81.75,24.56,125.61,21.71,55.37-3.6,109.23-20.86,163.12-32.8,53.35-11.82,106.78-10.78,160.36-19.61,64.53-10.63,119.79-14.4,181.64,11.77,0,.27,0,.41,0,.69Z"/>
            <path class="cls-3" d="M1109.85,1082.1c-62.07-23.6-118.61-19.31-182.76-10.09-52.03,7.48-103.52,6.46-155.15,18.1-55.45,12.5-110.88,31.2-168.02,34.13-42.88,2.2-82.74-9.04-123.03-22.27-42.75-14.03-82.13-22.98-127.2-24.61-50.13-1.82-99.45-13.21-149.63-14.19-24-.47-48.25,1.41-71.15,9.02-27.49,9.13-51.7,22.62-81.07,25.94-59.15,6.68-116.32-16.96-174.91-20.39,0-.33,0-.5,0-.83,58.57,3.49,115.67,27.51,174.82,20.72,29.46-3.38,53.61-17.06,81.13-26.36,22.87-7.72,47.11-9.64,71.11-9.16,50.22.99,99.54,12.57,149.7,14.41,45,1.66,84.29,10.55,126.97,24.58,40.23,13.23,80.01,24.42,122.82,22.23,57.23-2.92,112.78-21.6,168.34-34.08,51.65-11.6,103.2-10.56,155.24-18.16,64.26-9.4,120.68-13.68,182.8,10.26,0,.3,0,.45,0,.75Z"/>
            <path class="cls-3" d="M1109.7,1087.36c-61.72-21.03-119.08-16.8-182.47-8.76-51.99,6.59-103.04,5.75-154.46,17.66-54.64,12.65-109.22,31.56-165.61,34.49-43.34,2.26-83.85-9.34-124.61-22.58-43.29-14.06-83.36-23.35-128.99-24.83-49.92-1.62-99.19-11.71-149.15-12.55-24.03-.41-48.29,1.25-71.45,8.02-27.3,7.98-51.85,20.06-80.63,22.93-59.15,5.9-116.81-15.06-175.54-18.06,0-.37,0-.55,0-.92,58.71,3.07,116.29,24.44,175.44,18.43,28.87-2.94,53.37-15.23,80.7-23.39,23.12-6.91,47.38-8.6,71.4-8.18,50,.86,99.28,11.15,149.23,12.8,45.54,1.51,85.5,10.74,128.71,24.79,40.68,13.23,81.09,24.78,124.35,22.53,56.51-2.93,111.23-21.8,166-34.43,51.46-11.87,102.57-11,154.58-17.73,63.5-8.22,120.73-12.47,182.51,8.96,0,.33,0,.49,0,.82Z"/>
            <path class="cls-3" d="M1109.56,1092.58c-61.95-18.57-120.48-14.16-183.7-7.25-52.42,5.74-103.59,5.34-155.24,17.83-50.64,12.25-101.03,29.57-153.26,33.67-46.25,3.62-89.48-8.38-133.04-22.43-44.42-14.33-85.52-23.5-132.23-25.08-48.31-1.64-96.18-9.81-144.52-10.85-26.12-.56-52.62.96-77.96,7.75-25.3,6.77-48.69,16.51-75.16,18.99-59.73,5.59-118.4-12.96-177.8-15.58,0-.4,0-.6,0-1.01,59.38,2.7,117.98,21.7,177.7,15.98,26.57-2.55,49.91-12.5,75.25-19.47,25.29-6.96,51.79-8.52,77.9-7.94,48.38,1.07,96.26,9.45,144.6,11.12,46.6,1.61,87.57,10.71,131.9,25.04,43.47,14.05,86.58,25.99,132.75,22.39,52.36-4.08,102.89-21.38,153.68-33.6,51.7-12.44,102.94-12.01,155.39-17.89,63.33-7.1,121.73-11.55,183.74,7.46,0,.36,0,.54,0,.89Z"/>
            <path class="cls-3" d="M1109.43,1097.81c-61.64-15.89-120.86-11.78-183.43-5.94-52.31,4.88-102.99,4.67-154.38,17.47-49.81,12.4-99.33,29.92-150.79,34.04-46.72,3.74-90.67-8.71-134.7-22.76-45-14.36-86.85-23.93-134.16-25.32-48.11-1.41-95.91-8.35-144.04-9.23-26.19-.47-52.66.84-78.29,6.62-25.11,5.67-48.72,14.07-74.69,16.13-59.8,4.75-118.86-11.05-178.43-13.27,0-.44,0-.66,0-1.09,59.54,2.29,118.54,18.6,178.32,13.7,26.06-2.14,49.63-10.78,74.78-16.66,25.58-5.97,52.05-7.32,78.23-6.84,48.18.9,95.98,8.07,144.13,9.52,47.2,1.43,88.91,10.92,133.81,25.27,43.94,14.05,87.76,26.42,134.39,22.71,51.61-4.11,101.28-21.59,151.24-33.97,51.43-12.74,102.21-12.5,154.54-17.54,62.67-6.03,121.78-10.22,183.47,6.17,0,.39,0,.58,0,.97Z"/>
            <path class="cls-3" d="M1109.29,1103.07c-61.36-13.18-121.16-9.46-183.16-4.67-52.2,4.04-102.43,4-153.55,17.1-49,12.56-97.67,30.26-148.4,34.4-47.17,3.86-91.83-9.02-136.31-23.07-90.11-28.46-185.37-31.77-279.58-33.15-26.27-.39-52.74.71-78.62,5.48-24.9,4.59-48.72,11.62-74.21,13.28-59.89,3.91-119.32-9.14-179.06-10.95,0-.47,0-.71,0-1.18,59.71,1.89,119.06,15.48,178.94,11.41,25.58-1.74,49.36-9.04,74.31-13.85,25.84-4.98,52.3-6.12,78.56-5.72,94,1.44,189.44,4.98,279.32,33.43,44.39,14.05,88.92,26.85,136,23.02,50.87-4.14,99.71-21.8,148.86-34.33,51.18-13.05,101.49-12.98,153.71-17.18,62.1-5,121.8-8.81,183.21,4.91,0,.42,0,.63,0,1.06Z"/>
            <path class="cls-3" d="M1109.17,1108.42c-61.14-10.43-121.38-7.24-182.91-3.46-52.11,3.2-101.92,3.3-152.83,16.7-48.25,12.71-96.14,30.58-146.19,34.74-47.59,3.95-92.91-9.32-137.81-23.37-46.05-14.41-89.31-24.78-137.71-25.75-47.74-.96-95.34-5.43-143.09-5.98-52.02-.6-101.19,12.13-152.69,14.77-60.02,3.08-119.77-7.21-179.69-8.62,0-.51,0-.76,0-1.27,59.89,1.49,119.57,12.37,179.56,9.12,51.57-2.8,100.56-16.26,152.72-15.62,47.79.58,95.41,5.32,143.19,6.33,48.29,1.02,91.41,11.3,137.37,25.7,44.82,14.05,90,27.25,137.5,23.32,50.19-4.15,98.24-21.98,146.64-34.66,50.95-13.35,100.85-13.42,152.97-16.8,61.62-3.99,121.78-7.31,182.96,3.7,0,.46,0,.69,0,1.15Z"/>
            <path class="cls-3" d="M1109.05,1113.88c-61.51-7.71-122.53-5.04-184.25-2.27-52.7,2.37-102.31,2.95-153.62,16.98-47.78,13.07-95.49,31.27-145.33,34.54-46.57,3.05-91.15-10.34-135.12-23.95-44.97-13.92-87.81-25.06-135.13-25.86-47.94-.81-95.81-3.87-143.75-4.38-53.96-.58-106.34,9.27-160.02,10.86-58.64,1.73-117.12-5.41-175.71-6.41,0-.54,0-.81,0-1.35,58.55,1.08,116.96,8.83,175.56,6.95,53.76-1.72,105.98-12.41,160.06-11.78,47.98.56,95.88,3.9,143.86,4.75,47.24.84,89.95,11.9,134.83,25.82,43.89,13.61,88.35,26.94,134.84,23.91,49.95-3.27,97.81-21.44,145.73-34.48,51.34-13.97,101.03-14.53,153.74-17.09,61.79-3,122.75-5.84,184.3,2.5,0,.5,0,.75,0,1.26Z"/>
            <path class="cls-3" d="M1108.94,1119.48c-61.37-4.87-122.57-3.06-184.02-1.3-52.72,1.51-102.04,2.21-153.25,16.5-47.27,13.19-94.43,31.52-143.82,34.76-46.88,3.07-91.87-10.55-136.15-24.17-45.27-13.92-88.58-25.36-136.22-25.98-47.76-.62-95.51-2.43-143.27-2.75-53.54-.36-106.44,5.84-159.86,6.83-58.81,1.09-117.56-3.4-176.35-4.03,0-.58,0-.86,0-1.44,58.74.71,117.43,5.85,176.2,4.6,53.48-1.13,106.28-8.21,159.9-7.8,47.81.36,95.59,2.48,143.39,3.14,47.58.66,90.78,12.02,136,25.95,44.21,13.61,89.12,27.2,135.93,24.14,49.49-3.24,96.76-21.54,144.14-34.7,51.22-14.23,100.61-14.92,153.32-16.63,61.5-2,122.68-4.04,184.07,1.52,0,.55,0,.82,0,1.38Z"/>
            <path class="cls-3" d="M1108.83,1125.27c-61.27-2-122.52-1.2-183.8-.47-52.82.63-101.97,1.42-153.2,15.93-46.93,13.29-93.7,31.7-142.81,34.89-47.08,3.06-92.32-10.71-136.81-24.33-45.43-13.91-89.05-25.6-136.87-26.02-47.6-.42-95.2-.99-142.79-1.12-112.24-.3-224.42,1.62-336.7,1.14,0-.61,0-.92,0-1.53,58.95.35,117.88,2.86,176.83,2.26,53.29-.55,106.41-4.02,159.74-3.82,47.64.18,95.28,1.07,142.92,1.54,47.79.47,91.34,12.09,136.75,26.01,44.44,13.62,89.64,27.37,136.68,24.31,49.17-3.2,96.02-21.59,143.02-34.86,51.21-14.46,100.4-15.24,153.18-16.09,61.32-.99,122.56-2.07,183.85.67,0,.6,0,.9,0,1.51Z"/>
            <path class="cls-3" d="M1108.72,1131.23h-183.65c-52.95,0-102.04,1.01-153.38,15.53-46.82,13.24-93.48,31.51-142.46,34.73-47.06,3.09-92.5-10.85-137.01-24.32-45.41-13.74-89.24-25.62-137.01-25.94-47.48-.32-94.98,0-142.46,0H-124.29v-1.61H212.75c47.49,0,94.98-.28,142.46,0,47.83.28,91.57,12.12,137.01,25.98,44.55,13.59,89.86,27.43,137.01,24.41,49.03-3.14,95.65-21.57,142.46-34.9,51.32-14.61,100.43-15.49,153.38-15.49h183.65v1.61Z"/>
            <path class="cls-3" d="M1108.58,1137.19h-183.65c-52.88,0-102,1.37-153.38,15.29-46.87,12.7-93.64,30.12-142.46,33.45-46.78,3.18-92.57-10.73-137.01-23.57-45.35-13.11-89.5-24.76-137.01-25.17-47.48-.4-94.98,0-142.46,0H-124.42v-1.7H212.61c47.48,0,94.98-.38,142.46,0,47.58.38,91.64,12.14,137.01,25.46,44.44,13.05,90.15,27.04,137.01,23.87,48.87-3.31,95.61-21.01,142.46-33.9,51.37-14.13,100.46-15.43,153.38-15.43h183.65v1.7Z"/>
            <path class="cls-3" d="M1108.44,1143.14h-183.65c-52.71,0-101.99,1.5-153.38,14.51-46.94,11.88-93.83,28.11-142.46,31.31-46.56,3.06-92.5-10.18-137.01-22.18-45.37-12.23-89.76-23.23-137.01-23.65-47.48-.42-94.98,0-142.46,0H-124.56v-1.79H212.47c47.48,0,94.98-.42,142.46,0,47.33.42,91.65,11.64,137.01,24.16,44.47,12.27,90.38,25.78,137.01,22.67,48.7-3.25,95.55-19.87,142.46-32.02,51.39-13.31,100.61-14.81,153.38-14.81h183.65v1.79Z"/>
            <path class="cls-3" d="M1108.3,1149.09h-183.65c-52.46,0-102.02,1.45-153.38,13.29-47.03,10.84-94.02,25.59-142.46,28.5-46.4,2.79-92.32-9.3-137.01-20.25-45.42-11.14-90.02-21.15-137.01-21.53-47.48-.39-94.98,0-142.46,0H-124.7v-1.87H212.33c47.48,0,94.98-.4,142.46,0,47.07.4,91.6,10.74,137.01,22.24,44.62,11.31,90.56,23.8,137.01,20.92,48.51-3.01,95.47-18.25,142.46-29.44,51.37-12.23,100.83-13.72,153.38-13.72h183.65v1.87Z"/>
            <path class="cls-3" d="M1108.17,1155.05c-111.05,0-227.71-10.6-337.03,11.72-47.13,9.62-94.21,22.68-142.46,25.17-46.27,2.39-92.08-8.17-137.01-17.93-45.5-9.89-90.27-18.65-137.01-18.97-47.48-.32-94.98,0-142.46,0H-124.83v-1.96H212.2c47.48,0,94.98-.34,142.46,0,46.81.34,91.53,9.53,137.01,19.84,44.84,10.17,90.7,21.27,137.01,18.74,48.31-2.63,95.37-16.27,142.46-26.31,109.09-23.26,226.06-12.28,337.03-12.28v1.96Z"/>
            <path class="cls-3" d="M1108.03,1161c-111.29,0-227.03-9.37-337.03,9.92-47.23,8.28-94.39,19.49-142.46,21.5-46.17,1.93-91.84-6.88-137.01-15.32-45.58-8.52-90.51-15.88-137.01-16.1-47.49-.23-94.98,0-142.46,0H-124.97v-2.05H212.06c47.49,0,94.98-.26,142.46,0,46.57.25,91.45,8.11,137.01,17.1,45.08,8.9,90.8,18.34,137.01,16.25,48.13-2.17,95.27-14.03,142.46-22.78,109.78-20.37,225.82-10.57,337.03-10.57v2.05Z"/>
            <path class="cls-3" d="M1107.89,1166.96c-111.53,0-226.4-8.07-337.03,8-47.31,6.88-94.55,16.17-142.46,17.65-46.08,1.43-91.62-5.53-137.01-12.57-93.28-14.47-185.32-13.09-279.47-13.09H-125.11v-2.13H211.92c94.33,0,186.15-1.37,279.47,14.17,45.32,7.55,90.9,15.18,137.01,13.57,47.97-1.67,95.18-11.65,142.46-19.03,110.41-17.25,225.59-8.71,337.03-8.71v2.13Z"/>
            <path class="cls-3" d="M1107.76,1172.91c-111.74,0-225.86-6.73-337.03,6.07-47.39,5.45-94.69,12.83-142.46,13.8-45.98.93-91.45-4.17-137.01-9.79-93.18-11.49-185.73-10.07-279.47-10.07H-125.25v-2.22H211.79c93.87,0,186.26-1.41,279.47,11.18,45.5,6.15,90.99,11.94,137.01,10.83,47.82-1.15,95.1-9.24,142.46-15.22,110.98-14.02,225.37-6.79,337.03-6.79v2.22Z"/>
            <path class="cls-3" d="M1107.62,1178.87c-111.94,0-225.42-5.37-337.03,4.22-94.4,8.11-184.93,11.73-279.47,2.98-93.13-8.62-186.03-7.2-279.47-7.2H-125.38v-2.31H211.65c93.54,0,186.32-1.43,279.47,8.28,45.62,4.76,91.08,8.79,137.01,8.14,47.7-.67,95.04-6.9,142.46-11.5,111.45-10.82,225.16-4.92,337.03-4.92v2.31Z"/>
            <path class="cls-3" d="M1107.48,1184.82c-112.11,0-225.09-4.03-337.03,2.58-93.69,5.53-185.71,8.06-279.47,2.04-93.11-5.97-186.21-4.62-279.47-4.62H-125.52v-2.39H211.51c93.32,0,186.35-1.4,279.47,5.61,94.03,7.07,185.53,4.13,279.47-2.4,111.83-7.78,224.99-3.21,337.03-3.21v2.39Z"/>
            <path class="cls-3" d="M1107.34,1190.78c-112.23,0-224.86-2.75-337.03,1.25-93.32,3.32-186.13,4.89-279.47,1.23-205.1-8.04-411.26-2.48-616.5-2.48v-2.48c205.12,0,411.6-6.75,616.5,3.31,93.48,4.59,186.03,2.65,279.47-1.55,112.09-5.03,224.85-1.76,337.03-1.76v2.48Z"/>
            <path class="cls-3" d="M1107.21,1196.73H-125.79v-2.57c205.36,0,411.21-4.03,616.5,1.51,93.23,2.52,186.25,1.42,279.47-.84,112.25-2.72,224.75-.67,337.03-.67v2.57Z"/>
            <path class="cls-3" d="M1107.07,1202.68H-125.93v-2.65h1233v2.65Z"/>
            <path class="cls-3" d="M1106.89,1208.61c-410.91-1.61-822.07,4.55-1232.97.07,0-1.11,0-1.67,0-2.78,411,.78,822-.26,1233-.01-.02,1.09-.02,1.63-.04,2.72Z"/>
            <path class="cls-3" d="M1106.66,1214.52c-61.59-.67-123.11,3.32-184.69,2.68-50.5-.53-100.68-5.76-151.24-5.47-93.5.54-186.92,2.86-280.44,2.86s-185.92.08-278.98-3.23c-112.65-4.02-224.98,5.7-337.53,3.33,0-1.14,0-1.71,0-2.85,112.43,2,224.84-4.22,337.3-1.81,93.1,1.99,186.09,1.73,279.21,1.73,205.53,0,410.94-1.6,616.41-.05-.02,1.12-.02,1.68-.04,2.8Z"/>
            <path class="cls-3" d="M1106.43,1220.43c-61.86-1.07-123.52,5.51-185.36,4.42-50.18-.88-99.5-9.5-149.85-9.01-93.73.91-187.27,4.71-281.06,4.71s-185.26-.76-278.32-7.65c-52.87-3.91-106.4-4.53-159.34-1.61-59.7,3.29-118.97,10.57-178.86,9.37,0-1.16,0-1.75,0-2.92,112.79,2.46,224.86-11.49,337.84-5.4,93.05,5.01,185.5,5.3,278.67,5.3s187.14-3.07,280.76-3.8c50.44-.4,100.2,6.57,150.53,7.28,61.71.87,123.3-4.44,185.03-3.57-.02,1.16-.03,1.73-.04,2.89Z"/>
            <path class="cls-3" d="M1106.2,1226.33c-62.15-1.45-123.92,7.72-186.01,6.17-49.94-1.25-98.19-13.24-148.47-12.55-48.28.66-96.38,5.68-144.65,6.45-45.66.73-91.38.11-137.04.11s-91.37.5-137.04.25c-47.2-.26-93.67-8.01-140.4-13.71-52.79-6.44-106.21-7.65-159.18-2.66-60.09,5.65-119.32,16.84-179.89,16.22,0-1.19,0-1.79,0-2.99,60.2.98,119.46-8.19,179.34-12.59,52.93-3.9,106.46-3,159.27,2.1,46.92,4.54,93.63,10.76,140.86,10.7,45.68-.06,91.37-.31,137.05-.31,93.95,0,187.52-4.53,281.38-5.63,50.3-.59,99.11,9.7,149.17,10.77,61.96,1.32,123.68-6.55,185.68-5.29-.02,1.19-.03,1.78-.05,2.97Z"/>
            <path class="cls-3" d="M1105.95,1232.22c-62.46-1.82-124.31,9.96-186.66,7.91-49.78-1.63-96.74-16.98-147.09-16.09-48.52.86-96.75,7.29-145.27,8.27-45.65.93-91.39.14-137.05.14s-91.4,1.12-137.01.05c-47.21-1.1-93.12-12.15-139.4-20.36-52.94-9.4-105.67-11.26-159.01-3.85-60.54,8.41-119.63,23.86-181.09,24.22,0-1.23,0-1.84,0-3.07,60.97.21,120.14-13,180.45-19.95,53.1-6.12,106.27-4.61,159.1,3.2,46.53,6.88,92.74,16.19,139.93,16.83,45.65.62,91.37-.16,137.03-.16s91.39.7,137.05-.12c48.39-.87,96.55-6.57,144.95-7.33,50.3-.79,97.95,12.81,147.81,14.25,62.21,1.8,124.03-8.63,186.32-7.01-.02,1.22-.03,1.83-.05,3.06Z"/>
            <path class="cls-3" d="M1105.71,1238.12c-62.78-2.16-124.7,12.22-187.3,9.66-23.42-.96-44.73-6.94-67.24-12.53-25.59-6.35-52.22-7.67-78.48-7.1-48.77,1.06-97.12,8.9-145.89,10.09-45.64,1.12-91.41.16-137.06.16s-91.49,1.84-136.97-.21c-47.31-2.13-92.57-16.74-138.31-27.64-53.34-12.72-104.78-15.24-158.82-5.11-61.01,11.43-119.87,31.36-182.41,32.97,0-1.26,0-1.89,0-3.15,61.95-.9,120.94-18.42,181.69-28.23,53.62-8.66,105.82-6.5,158.92,4.4,46.04,9.45,91.65,22.15,138.9,23.72,45.56,1.51,91.41.06,137,.06s91.41.86,137.05-.15c48.63-1.08,96.92-8.17,145.56-9.12,50.45-1,96.71,15.91,146.45,17.74,62.46,2.3,124.35-10.7,186.95-8.73-.02,1.26-.03,1.89-.05,3.14Z"/>
            <path class="cls-3" d="M1105.45,1244.01c-63.11-2.49-125.08,14.51-187.93,11.41-23.49-1.16-44.08-8.22-66.28-14.82-25.22-7.49-51.9-9.02-78.06-8.34-49.03,1.27-97.48,10.52-146.5,11.92-45.62,1.3-91.43.19-137.07.19s-91.66,2.61-136.93-.5c-47.5-3.26-92.06-21.55-137.17-35.21-53.86-16.31-103.65-19.41-158.62-6.38-61.46,14.57-120.03,39.03-183.77,42.07,0-1.29,0-1.94,0-3.23,63.07-2.23,121.81-24.2,183.02-37.06,54.44-11.43,105.17-8.67,158.74,5.65,45.46,12.15,90.41,28.42,137.79,31.07,45.39,2.53,91.49.34,136.95.34s91.43,1.02,137.06-.17c48.88-1.28,97.28-9.75,146.16-10.92,26.22-.62,52.86.78,78.3,7.64,22.37,6.03,43.35,12.52,66.8,13.58,62.71,2.83,124.65-12.75,187.57-10.45-.02,1.29-.03,1.94-.06,3.23Z"/>
            <path class="cls-3" d="M1105.19,1249.9c-63.45-2.81-125.48,16.83-188.55,13.15-23.61-1.38-43.43-9.53-65.33-17.12-24.83-8.61-51.57-10.35-77.64-9.56-49.3,1.49-97.83,12.14-147.12,13.74-45.61,1.48-91.45.21-137.08.21s-91.89,3.37-136.89-.79c-47.78-4.42-91.61-26.4-136.04-42.73-54.35-19.98-102.45-23.61-158.44-7.62-61.86,17.67-120.11,46.62-185.13,51.08,0-1.33,0-1.99,0-3.32,64.3-3.64,122.73-30.09,184.37-46.03,55.42-14.34,104.46-11.02,158.55,6.89,44.82,14.84,89.06,34.76,136.67,38.55,45.16,3.59,91.61.63,136.91.63s91.45,1.18,137.07-.2c49.14-1.48,97.63-11.34,146.77-12.72,26.12-.73,52.83.88,77.89,8.85,22.08,7.02,42.32,14.58,65.86,15.85,62.94,3.38,124.93-14.79,188.18-12.17-.02,1.33-.04,1.99-.06,3.31Z"/>
            <path class="cls-3" d="M1104.92,1255.79c-63.8-3.1-125.88,19.18-189.16,14.9-23.78-1.61-42.79-10.85-64.37-19.43-24.42-9.71-51.21-11.68-77.23-10.78-49.57,1.72-98.17,13.76-147.74,15.56-45.59,1.66-91.47.23-137.08.23s-92.16,4.05-136.85-1.05c-48.13-5.5-91.23-31.05-134.96-49.88-24.66-10.62-50.55-20.1-77.49-22.58-27.33-2.52-55.12,5.32-80.78,13.81-62.21,20.6-120.1,53.87-186.41,59.61,0-1.37,0-2.05,0-3.41,65.57-5,123.67-35.81,185.68-54.76,56.39-17.23,103.85-13.45,158.37,8.06,44.13,17.42,87.65,40.94,135.57,45.85,44.86,4.59,91.77.92,136.87.92s91.48,1.33,137.08-.22c49.41-1.68,97.97-12.91,147.38-14.51,26.05-.84,52.81.99,77.48,10.05,21.77,8,41.24,16.64,64.92,18.12,63.15,3.95,125.2-16.81,188.79-13.9-.02,1.36-.04,2.04-.06,3.4Z"/>
            <path class="cls-3" d="M1104.65,1261.67c-64.11-3.38-126.36,21.72-189.76,16.65-23.99-1.92-42.14-12.19-63.42-21.75-24-10.79-50.84-13-76.82-11.98-49.86,1.95-98.51,15.38-148.36,17.38-45.57,1.83-91.49.26-137.09.26s-92.43,4.61-136.82-1.25c-48.53-6.41-90.94-35.27-133.99-56.33-24.22-11.84-49.97-22.64-77.05-25.5-27.49-2.89-55.68,6.3-81.06,15.73-62.46,23.21-120.02,60.52-187.56,67.25,0-1.4,0-2.11,0-3.51,66.82-6.16,124.58-41.12,186.9-62.84,25.54-8.9,53.52-17.35,80.91-14.68,26.99,2.63,52.83,12.67,77.31,23.81,43.45,19.78,86.26,46.73,134.55,52.65,44.55,5.46,91.95,1.16,136.83,1.16s91.51,1.48,137.09-.24c49.68-1.88,98.3-14.49,147.99-16.31,26-.95,52.82,1.1,77.08,11.24,21.47,8.98,40.12,18.63,63.98,20.4,63.29,4.71,125.49-18.82,189.38-15.62-.03,1.39-.04,2.09-.06,3.48Z"/>
            <path class="cls-3" d="M1104.37,1267.55c-36.06-2.04-70.6,2.14-105.91,8.92-27.56,5.3-56.19,12.13-84.44,9.48-24.24-2.27-41.5-13.55-62.46-24.08-23.57-11.84-50.44-14.3-76.42-13.17-50.14,2.18-98.83,17-148.97,19.21-45.54,2-91.51.28-137.1.28s-92.64,4.99-136.8-1.35c-48.96-7.03-90.73-38.83-133.18-61.74-23.82-12.86-49.47-24.77-76.7-27.81-27.7-3.09-56.07,7.02-81.29,17.23-62.62,25.37-119.87,66.35-188.51,73.57,0-1.44,0-2.16,0-3.6,67.99-6.95,125.43-45.76,187.96-69.9,25.3-9.77,53.6-19.4,81.17-16.42,27.14,2.93,52.85,14.2,76.91,26.46,42.81,21.83,84.95,51.92,133.65,58.64,44.28,6.11,92.11,1.32,136.81,1.32s91.53,1.63,137.09-.26c49.96-2.07,98.63-16.05,148.6-18.1,25.98-1.07,52.84,1.22,76.68,12.42,21.15,9.93,38.96,20.66,63.04,22.7,28.38,2.4,56.94-3.9,84.71-8.94,35.1-6.36,69.5-10.34,105.26-8.41l-.07,3.57Z"/>
            <path class="cls-3" d="M1104.08,1273.43c-36.54-2.2-71.3,2.33-106.95,9.81-27.29,5.73-55.88,13.29-83.99,10.34-24.5-2.57-40.9-14.95-61.5-26.41-23.13-12.87-50.02-15.6-76.02-14.35-50.44,2.43-99.15,18.63-149.59,21.03-45.52,2.16-91.54.3-137.11.3s-92.74,5.17-136.81-1.31c-49.39-7.27-90.62-41.48-132.57-65.8-23.51-13.63-49.07-26.34-76.47-29.33-27.97-3.06-56.22,7.35-81.43,18.19-62.66,26.94-119.64,71.13-189.2,78.18,0-1.48,0-2.22,0-3.7,69.02-7.2,126.17-49.46,188.8-75.52,25.19-10.48,53.57-20.8,81.36-17.72,27.3,3.03,52.92,15.28,76.61,28.46,42.25,23.5,83.8,56.29,132.92,63.49,44.1,6.47,92.23,1.37,136.8,1.37s91.56,1.77,137.1-.28c50.25-2.26,98.95-17.61,149.21-19.9,25.99-1.18,52.87,1.36,76.28,13.58,20.84,10.87,37.76,22.6,62.09,25,28.2,2.78,56.81-4.32,84.26-9.78,35.43-7.05,70.05-11.38,106.29-9.29-.03,1.46-.04,2.19-.07,3.65Z"/>
            <path class="cls-3" d="M1103.79,1279.3c-37.03-2.36-72,2.51-107.98,10.71-27,6.15-55.58,14.44-83.53,11.19-24.77-2.88-40.32-16.37-60.55-28.76-22.67-13.88-49.59-16.89-75.63-15.52-50.74,2.68-99.46,20.26-150.21,22.85-45.49,2.32-91.56.31-137.11.31s-92.69,5.1-136.84-1.1c-49.81-6.99-90.6-42.95-132.22-68.15-53.49-32.4-100.26-37.03-157.87-11.44-62.57,27.8-119.35,74.65-189.58,80.66,0-1.52,0-2.28,0-3.8,69.84-6.73,126.75-51.96,189.37-79.32,25.26-11.04,53.38-21.37,81.47-18.42,27.47,2.89,53.01,15.78,76.43,29.62,41.82,24.7,82.86,59.65,132.4,66.91,44.07,6.46,92.28,1.27,136.81,1.27s91.6,1.91,137.11-.3c50.55-2.45,99.27-19.16,149.82-21.69,26.01-1.3,52.92,1.51,75.89,14.73,20.48,11.79,36.55,24.61,61.15,27.31,28.05,3.08,56.63-4.74,83.81-10.62,35.76-7.75,70.59-12.42,107.3-10.17-.03,1.49-.05,2.24-.08,3.74Z"/>
            <path class="cls-3" d="M1103.68,1285.27c-36.75-2.23-71.59,2.49-107.37,10.3-27.14,5.93-55.73,13.8-83.75,10.66-24.62-2.75-40.6-15.72-61.06-27.57-22.95-13.29-49.87-16.1-75.88-14.77-50.57,2.58-99.29,19.41-149.87,21.86-45.51,2.2-91.54.29-137.1.29s-92.76,5.21-136.81-1.27c-49.58-7.28-90.57-42.41-132.36-67.19-23.41-13.88-48.94-26.8-76.43-29.63-28.13-2.89-56.21,7.43-81.48,18.52-62.59,27.46-119.5,72.95-189.4,79.52,0-1.54,0-2.3,0-3.84,70.27-5.77,127.06-52.86,189.59-80.72,57.52-25.63,104.46-21.11,157.88,11.32,41.6,25.26,82.34,61.38,132.19,68.34,44.16,6.17,92.25,1.08,136.84,1.08s91.62,2.01,137.11-.31c50.78-2.59,99.51-20.31,150.27-23.05,26.05-1.4,52.97,1.61,75.61,15.57,20.2,12.46,35.64,26.12,60.44,29.06,27.93,3.31,56.51-5.04,83.47-11.24,36-8.28,70.98-13.21,108.06-10.86.03,1.56.05,2.34.08,3.9Z"/>
            <path class="cls-3" d="M1103.63,1291.28c-36.24-2.03-70.85,2.38-106.28,9.49-27.41,5.5-56.01,12.62-84.17,9.74-24.35-2.49-41.16-14.46-62-25.33-23.43-12.21-50.33-14.71-76.32-13.47-50.27,2.39-98.97,17.82-149.26,20.04-45.54,2.01-91.51.26-137.09.26s-92.74,5.18-136.79-1.42c-49.14-7.36-90.6-40.38-132.84-63.97-23.65-13.2-49.31-25.52-76.61-28.42-27.84-2.96-56.23,7.46-81.41,18.02-62.57,26.24-119.74,68.75-188.83,75.73,0-1.58,0-2.36,0-3.94,69.66-6.75,126.66-51.3,189.24-78.44,25.22-10.94,53.45-21.41,81.48-18.49,27.42,2.86,53.01,15.62,76.48,29.29,41.94,24.43,83.06,58.93,132.49,66.33,44.02,6.59,92.29,1.35,136.8,1.35s91.58,1.85,137.1-.28c50.48-2.36,99.2-18.71,149.67-21.25,26-1.31,52.92,1.38,76.04,14.29,20.6,11.5,36.85,24.17,61.37,26.85,28.06,3.07,56.65-4.54,83.88-10.32,35.66-7.57,70.41-12.2,106.98-10.06.03,1.6.05,2.4.08,3.99Z"/>
            <path class="cls-3" d="M1103.59,1297.28c-35.75-1.83-70.12,2.26-105.19,8.66-27.71,5.06-56.26,11.35-84.6,8.81-24.09-2.16-41.78-13.2-62.95-23.07-23.88-11.13-50.77-13.32-76.75-12.19-49.97,2.18-98.65,16.23-148.64,18.22-45.56,1.82-91.48.23-137.08.23s-92.59,4.91-136.79-1.42c-48.7-6.98-90.74-37.31-133.56-59.21-24-12.28-49.79-23.62-76.92-26.36-27.61-2.79-55.96,7.02-81.24,16.88-62.44,24.37-119.91,63.39-187.98,70.06,0-1.61,0-2.42,0-4.03,68.79-6.91,126.05-48.34,188.58-74.05,25.19-10.36,53.61-20.67,81.37-17.77,27.24,2.85,52.96,14.89,76.7,27.81,42.43,23.09,84.06,55.31,133.05,62.62,44.07,6.58,92.23,1.45,136.79,1.45s91.54,1.69,137.09-.25c50.19-2.13,98.89-17.12,149.06-19.45,25.99-1.21,52.89,1.17,76.48,13.01,20.97,10.53,38.04,22.21,62.31,24.63,28.2,2.82,56.81-4.06,84.3-9.41,35.31-6.88,69.83-11.2,105.91-9.25.03,1.63.05,2.45.09,4.08Z"/>
            <path class="cls-3" d="M1103.56,1303.29c-63.71-2.94-126.01,20.82-189.13,15.73-23.86-1.92-42.4-11.94-63.9-20.8-24.32-10.02-51.17-11.95-77.19-10.91-49.69,1.98-98.32,14.62-148.02,16.4-45.59,1.63-91.46.2-137.07.2s-92.35,4.45-136.81-1.29c-48.27-6.23-90.98-33.43-134.46-53.26-24.42-11.14-50.35-21.23-77.33-23.64-27.43-2.45-55.48,6.21-80.99,15.22-62.22,21.98-120.01,57.1-186.91,62.91,0-1.65,0-2.48,0-4.13,67.73-6.41,125.29-44.27,187.67-67.97,25.34-9.63,53.62-19.14,81.18-16.47,27.08,2.63,52.93,13.62,77.04,25.55,43.02,21.3,85.25,50.71,133.81,57.52,44.26,6.21,92.1,1.41,136.79,1.41s91.51,1.53,137.08-.22c49.9-1.91,98.56-15.52,148.45-17.66,25.99-1.11,52.87.98,76.9,11.75,21.28,9.54,39.23,20.3,63.24,22.4,28.37,2.48,56.93-3.59,84.72-8.51,34.96-6.19,69.24-10.18,104.84-8.44.04,1.67.05,2.5.09,4.17Z"/>
            <path class="cls-3" d="M1103.53,1309.3c-63.39-2.61-125.52,18.35-188.49,13.99-23.67-1.64-43.04-10.67-64.86-18.53-24.75-8.91-51.54-10.59-77.61-9.65-49.41,1.77-97.98,13.02-147.4,14.57-45.61,1.44-91.44.18-137.07.18s-92.07,3.84-136.85-1.06c-47.89-5.24-91.32-29-135.48-46.43-54.66-21.57-102.1-24.74-158.5-7.24-61.92,19.21-120.04,50.1-185.67,54.7,0-1.69,0-2.53,0-4.22,66.53-5.45,124.42-39.35,186.55-60.57,25.6-8.74,53.52-17,80.91-14.71,26.94,2.26,52.92,11.95,77.47,22.71,43.68,19.15,86.59,45.37,134.74,51.36,44.55,5.54,91.94,1.24,136.82,1.24s91.48,1.37,137.07-.19c49.62-1.7,98.23-13.93,147.84-15.86,26.03-1.01,52.87.82,77.33,10.51,21.59,8.55,40.38,18.35,64.18,20.16,63.1,4.8,125.3-18.04,188.92-15.22.04,1.7.06,2.56.09,4.26Z"/>
            <path class="cls-3" d="M1103.5,1315.32c-63.05-2.28-125.09,16.04-187.85,12.24-23.53-1.42-43.7-9.4-65.81-16.24-25.15-7.78-51.89-9.23-78.04-8.4-49.14,1.56-97.63,11.41-146.79,12.75-45.62,1.25-91.42.15-137.06.15s-91.8,3.12-136.89-.77c-47.57-4.1-91.76-24.25-136.59-39.05-54.22-17.9-103.26-20.6-158.68-6.02-61.55,16.19-119.99,42.63-184.34,45.83,0-1.72,0-2.58,0-4.31,65.27-4.19,123.49-33.85,185.3-52.25,56.13-16.71,103.99-13.71,158.56,6.84,44.35,16.7,87.99,39.48,135.78,44.44,44.86,4.65,91.76.99,136.86.99s91.45,1.21,137.06-.17c49.35-1.49,97.9-12.34,147.23-14.07,26.09-.91,52.87.69,77.74,9.27,21.9,7.56,41.49,16.32,65.12,17.91,62.9,4.23,125.01-16,188.29-13.5.04,1.74.06,2.61.1,4.35Z"/>
            <path class="cls-3" d="M1103.48,1321.34c-62.73-1.96-124.69,13.74-187.23,10.49-23.43-1.21-44.36-8.12-66.76-13.95-25.52-6.64-52.21-7.89-78.46-7.17-48.88,1.35-97.28,9.79-146.17,10.93-45.64,1.06-91.4.13-137.05.13s-91.59,2.35-136.94-.44c-47.34-2.92-92.26-19.4-137.73-31.47-53.67-14.24-104.42-16.44-158.86-4.81-61.14,13.07-119.88,34.96-182.97,36.72,0-1.76,0-2.63,0-4.39,64.01-2.79,122.53-28.03,183.97-43.41,55.15-13.81,104.65-11.27,158.74,5.64,45.01,14.08,89.39,33.27,136.89,37.08,45.16,3.62,91.6.69,136.9.69s91.43,1.05,137.05-.14c49.09-1.28,97.55-10.75,146.62-12.27,26.17-.81,52.91.57,78.16,8.04,22.19,6.56,42.56,14.28,66.06,15.66,62.69,3.68,124.71-13.96,187.66-11.78.04,1.77.06,2.66.1,4.44Z"/>
            <path class="cls-3" d="M1103.47,1327.36c-62.43-1.63-124.3,11.43-186.61,8.75-23.39-1.01-45.03-6.81-67.71-11.64-25.86-5.51-52.52-6.55-78.87-5.94-48.63,1.13-96.91,8.17-145.55,9.11-45.65.88-91.38.1-137.04.1s-91.46,1.59-136.99-.13c-47.2-1.78-92.82-14.67-138.85-24-53.18-10.77-105.42-12.45-159.04-3.64-60.7,9.98-119.68,27.34-181.62,27.78,0-1.79,0-2.69,0-4.48,62.8-1.39,121.6-22.14,182.63-34.44,54.21-10.92,105.37-8.88,158.91,4.46,45.62,11.37,90.72,26.96,138.01,29.6,45.4,2.54,91.48.37,136.95.37s91.4.89,137.05-.12c48.83-1.08,97.2-9.17,146.01-10.47,26.28-.7,52.95.49,78.57,6.83,22.48,5.57,43.58,12.22,67,13.39,62.47,3.13,124.41-11.92,187.05-10.06.04,1.81.06,2.71.11,4.52Z"/>
            <path class="cls-3" d="M1103.47,1333.38c-62.15-1.31-123.92,9.14-186,7-49.92-1.72-97.54-15.01-147.95-14.06-48.38.91-96.54,6.54-144.93,7.29-45.66.7-91.37.08-137.03.08s-91.39.9-137.03.14c-47.16-.78-93.39-10.26-139.91-16.98-52.87-7.64-106.1-8.79-159.2-2.56-60.26,7.06-119.41,20.05-180.37,19.42,0-1.82,0-2.74,0-4.56,61.7-.14,120.73-16.45,181.32-25.73,53.46-8.19,106-6.66,159.08,3.34,46.16,8.69,91.93,20.77,139.11,22.32,45.56,1.49,91.41.06,137,.06s91.39.74,137.04-.1c48.58-.89,96.84-7.59,145.41-8.68,50.54-1.13,97.09,14.69,146.91,16.75,62.25,2.58,124.09-9.88,186.45-8.34.04,1.84.07,2.77.11,4.61Z"/>
            <path class="cls-3" d="M1103.47,1339.41c-61.88-.98-123.55,6.85-185.4,5.25-50.11-1.29-98.93-11.26-149.31-10.54-93.86,1.34-187.4,5.52-281.34,5.52-45.68,0-91.38.34-137.06.33-47.2,0-93.94-6.37-140.85-10.74-52.83-4.93-106.42-5.58-159.34-1.62-59.85,4.47-119.09,13.39-179.26,12.05,0-1.86,0-2.79,0-4.64,60.76.84,119.94-11.21,180.11-17.68,53.03-5.7,106.39-4.68,159.24,2.32,46.61,6.18,92.97,14.95,140.13,15.54,45.65.58,91.38-.19,137.03-.19s91.37.58,137.03-.07c48.33-.69,96.47-6.01,144.8-6.88,50.4-.91,98.3,11.64,148.26,13.28,62.02,2.03,123.77-7.83,185.85-6.61.05,1.88.07,2.82.12,4.7Z"/>
            <path class="cls-3" d="M1103.47,1345.43c-61.64-.65-123.18,4.56-184.81,3.5-50.37-.87-100.18-7.51-150.67-7.02-93.61.9-187.07,3.68-280.72,3.68s-185.63-.49-278.69-5.21c-112.92-5.73-225.09,8.15-337.82,5.22v-4.73c60.03,1.44,119.28-6.68,179.05-10.68,52.93-3.54,106.52-2.98,159.37,1.43,93.11,7.78,184.67,9.24,278.08,9.24s187.4-3.88,281.21-5.14c50.4-.68,99.44,8.6,149.6,9.81,61.8,1.5,123.44-5.79,185.27-4.89.05,1.92.07,2.87.12,4.79Z"/>
            <path class="cls-3" d="M1103.48,1351.47c-205.46-1.1-410.84.08-616.35.08-93.12,0-186.12.15-279.23-1.62-112.44-2.13-224.87,3.8-337.28,1.62,0-1.92,0-2.89,0-4.81,112.63,2.9,224.91-9.33,337.69-4.4,93.06,4.07,185.67,4.39,278.81,4.39s187.04-2.5,280.6-3.33c50.53-.45,100.5,5.56,150.94,6.35,61.58.96,123.1-3.75,184.69-3.17.05,1.95.08,2.93.13,4.88Z"/>
          </g>
        </g>
      </g>
    </g>
  </g>
</svg>