<?xml version="1.0" encoding="UTF-8"?>
<svg id="Layer_2" data-name="Layer 2" xmlns="http://www.w3.org/2000/svg" xmlns:xlink="http://www.w3.org/1999/xlink" viewBox="0 0 2925.38 1377.28">
  <defs>
    <style>
      .cls-1, .cls-2 {
        fill: none;
      }

      .cls-2 {
        stroke: #cf9;
        stroke-miterlimit: 10;
        stroke-width: 2px;
      }

      .cls-3 {
        clip-path: url(#clippath);
      }
    </style>
    <clipPath id="clippath">
      <rect id="Clip_Mask" data-name="Clip Mask" class="cls-1" x="914.84" width="1084.5" height="1354"/>
    </clipPath>
  </defs>
  <g id="Final">
    <g id="Shared_Docs" data-name="Shared Docs">
      <g class="cls-3">
        <g>
          <path class="cls-2" d="M896.93,1089.06c374.63.71,749.27-1.14,1123.9-.1,79.98,19.47,157.87,50.73,236.65,76.07,69.53,22.37,139.07,44.73,208.6,67.1,148.41,47.74,296.82,95.47,445.23,143.21H6.37c148.41-47.74,296.82-95.47,445.23-143.21,67.75-21.79,135.5-43.58,203.25-65.38,80.29-25.83,163.51-47.17,242.07-77.69Z"/>
          <path class="cls-2" d="M175.79,1320.84h2566.11"/>
          <path class="cls-2" d="M309.8,1277.74h1122.79c65.93,0,134.59-5.43,200.02,3.35,70.65,9.48,138.33,36.26,209.8,40.45,72.63,4.26,143.35-23.74,213.87-36.62,84.22-15.38,174.23-7.18,259.54-7.18h292.05"/>
          <path class="cls-2" d="M418.47,1242.78h2080.73"/>
          <path class="cls-2" d="M508.36,1213.87c253.28,0,506.41-.06,759.63,3.88,111.04,1.72,221.95-4.11,332.97-3.88,117.33.25,234.65,0,351.98,0h456.37"/>
          <path class="cls-2" d="M583.96,1189.56h371.76c56.67,0,113.95-2.97,170.09,6.09,50.57,8.16,99.97,22.62,150.92,28.6,106.44,12.49,207.99-32.66,313.74-34.63,108.15-2.01,216.52-.06,324.68-.06h418.58"/>
          <path class="cls-2" d="M648.41,1168.82h1620.86"/>
          <path class="cls-2" d="M704.02,1150.94h1509.64"/>
          <path class="cls-2" d="M752.49,1135.35c70.07,0,140.11,1.56,210.18,1.82,61.97.23,123.4-6,185.26-6.75,51.43-.62,102.7,3.59,154.09,4.66,52.24,1.09,104.57.27,156.82.27,107.92,0,215.38-1.73,323.24-5.04,127.73-3.92,255.38,5.04,383.11,5.04"/>
          <path class="cls-2" d="M795.11,1121.64c65.03.44,129.93,7.76,194.97,6.53,69.18-1.3,135.19-26.63,204.55-24.57,39.89,1.18,77.57,15.4,117.29,17.66,48.71,2.77,98.13.38,146.92.38s98.93,2.37,147.99-.67c56.5-3.5,111.65-19.1,166.85-30.54,56.8-11.77,110.54-17.78,167.87-5.69,60.78,12.82,118.27,34.64,181.01,36.9"/>
          <path class="cls-2" d="M833.4,1110.31c61.94,2.82,124.47,10.17,186.48,5.12,64.01-5.21,124.71-30.72,189.88-25.6,36.69,2.88,70.72,17.93,107.7,19.45,46.97,1.93,94.36.22,141.38.22s91.16,1.58,136.55-.11c56.68-2.11,111.91-18.63,166.74-31.65,52.51-12.47,105.41-23.52,159.33-14.02,56.02,9.87,108.51,33.19,164.66,42.76"/>
          <path class="cls-2" d="M867.39,1099.92c56.93,1.71,114.07,4.26,170.98.6,55.52-3.57,108.9-14.14,164.89-10.79,39.68,2.38,78.96,8.33,118.77,8.9,45.58.66,91.23.02,136.82.02,91.49,0,181.53-.14,272.62-10.02,52.31-5.68,104.6-10.64,157.29-8.99,54.84,1.72,109.15,10.68,163.69,15.92"/>
          <path class="cls-2" d="M1927.27,1088.71c21.09-.38,47.82-12.88,67.85-5.05,17.72,6.93,25.62,25.58,38.33,38.75,22.08,22.88,61.23,31.16,90.53,42.47,58.07,22.42,116.15,44.83,174.22,67.25,123.68,47.74,247.35,95.47,371.03,143.21"/>
          <path class="cls-2" d="M1833.59,1088.73c13.37-.51,25.28-5.13,35.72-13.84,10.45-8.33,22.23-13.4,35.32-15.22,17.61,5.03,16.85,33.98,20.42,48.35,6.1,24.56,12.7,31.2,34.37,41.65,10.36,5,20.72,10,31.08,15,46.61,22.49,93.21,44.97,139.82,67.46,98.94,47.74,197.88,95.47,296.82,143.21"/>
          <path class="cls-2" d="M1739.89,1088.82c8.91,1.4,16.98-.39,24.22-5.37,8.82-4.39,17.73-8.57,26.73-12.55,21.02.09,18.64,31.16,21.18,44.88,3.36,18.14,7.73,24.55,23.46,34.66,8,5.15,16,10.29,24,15.44,34.33,22.08,68.65,44.16,102.98,66.24,8.88,5.71,18.65,10.82,26.18,18.31,8.33,8.28,13.35,19.49,22.04,27.49,15.7,14.46,32.26,7.99,50.03,17.23,43.03,22.37,83.56,53.93,124.36,80.18"/>
          <path class="cls-2" d="M1646.13,1089.03c10.59,6.67,24.83,6.52,34.22,14.36,11.03,9.22,11.54,27.6,20.8,38.56,14.23,16.85,32.48,31.35,48.37,46.67,15.02,14.5,30.18,28.86,45.07,43.49,8.19,8.04,13.3,14.22,18.6,24.44,10.07,19.41,6.47,54.42,26.48,66.77,4.72-6.24,13.37-27.65,23.57-24.97,5.5,1.44,20.71,19.98,24.8,23.93,18.32,17.68,36.64,35.36,54.97,53.04"/>
          <path class="cls-2" d="M1552.51,1088.92c24.73,47.74,49.45,95.48,74.21,143.21,11.67,22.5,21.38,44.63,34.32,66.23,14.76,24.63,26.68,51.48,39.89,76.97"/>
          <path class="cls-2" d="M1458.84,1088.92c0,27.14.99,54.57-.45,81.67-.79,14.83-4.8,30.92-2.82,44.64.45,3.13,3.24,10.84,3.27,16.9.17,47.73,0,95.47,0,143.21"/>
          <path class="cls-2" d="M1365.17,1088.92c-9.77,18.85-19.53,37.7-29.3,56.55-14.6,28.17-22.65,58.08-34.37,87.52-1.44-4.84-2.11-9.8-1.99-14.87-16.56,18.34-26.39,48.46-37.75,70.37-15,28.95-30,57.9-45,86.84"/>
          <path class="cls-2" d="M1271.81,1088.77c-4.64,5.39-2.74,9.43-6.07,14.38-7,10.42-21.75,18.72-32.28,26.45-16.66,12.23-32.83,25.54-46.04,41.58-12.24,14.85-18.97,30.13-36.12,39.3-11.15,5.96-18.9,12.66-28.21,21.65-49.43,47.77-98.94,95.47-148.41,143.21"/>
          <path class="cls-2" d="M1179.06,1088.32c2.8-.05,6.01.73,8.84.89-32.2,23.25-70.35,38.49-103.82,60.02-15.46,9.95-30.92,19.89-46.39,29.84-31.75,20.43-63.51,40.85-95.26,61.28-69.94,44.99-139.88,89.98-209.82,134.98"/>
          <path class="cls-2" d="M1084.81,1088.61c-30.46,14.44-54.31,35.54-86.8,45.82-26.57,8.4-50.8,20.58-75.89,32.68-44.92,21.67-89.84,43.34-134.76,65.02-98.94,47.74-197.88,95.47-296.82,143.21"/>
          <path class="cls-2" d="M990.65,1089.15c-18.53,10.59-37.72,23.63-57.79,31.12-16.07,5.99-34.04,7.79-50.58,12.38-32.05,8.9-62.81,22.28-93.8,34.25-56.33,21.74-112.66,43.48-168.99,65.23-123.68,47.74-247.35,95.47-371.03,143.21"/>
        </g>
        <g>
          <path class="cls-2" d="M904.62,1090c374.63.71,749.27-1.14,1123.9-.1,79.98,19.47,157.87,50.73,236.65,76.07,69.53,22.37,139.07,44.73,208.6,67.1,148.41,47.74,296.82,95.47,445.23,143.21H14.07c148.41-47.74,296.82-95.47,445.23-143.21,67.75-21.79,135.5-43.58,203.25-65.38,80.29-25.83,163.51-47.17,242.07-77.69Z"/>
          <path class="cls-2" d="M183.48,1321.79h2566.11"/>
          <path class="cls-2" d="M317.5,1278.68c164.37,0,328.76-.75,493.12.02,73.96.35,147.9,5.29,221.86,2.19,69.32-2.91,137.6-5.71,207.05-3.92,66.93,1.72,133.81,1.71,200.76,1.71s134.59-5.43,200.02,3.35c70.65,9.48,138.33,36.26,209.8,40.45,72.63,4.26,143.35-23.74,213.87-36.62,84.22-15.38,174.23-7.18,259.54-7.18h292.05"/>
          <path class="cls-2" d="M426.17,1243.73h2080.73"/>
          <path class="cls-2" d="M516.06,1214.81c253.28,0,506.41-.06,759.63,3.88,111.04,1.72,221.95-4.11,332.97-3.88,117.33.25,234.65,0,351.98,0h456.37"/>
          <path class="cls-2" d="M591.65,1190.5h371.76c56.67,0,113.95-2.97,170.09,6.09,50.57,8.16,99.97,22.62,150.92,28.6,106.44,12.49,207.99-32.66,313.74-34.63,108.15-2.01,216.52-.06,324.68-.06h418.58"/>
          <path class="cls-2" d="M656.11,1169.77h1620.86"/>
          <path class="cls-2" d="M711.72,1151.88h1509.64"/>
          <path class="cls-2" d="M760.18,1136.29c70.07,0,140.11,1.56,210.18,1.82,61.97.23,123.4-6,185.26-6.75,51.43-.62,102.7,3.59,154.09,4.66,52.24,1.09,104.57.27,156.82.27,107.92,0,215.38-1.73,323.24-5.04,127.73-3.92,255.38,5.04,383.12,5.04"/>
          <path class="cls-2" d="M802.8,1122.58c65.03.44,129.93,7.76,194.97,6.53,69.18-1.3,135.19-26.63,204.55-24.57,39.89,1.18,77.57,15.4,117.29,17.66,48.71,2.77,98.13.38,146.92.38s98.93,2.37,147.99-.67c56.5-3.5,111.65-19.1,166.85-30.54,56.8-11.77,110.54-17.78,167.87-5.69,60.78,12.82,118.27,34.64,181.01,36.9"/>
          <path class="cls-2" d="M841.1,1111.26c61.94,2.82,124.47,10.17,186.48,5.12,64.01-5.21,124.71-30.72,189.88-25.6,36.69,2.88,70.72,17.93,107.7,19.45,46.97,1.93,94.36.22,141.38.22s91.16,1.58,136.55-.11c56.68-2.11,111.91-18.63,166.74-31.65,52.51-12.47,105.41-23.52,159.33-14.02,56.02,9.87,108.51,33.19,164.66,42.76"/>
          <path class="cls-2" d="M875.08,1100.87c56.93,1.71,114.07,4.26,170.98.6,55.52-3.57,108.9-14.14,164.89-10.79,39.68,2.38,78.96,8.33,118.77,8.9,45.58.66,91.23.02,136.82.02,91.49,0,181.53-.14,272.62-10.02,52.31-5.68,104.6-10.64,157.29-8.99,54.84,1.72,109.15,10.68,163.69,15.92"/>
          <path class="cls-2" d="M1934.96,1089.66c21.09-.38,47.82-12.88,67.85-5.05,17.72,6.93,25.62,25.58,38.33,38.75,22.08,22.88,61.23,31.16,90.53,42.47,58.07,22.42,116.15,44.83,174.22,67.25,123.68,47.74,247.35,95.47,371.03,143.21"/>
          <path class="cls-2" d="M1841.29,1089.67c13.37-.51,25.28-5.13,35.72-13.84,10.45-8.33,22.23-13.4,35.33-15.22,17.61,5.03,16.85,33.98,20.42,48.35,6.1,24.56,12.7,31.2,34.37,41.65,10.36,5,20.72,10,31.08,15,46.61,22.49,93.21,44.97,139.82,67.46,98.94,47.74,197.88,95.47,296.82,143.21"/>
          <path class="cls-2" d="M1747.58,1089.76c8.91,1.4,16.98-.39,24.22-5.37,8.82-4.39,17.73-8.57,26.73-12.55,21.02.09,18.64,31.16,21.18,44.88,3.36,18.14,7.73,24.55,23.46,34.66,8,5.15,16,10.29,24,15.44,34.33,22.08,68.65,44.16,102.98,66.24,8.88,5.71,18.65,10.82,26.18,18.31,8.33,8.28,13.35,19.49,22.04,27.49,15.7,14.46,32.26,7.99,50.03,17.23,43.03,22.37,83.56,53.93,124.36,80.18"/>
          <path class="cls-2" d="M1653.82,1089.98c10.59,6.67,24.83,6.52,34.22,14.36,11.03,9.22,11.54,27.6,20.8,38.56,14.23,16.85,32.48,31.35,48.37,46.67,15.02,14.5,30.18,28.86,45.07,43.49,8.19,8.04,13.3,14.22,18.6,24.44,10.07,19.41,6.47,54.42,26.48,66.77,4.72-6.24,13.37-27.65,23.57-24.97,5.5,1.44,20.71,19.98,24.8,23.93,18.32,17.68,36.64,35.36,54.97,53.04"/>
          <path class="cls-2" d="M1560.2,1089.86c24.73,47.74,49.45,95.48,74.21,143.21,11.67,22.5,21.38,44.63,34.32,66.23,14.76,24.63,26.68,51.48,39.89,76.97"/>
          <path class="cls-2" d="M1466.54,1089.86c0,27.14.99,54.57-.45,81.67-.79,14.83-4.8,30.92-2.82,44.64.45,3.13,3.24,10.84,3.27,16.9.17,47.73,0,95.47,0,143.21"/>
          <path class="cls-2" d="M1372.87,1089.86c-9.77,18.85-19.53,37.7-29.3,56.55-14.6,28.17-22.65,58.08-34.37,87.52-1.44-4.84-2.11-9.8-1.99-14.87-16.31,18.06-26.96,48.17-37.77,69.95-14.55,29.31-29.92,58.22-44.98,87.27"/>
          <path class="cls-2" d="M1279.5,1089.72c-4.64,5.39-2.74,9.43-6.07,14.38-7,10.42-21.75,18.72-32.28,26.45-16.66,12.23-32.83,25.54-46.04,41.58-12.24,14.85-18.97,30.13-36.12,39.3-11.15,5.96-18.89,12.67-28.21,21.65-49.5,47.65-98.92,95.45-148.41,143.21"/>
          <path class="cls-2" d="M1186.76,1089.27c2.8-.05,6.01.73,8.84.89-32.2,23.25-70.35,38.49-103.82,60.02-15.46,9.95-30.92,19.89-46.39,29.84-31.75,20.42-63.72,40.53-95.26,61.28-69.45,45.7-139.86,89.97-209.82,134.98"/>
          <path class="cls-2" d="M1092.5,1089.55c-30.46,14.44-54.31,35.54-86.8,45.82-26.57,8.4-50.8,20.58-75.89,32.68-44.92,21.67-89.84,43.34-134.76,65.02-98.94,47.74-197.88,95.47-296.82,143.21"/>
          <path class="cls-2" d="M998.34,1090.09c-18.53,10.59-37.72,23.63-57.79,31.12-16.07,6-34.04,7.79-50.58,12.38-32.05,8.9-62.81,22.28-93.8,34.25-56.33,21.74-112.66,43.48-168.99,65.23-123.68,47.74-247.35,95.47-371.03,143.21"/>
        </g>
      </g>
    </g>
  </g>
</svg>