<?xml version="1.0" encoding="UTF-8"?>
<svg id="Layer_2" data-name="Layer 2" xmlns="http://www.w3.org/2000/svg" viewBox="0 0 1085.43 484.9">
  <defs>
    <style>
      .cls-1 {
        fill: #cf9;
      }
    </style>
  </defs>
  <g id="Final">
    <g id="FOSS">
      <g>
        <path class="cls-1" d="M1085.43,219.55v.96c-43.82-6.29-82.09-38.7-115.94-65.25-40.62-31.87-78.92-66.82-120.43-97.55-10.25-7.59-22.78-17.59-34.96-22.26-16.84-6.45-19.28,2.35-33.04,12.26-22,15.84-48.41,20.9-74.97,16.79-57.61-8.92-103.13-53.28-160.07-62.26-43.75-6.9-70.47,25.2-95.1,56.25-25.84,32.58-50.01,59.71-94.58,57.12-39.71-2.3-77.06-16.81-115.06-27.18-19.46-5.31-39.38-9.75-59.58-10.8-30.39-1.59-50.66,11.94-69.62,34.84C57.61,178.27,31.28,272.43,15.37,354.67c.03-.26.04-.39.07-.65,15.7-82.37,42.07-176.68,96.66-242.5,18.94-22.84,39.24-36.43,69.58-34.83,20.2,1.06,40.13,5.51,59.59,10.8,38,10.34,75.37,24.81,115.07,27.13,44.53,2.6,68.75-24.58,94.59-57.1,24.63-31,51.41-63.15,95.13-56.24,56.92,9,102.33,53.53,159.93,62.45,26.6,4.12,53.02-1.03,75.02-16.92,13.73-9.92,16.16-18.81,32.98-12.36,12.16,4.66,24.69,14.69,34.91,22.27,41.52,30.77,79.85,65.74,120.5,97.62,33.85,26.54,72.18,58.99,116.02,65.21Z"/>
        <path class="cls-1" d="M1085.43,227.41v.64c-44.45-7.05-82.99-39.95-117.37-67.08-40.49-31.95-78.74-67.1-120.73-97.1-19.64-14.03-37.36-30.33-58.12-13.73-26.11,20.88-56.19,26.42-88.62,20.03-54.25-10.69-99.31-48.83-153.36-58.8-45.31-8.36-72.1,23.96-97.16,56.44-26.24,34-50.27,61.05-96.38,57.53-38.64-2.94-74.38-18.17-111.14-29.06-20.84-6.17-43-11.94-64.88-11.86-26.39.1-45.11,13.26-61.75,32.91C60.07,183.29,33.75,279.42,14.68,361.86c.03-.34.05-.51.08-.85,18.65-82.41,45.01-178.59,100.88-244.39,16.63-19.58,35.3-32.63,61.61-32.76,21.93-.11,44.14,5.59,65.06,11.7,36.87,10.76,72.74,25.83,111.45,28.71,46.1,3.44,70.16-23.48,96.47-57.44,25.09-32.39,51.96-64.71,97.21-56.32,53.99,10,98.88,48.3,153.07,59,32.47,6.41,62.55.73,88.63-20.22,20.73-16.66,38.34-.33,57.97,13.72,42.01,30.08,80.3,65.27,120.83,97.27,34.39,27.15,73,60.12,117.49,67.13Z"/>
        <path class="cls-1" d="M1085.43,231.35v.26c-45.08-7.46-83.88-40.73-118.68-68.19-35.7-28.16-69.83-58.38-106.42-85.41-12.98-9.59-32.09-26.69-49.01-28.85-13.29-1.7-13.85,2.38-25.82,10.92-22.77,16.25-50.52,20.14-77.77,15.98-57.18-8.72-104.45-46.97-160.61-57.71-47.56-9.09-73.4,22.62-99.17,57.4-24.57,33.16-48.08,62.82-93.16,58.8-38.54-3.44-73.4-20.79-109.4-33.46-18.85-6.64-38.86-12.72-58.98-13.72-30.8-1.53-50.53,14.42-69.33,37.98C62.71,193.52,37.26,287.19,14.04,369.74c.03-.43.05-.64.08-1.06,22.58-82.38,48.1-175.99,102.4-243.81,18.82-23.5,38.43-39.09,69.12-37.65,20.22.95,40.32,6.88,59.31,13.4,36.24,12.44,71.34,29.5,110.03,32.79,45.09,3.84,68.59-25.44,93.31-58.62,25.82-34.65,51.77-66.3,99.24-57.17,56.03,10.78,103.05,49.22,160.12,57.93,27.27,4.16,54.98.14,77.7-16.19,11.99-8.61,12.44-12.7,25.74-10.98,16.88,2.18,36,19.38,48.94,28.96,36.61,27.13,70.8,57.43,106.55,85.66,34.84,27.51,73.71,60.88,118.85,68.34Z"/>
        <path class="cls-1" d="M1085.43,232.07v-.12c-45.48-7.53-84.75-40.98-119.9-68.68-35.49-27.97-69.63-57.92-106.6-83.95-11.86-8.35-24.99-18.25-39-22.96-15.34-5.15-19.19-.97-31.89,7.02-27.33,17.19-55.37,20.5-86.81,14.54-57.2-10.84-107.78-49.69-165.55-56.16-44.25-4.95-68.02,28.39-90.85,60.84-22.53,32.03-46.1,65.21-89.64,60.79-38.03-3.85-71.55-25-105.94-39.79-16.73-7.19-34.29-13.96-52.49-16.12-34.75-4.12-57.69,17.08-77.38,43.82-52.85,71.74-77.59,163.69-105.92,246.93.03-.52.05-.77.09-1.28,27.48-82.98,52.36-174.74,105.06-245.96,19.77-26.71,42.47-47.23,77.11-43.31,18.32,2.07,36.02,8.63,52.94,15.68,34.75,14.47,68.61,35.16,106.84,38.81,43.58,4.16,67.1-28.44,89.85-60.51,22.92-32.32,46.82-65.48,90.97-60.49,57.6,6.51,107.86,45.55,164.9,56.4,31.45,5.98,59.41,2.51,86.66-14.79,12.67-8.04,16.43-12.23,31.75-7.03,14,4.75,27.11,14.71,38.95,23.09,37.01,26.17,71.21,56.23,106.76,84.3,35.19,27.78,74.55,61.37,120.11,68.94Z"/>
        <path class="cls-1" d="M1085.43,230.28v-.49c-45.38-7.25-84.51-40.23-119.73-67.64-35.15-27.36-69.1-56.81-106.13-81.66-20.23-13.57-43.53-31.17-66.37-16.03-27.45,18.19-56.43,20.95-88.34,15.7-58.39-9.61-109.45-44.16-167.45-54.05-48.39-8.25-72.45,26.33-96.52,62.46-21.11,31.68-45.34,70.26-89.08,62.73-35.59-6.13-65.45-28.76-96.49-45.59-16.81-9.12-34.93-18.12-54.06-20.87-32.88-4.73-57.32,21.69-75.03,45.99C71.09,206.47,47.54,301.61,12.89,387.24c.03-.61.05-.91.09-1.52,33.61-85.33,57.39-180.09,112.34-255.07,17.82-24.31,41.91-49.82,74.71-45.35,19.28,2.63,37.57,11.33,54.64,20.27,31.46,16.47,61.74,38.57,97.55,44.41,43.84,7.14,67.94-30.53,89.36-62.35,24.19-35.94,48.41-70.29,96.65-61.99,57.75,9.94,108.45,44.71,166.61,54.3,31.92,5.27,60.78,2.31,88.13-16.01,22.74-15.24,46.06,2.65,66.16,16.23,37.08,25.04,71.08,54.62,106.31,82.11,35.27,27.52,74.5,60.68,119.98,68.01Z"/>
        <path class="cls-1" d="M1085.43,226.72v-.8c-41.71-6.26-77.15-34.37-110.01-59.09-38.18-28.73-74.69-60.52-115.11-86.16-23.52-14.92-43.23-27.17-67.97-11.93-25.4,15.64-54.8,17.29-83.69,13.01-62.55-9.27-118.22-45.87-180.63-53.88-46.78-6.01-69.69,30.86-91.61,66.11-19.39,31.18-44.84,75.48-88.3,65.01-34.41-8.29-62.24-34.9-90.96-53.95-14.73-9.77-33.3-21.97-51.31-24.13-31.44-3.77-56.23,25.59-72.79,48.65C75.61,209.49,53.79,308.75,12.38,396.71c.03-.7.05-1.05.09-1.75,40.22-87.67,62.4-186.38,119.66-265.56,16.66-23.04,41.11-51.4,72.45-47.89,18.17,2.04,36.91,13.84,51.94,23.45,29.18,18.66,57.45,44.66,92.1,52.6,43.59,9.99,68.89-33.18,88.63-64.55,22.07-35.07,45.15-71.6,91.78-65.54,62.1,8.07,117.33,44.92,179.6,54.16,28.89,4.29,58.16,2.45,83.44-13.33,24.65-15.39,44.33-2.82,67.74,12.15,40.48,25.89,77.06,57.85,115.34,86.75,32.91,24.85,68.44,53.14,110.27,59.51Z"/>
        <path class="cls-1" d="M1085.43,222.08v-1c-41.76-5.78-76.7-33.16-109.76-57.6-37.76-27.91-74.1-59.1-114.56-83.14-26.3-15.63-42.93-22.78-69.59-8.11-26.32,14.48-57.82,13.93-86.66,9.25-62.14-10.08-118.85-43.24-181.09-51.45-48.66-6.42-70.48,31.98-92.13,68.98-17.29,29.56-42.03,78.12-83.75,68.52-34.97-8.05-62.59-42.3-89.61-63.47-12.53-9.82-28.67-22.85-44.84-25.9-31.72-5.99-58.05,26.9-74.4,50.06C79.55,212.5,60.06,316.69,11.93,406.56c.03-.79.05-1.19.09-1.98,46.89-89.69,66.86-193.11,126.26-276.59,16.48-23.16,42.48-55,74.13-49.29,16.3,2.94,32.6,15.57,45.39,25.25,27.52,20.84,55.54,54.27,90.73,62.02,41.83,9.21,66.44-38.22,84.07-67.95,21.82-36.8,43.82-74.81,92.32-68.34,61.9,8.26,118.13,41.69,179.95,51.74,28.8,4.69,60.16,5.04,86.34-9.59,26.58-14.86,43.15-7.39,69.35,8.34,40.52,24.32,76.95,55.7,114.81,83.81,33.12,24.59,68.17,52.18,110.06,58.09Z"/>
        <path class="cls-1" d="M1085.43,217.09v-1.07c-41.57-5.24-76.4-32.03-109.49-56.02-35-25.38-68.86-53.4-106.22-75.32-14.24-8.35-30.48-18.71-47.45-20-13.07-.99-20.08,5.19-31.64,10.64-27.64,13.05-60.66,10.75-89.9,5.7-61.82-10.69-119.34-40.55-181.41-49.17-50.19-6.98-71.5,33.56-92.52,72.15-16.39,30.08-43.28,86.3-86.54,69.66-31.75-12.21-54.8-44.47-78.96-66.84-12.24-11.33-26.48-24.7-42.75-29.85-31.02-9.82-60,28.75-75.18,50.75C82.46,215.94,65.88,325.66,11.53,416.7c.03-.88.05-1.33.08-2.2,53.17-91.04,70.38-199.82,131.36-287.3,15.37-22.05,44.02-59.53,75.05-50.03,16.34,5,30.74,18.07,43.17,29.25,24.49,22.04,47.87,53.69,79.74,65.58,43.38,16.18,70.17-38.79,86.9-69.08,21.29-38.54,42.67-78.27,92.72-71.46,61.7,8.4,118.77,38.82,180.21,49.5,29.18,5.07,62.05,7.2,89.54-6.04,11.55-5.56,18.37-11.75,31.47-10.69,16.95,1.38,33.17,11.89,47.36,20.3,37.43,22.2,71.38,50.42,106.49,76,33.16,24.16,68.1,51.18,109.81,56.55Z"/>
        <path class="cls-1" d="M1085.43,212.45v-.96c-37.8-4.33-69.32-26.59-99.93-47.88-38.05-26.47-74.29-56.79-115.05-79.11-28.13-15.4-45.35-21.44-74.53-9.17-29.74,12.5-59.66,11.63-91.18,6.76-66.21-10.23-128.74-42.56-195.42-48.77-48.33-4.5-68.33,38.65-87.22,75.84-14.28,28.12-41.12,89.08-82.52,73.59-32.12-12.02-54.71-47.58-77.63-71.18-11.33-11.67-25.85-27.81-41.75-33.17-31.78-10.72-59.57,27.45-75.08,50.52-33.08,49.2-54.29,107.07-75.24,162.14-17.31,45.51-31.85,94.96-58.7,136,.03-.97.04-1.45.07-2.42,28.73-44.73,43.92-98.4,63.13-147.56,19.54-50.01,39.4-101.73,69.31-146.69,14.55-21.87,44.35-63.84,75.36-53.11,16.13,5.58,29.95,19.88,41.71,31.67,23.31,23.38,45.5,57.54,77.02,70.73,43.01,18,70.08-42.24,85.38-71.76,20.4-39.33,40.95-81.34,91.83-74.58,63.34,8.42,122.57,37.29,185.61,48.01,29.48,5.01,62.98,7.86,91.16-4.49,11.58-5.07,19.26-11.22,32.22-10.47,17.04.99,33.37,10.79,47.8,18.94,37.09,20.95,70.67,48.27,105.28,72.95,32.84,23.42,67.28,49.39,108.35,54.16Z"/>
        <path class="cls-1" d="M1085.43,208.9v-.65c-37.22-3.89-68.3-25.27-98.62-45.94-37.51-25.57-73.36-54.95-113.73-75.98-28.79-14.99-46.11-19.46-75.78-8.07-30.11,11.57-61.02,9.81-92.48,5.01-67.85-10.35-132.36-40.48-200.67-47.21-48.9-4.81-68.35,41.19-86.3,78.69-13.49,28.16-39.7,92.29-81.5,76.35-32.63-12.44-55.3-49.61-78.22-73.97-11.29-11.99-25.94-28.9-42.04-34.41-32.36-11.08-59.07,29.37-74.3,52.67-32.95,50.4-53,110.93-73.35,167.14-16.24,44.86-29.61,95.65-57.52,135.02.03-1.05.04-1.58.06-2.63,27.72-39.86,41.44-90.32,58.01-135.42,20.53-55.88,40.85-116.08,74-166.04,15.37-23.16,42.35-63.3,74.59-52.21,16.01,5.51,30.57,22.29,41.8,34.22,22.81,24.21,45.34,61.08,77.77,73.5,41.63,15.94,68.08-47.6,81.71-75.67,18.33-37.74,37.65-82.32,86.52-78.01,67.86,5.98,132.06,37.29,199.41,47.6,31.48,4.82,62.16,6.36,92.18-5.45,29.55-11.62,46.83-6.77,75.46,8.32,40.47,21.34,76.42,50.95,114.06,76.73,30.39,20.82,61.58,42.4,98.94,46.39Z"/>
        <path class="cls-1" d="M1085.43,207.12c0-.07,0-.09,0-.08-37.13-3.71-68.11-24.69-98.49-45.1-34.88-23.43-68.4-49.7-105.54-69.57-26.54-14.19-50.24-23.19-78.85-11.54-29.52,12.02-62.08,9.87-93.01,5.46-68.49-9.78-133.6-36.45-202.1-45.44-54.81-7.19-73.35,36.81-93.22,80.22-13.23,28.9-38.59,95.47-81.86,78.44-34.36-13.52-58.13-50.03-83.24-75.3-12.05-12.13-27.86-28.6-44.97-33.43-33.77-9.52-61.62,39.84-74.36,62.95-27.8,50.42-46.07,105.97-64.35,160.35-14.71,43.74-26.3,96.61-54.74,134.03.02-1.13.03-1.69.05-2.81,28.49-38.18,40.65-90.68,55.91-135,18.66-54.21,37.34-109.59,65.56-159.73,12.85-22.83,41.5-72.52,75.07-62.71,16.86,4.93,32.4,21.54,44.18,33.65,24.61,25.29,47.85,61.79,81.73,75.57,42.81,17.42,68.72-49.28,81.93-77.77,20.02-43.18,38.8-86.9,93.4-79.61,68.14,9.09,132.77,36.12,200.93,45.86,30.97,4.43,63.37,6.32,92.81-5.96,28.42-11.86,52.2-2.4,78.5,11.81,37.24,20.13,70.85,46.61,105.86,70.22,30.45,20.54,61.55,41.72,98.82,45.49Z"/>
        <path class="cls-1" d="M1085.43,207.86v.78c-37.1-3.76-67.99-24.47-98.45-44.73-34.62-23.02-68.07-48.91-105.29-67.73-28.75-14.54-50.55-19.61-80.45-8.89-30.23,10.83-64.69,6.74-95.73,2.04-69.36-10.5-136.36-36.53-206.16-43.66-52.16-5.33-70.1,41.87-87.87,82.68-14.22,32.67-36.49,94.74-83.06,80.56-37.13-11.31-64.45-49.27-92.74-73.6-13.18-11.33-32.04-28.39-50.27-30.65-32.49-4.02-54.45,37.66-66.51,61.07-26.34,51.13-42.66,107.36-59.17,162.22-7.87,26.16-15.51,52.39-24.24,78.28-6.05,17.92-11.44,38.49-24.95,52.45.01-1.19.02-1.79.04-2.98,27.93-34.97,37.67-88.93,50.65-130.56,17.02-54.57,33.88-110.34,60.27-161.28,12.5-24.12,37.54-71.47,71.91-63.09,18,4.39,34.78,20.08,47.93,32.2,27.03,24.92,52.85,61,88.9,73.37,44.81,15.38,68.41-49.69,81.92-80.16,19.5-43.99,37.44-88.6,92.77-81.65,69.37,8.71,135.68,34.38,204.96,44.25,30.79,4.39,63.7,7.15,93.38-4.12,29.11-11.05,52.67-3.16,79.81,10.97,36.9,19.22,70.17,45.01,104.71,67.99,30.2,20.09,60.87,40.59,97.65,44.25Z"/>
        <path class="cls-1" d="M1085.43,211.81v1.96c-75.85-8.26-135.4-77.79-201.69-110.43-29.23-14.39-51.36-18.54-81.8-8.83-30.42,9.7-64.84,4.99-95.76.35-70.11-10.52-138.34-35.1-208.94-41.86-52.65-5.04-69.92,42.41-87.38,83.82-15.25,36.18-34.86,92.92-84.19,82.68-41.02-8.52-73.19-43.62-106.57-66.37-15.98-10.88-37.34-25.55-57.53-26.47-32.55-1.48-49.33,33.73-60.91,59.15-23.25,51.01-36.67,106.54-50.33,160.69-6.4,25.38-12.33,50.93-19.79,76.02-4.58,15.41-7.68,35.21-20.08,46.59,0-1.25,0-1.87.02-3.12,12.77-12.19,16.79-32.27,21.74-48.53,7.74-25.44,14.39-51.18,21.28-76.85,14.62-54.47,29.01-110.31,53.3-161.44,11.77-24.79,30.2-62.22,62.8-59.92,19.51,1.37,40.05,16.89,55.04,27.96,31.62,23.35,62.14,59.5,101.83,69,48.46,11.59,68.88-47.08,83.76-82.08,17.53-41.23,34.99-88.69,87.51-83.56,70.41,6.87,138.31,31.89,208.23,42.41,30.97,4.66,65.43,9.2,95.81-.85,30.28-10.02,52.29-5.64,81.39,8.79,66.31,32.87,126.22,102.85,202.28,110.9Z"/>
        <path class="cls-1" d="M1085.43,219.7v3.13c-75.6-9.17-133.85-77.61-200.24-109.97-29.49-14.38-52.05-18.09-82.83-8.87-30.48,9.13-64.7,4.28-95.55-.36-70.19-10.55-138.72-34.58-209.46-41.08-52.78-4.85-69.83,42.53-87.48,84.1-16.58,39.05-34.62,90.68-85.87,83.89-44.89-5.94-82.16-38.29-120.51-59.58-19.8-11-41.92-21.29-64.93-22.55-31.31-1.72-45.3,32.58-55.17,57.05-20.3,50.34-31.26,104.57-42.33,157.52-5.13,24.56-9.79,49.26-15.64,73.66-3.22,13.45-4.58,32.28-14.98,42.44,0-1.04,0-1.62,0-2.91,11.06-9.07,12.46-28.6,15.68-41.6,6.03-24.36,10.69-49.08,15.85-73.64,11.15-53.1,22.09-107.55,42.6-158,10.1-24.84,24.32-58.55,55.94-56.72,22.78,1.32,44.57,11.39,64.2,22.27,37.95,21.03,74.89,53.02,119.28,58.88,51.35,6.77,69.22-44.7,85.53-83.9,17.37-41.77,34.27-88.92,87.16-84.09,70.92,6.48,139.74,30.07,210.13,40.58,30.75,4.59,64.98,9.65,95.41.75,30.8-9,53.28-5.23,82.75,9.12,66.3,32.28,124.99,100.89,200.46,109.89Z"/>
        <path class="cls-1" d="M1085.43,228.71v2.62c-75.27-9.44-131.59-77.25-197.52-109.63-29.32-14.4-51.74-17.74-82.16-7.83-30.29,9.87-64.19,5.62-95.04.85-69.01-10.69-135.97-36.13-205.56-42.75-52.62-5.01-71.03,43.38-90.08,84.31-17.96,38.6-37.45,91.01-88.61,84.05-46.04-6.26-83.94-39.77-123.09-61.9-20.14-11.38-43-22.32-66.56-23.49-30.46-1.51-44.26,33.63-53.84,57.13-20.19,49.52-31.68,102.71-43,154.8-5.29,24.36-10.13,48.82-15.77,73.1-3.37,14.5-5.06,31.83-13.75,44.34,0-.33,0-.55-.01-1.12,9.19-11.89,10.71-29.61,14.01-43.83,5.65-24.36,10.4-48.93,15.6-73.39,11.15-52.44,22.4-106.03,42.53-155.9,9.6-23.78,23.38-58.81,54.11-57.25,23.4,1.18,46.06,11.92,66.12,23.17,38.95,21.85,76.71,54.96,122.43,61.11,51.15,6.88,70.01-45.22,87.43-83.97,18.5-41.15,36.31-89.15,88.95-84.21,70.06,6.58,137.64,31.55,207.15,42.18,30.9,4.73,64.95,9.17,95.36-.45,30.6-9.68,53.12-6.19,82.54,8.22,66.2,32.41,123.26,100.45,198.76,109.84Z"/>
        <path class="cls-1" d="M1085.43,235.85v2.16c-74.03-9.4-127.61-76.42-192.12-108.54-28.83-14.35-50.6-17.07-80.25-6.49-29.65,10.59-62.87,6.93-93.29,2-67.07-10.86-131.63-37.71-199.31-44.53-52.74-5.31-73.73,44.51-94.78,84.75-19.97,38.17-42.15,91.73-93.54,84.45-46.67-6.61-84.58-41.34-123.93-64.3-20.21-11.79-43.4-23.28-67.26-24.48-29.93-1.5-43.85,33.21-53.99,55.98-21.24,47.67-33.51,99.96-45.69,150.5-8.6,35.68-12.25,84.31-30.74,116.96,0,.32-.01.42-.02.52,7.97-13.33,10.09-30.14,13.64-45.03,5.74-24.03,10.87-48.21,16.43-72.29,11.79-51.06,23.59-103.91,44.53-152.17,9.97-22.98,23.63-58,53.79-56.51,23.78,1.17,46.9,12.48,67.11,24.13,39.34,22.67,77.31,56.97,123.81,63.45,51.28,7.15,72.38-45.96,91.59-84.29,20.29-40.49,40.25-89.77,92.92-84.57,68.42,6.74,133.91,33.1,201.74,43.89,30.61,4.87,64.11,8.73,94.03-1.6,29.96-10.35,52.01-7.39,81.05,6.99,65.11,32.24,119.73,99.56,194.29,109Z"/>
        <path class="cls-1" d="M1085.43,241.46v1.78c-72.08-9.12-122.23-75.18-184.57-106.84-28.08-14.26-48.82-16.12-77.35-4.9-28.66,11.28-60.88,8.2-90.55,3.11-64.52-11.07-126-39.34-191.16-46.38-53.13-5.74-77.71,45.88-101.18,85.39-22.4,37.71-48.29,92.77-100.2,85.04-46.86-6.98-84.29-42.97-123.31-66.75-20.06-12.23-43.22-24.15-67.2-25.48-29.42-1.63-44.41,31.57-55.36,53.82-22.48,45.64-36.41,96.09-50.06,144.9-10.15,36.3-15.88,81.31-33.89,114.99-.01.87-.02,1.27-.03,1.96,18.05-33.52,22.98-79.63,32.54-115.87,13.05-49.49,26.32-100.64,48.28-147.09,10.6-22.43,25.14-56.28,54.73-54.71,23.95,1.27,47.16,13.04,67.3,25.11,39.19,23.48,76.85,59,123.69,65.85,51.69,7.55,76.1-46.92,97.57-84.8,22.55-39.79,45.7-90.7,98.66-85.14,66.15,6.95,128.83,34.7,194.35,45.69,29.98,5.03,62.6,8.32,91.66-2.71,28.98-11,50.14-8.79,78.52,5.51,63.22,31.85,114.7,98.28,187.57,107.53Z"/>
        <path class="cls-1" d="M1085.43,245.89v1.49c-69.63-8.67-115.79-73.63-175.4-104.68-27.14-14.13-46.55-14.93-73.69-3.11-27.4,11.93-58.36,9.47-87.05,4.19-61.52-11.31-119.37-41-181.6-48.29-53.74-6.29-82.76,47.46-108.86,86.17-25.08,37.19-55.5,94.08-108.17,85.78-46.71-7.36-83.23-44.63-121.5-69.19-19.74-12.67-42.57-24.94-66.51-26.48-29.06-1.88-45.49,29.1-57.68,50.88-24.18,43.19-40.19,91.52-55.73,138.31-11.91,35.84-19.92,78.61-38.55,111.88-.02,1.32-.02,1.95-.04,3.13,18.29-33.55,25.4-77.09,36.6-113.19,14.77-47.59,29.93-96.77,53.41-140.94,11.67-21.96,27.51-53.86,56.69-52.09,23.97,1.46,46.96,13.6,66.84,26.1,38.6,24.26,75.51,61.04,122.32,68.25,52.35,8.07,80.94-48.08,104.97-85.48,25.07-39.02,52.3-91.92,105.78-85.85,63.4,7.19,122.7,36.33,185.42,47.55,29.09,5.2,60.56,7.9,88.47-3.78,27.7-11.6,47.65-10.36,75.17,3.82,60.72,31.3,108.47,96.7,179.09,105.55Z"/>
        <path class="cls-1" d="M1085.43,249.47v1.3c-66.89-8.11-108.63-71.83-165.14-102.2-26.06-14.01-43.98-13.53-69.53-1.21-25.96,12.52-55.49,10.73-83.05,5.25-58.24-11.58-112.06-42.69-171.07-50.24-54.53-6.97-88.63,49.17-117.4,87.04-27.82,36.63-63.4,95.58-117,86.63-46.29-7.73-81.58-46.28-118.77-71.58-19.27-13.11-41.55-25.66-65.33-27.46-28.83-2.19-46.93,26.17-60.69,47.41-26.19,40.42-44.59,86.46-62.36,131.01-13.89,34.83-24.34,75.85-44.3,107.96-.02,1.64-.03,2.44-.05,3.99,19.37-32.64,28.82-74.34,41.88-109.61,16.84-45.47,34.25-92.45,59.6-134.01,13.1-21.47,30.51-50.91,59.41-48.86,23.86,1.7,46.38,14.14,65.86,27.07,37.66,25.01,73.48,63.04,119.96,70.62,53.2,8.68,86.65-49.42,113.37-86.28,27.7-38.21,59.69-93.37,113.89-86.68,60.33,7.44,115.81,37.98,175.39,49.45,28.02,5.39,58.15,7.46,84.7-4.83,26.21-12.13,44.74-12.07,71.25,1.99,57.79,30.65,101.35,94.88,169.36,103.23Z"/>
        <path class="cls-1" d="M1085.43,252.55v1.24c-64.05-7.51-101.09-69.89-154.31-99.57-24.91-13.89-41.28-11.96-65.1.76-24.43,13.05-52.4,12.01-78.78,6.3-54.75-11.87-104.36-44.82-160.05-52.22-55.58-7.39-94.81,50.7-126.38,87.97-30.51,36.03-71.63,97.21-126.26,87.54-45.68-8.09-79.51-47.9-115.4-73.87-18.69-13.53-40.29-26.31-63.82-28.39-28.7-2.53-48.57,23.08-64.11,43.63-28.37,37.49-49.38,81.09-69.57,123.32-16.07,33.6-29.14,72.9-50.73,103.58-.02,1.8-.03,2.7-.05,4.49,20.89-31.29,32.85-71.32,47.98-105.45,19.15-43.21,39.05-87.84,66.5-126.58,14.78-20.86,33.9-47.62,62.64-45.24,23.65,1.96,45.54,14.65,64.49,28.01,36.45,25.7,70.92,64.98,116.87,72.92,54.19,9.36,92.95-50.87,122.35-87.15,30.49-37.62,67.39-94.62,122.59-87.58,57.08,7.29,108.51,39.65,164.7,51.39,26.87,5.61,55.51,6.98,80.59-5.86,24.56-12.57,41.57-13.87,66.97.07,54.61,29.97,93.65,92.92,158.89,100.68Z"/>
        <path class="cls-1" d="M1085.43,255.45v1.32c-61.31-6.92-93.52-67.88-143.45-96.93-23.74-13.81-38.61-10.25-60.66,2.74-22.9,13.49-49.28,13.33-74.5,7.34-51.31-12.18-96.57-46.82-149-54.19-56.66-7.96-101.24,52.28-135.39,88.89-33.02,35.41-79.83,98.88-135.5,88.47-44.98-8.41-77.21-49.44-111.65-76.02-18.04-13.92-38.88-26.9-62.11-29.23-28.68-2.88-50.29,20.11-67.7,39.78-30.56,34.53-54.29,75.63-77.01,115.52-18.41,32.34-34.18,69.74-57.41,99.09-.02,1.8-.03,2.72-.05,4.57,22.53-29.9,37.12-68.16,54.49-101.04,21.61-40.91,44.15-83.1,73.76-118.92,16.6-20.08,37.45-44.19,66.13-41.46,23.37,2.22,44.54,15.12,62.87,28.87,35.08,26.32,68.02,66.82,113.31,75.1,55.22,10.09,99.54-52.38,131.5-88.06,32.96-36.8,75.37-96.36,131.48-88.49,53.85,7.55,100.97,41.29,153.8,53.33,25.72,5.86,52.79,6.42,76.36-6.89,22.83-12.89,38.33-15.73,62.59-1.88,51.35,29.31,85.68,90.9,148.16,98.07Z"/>
        <path class="cls-1" d="M1085.43,258.53v1.57c-59.86-6.59-86.02-67.47-134.3-95.17-23.22-13.32-36.68-5.92-57.36,6.78-21.9,13.45-47.32,12.96-71.38,6.18-46.44-13.09-86.18-46.55-133.99-54.93-58.1-10.19-108.76,53.41-145.35,89.4-34.43,33.85-85.56,98.34-140.46,90.09-45.13-6.79-76.56-49.26-109.37-76.79-17.44-14.63-37.39-28.31-60.47-31.6-31.71-4.52-58.19,19.92-78.6,40.9-29.74,30.58-54.43,66.17-78.15,101.48-21.19,31.55-39.87,67.32-64.85,96.15-.02,1.6-.03,2.44-.05,4.19,24.04-28.77,41.29-65.03,61.03-96.7,24.1-38.65,49.31-78.37,81.04-111.32,18.4-19.11,40.94-40.78,69.63-37.73,23.06,2.45,43.47,15.54,61.14,29.66,33.63,26.87,64.97,68.54,109.55,77.11,56.23,10.81,106.11-53.9,140.4-88.97,35.37-36.17,83.02-97.84,140.17-89.38,50.75,7.51,93.59,42.9,143.12,55.27,24.64,6.15,50.15,5.78,72.24-7.92,21.08-13.07,35.21-17.58,58.32-3.8,48.19,28.75,77.77,88.9,137.69,95.53Z"/>
        <path class="cls-1" d="M1085.43,262.12v2c-58.17-6.24-78.87-65.98-124.85-92.92-22.33-13.08-34.5-4.15-53.7,8.64-20.63,13.73-44.45,14.33-67.61,7.16-43.62-13.52-79.31-48.22-124.57-56.82-58.68-11.15-114.81,55.07-153.1,90.17-36.48,33.44-92.49,99.74-148.44,90.93-44.5-7-74.32-50.5-105.72-78.47-16.73-14.9-36.02-28.87-58.75-32.26-31.69-4.73-59.87,17.49-82.02,37.22-61.45,54.75-100.6,127.06-155.42,187.19-.02,1.19-.03,1.85-.05,3.29,54.28-60.61,90.1-135.17,149.76-191.93,21.37-20.33,48.78-43.53,80.48-38.88,22.89,3.35,42.48,17.19,59.54,31.97,32.05,27.77,62.61,70.8,107.4,77.71,55.48,8.56,109.27-56.91,144.83-90.55,37.54-35.51,91.15-100.53,149.58-89.82,46.41,8.5,83.96,42.62,128.86,55.94,23.56,6.99,48.1,6.92,69.31-6.69,19.79-12.71,32.69-21.08,55.35-7.78,46.79,27.46,70.38,87.56,129.13,93.93Z"/>
        <path class="cls-1" d="M1085.43,266.56v2.62c-56.87-6.04-73.12-64.39-116.96-91.12-21.42-13.06-32.99-2.34-50.77,10.32-19.65,13.99-42.01,15.67-64.57,8.16-41.36-13.77-73.19-49.86-116.46-58.65-59.09-12.01-120.02,56.5-159.64,90.82-26.24,22.73-52.27,46.19-81.02,65.76-21.28,14.48-47.16,30.25-74.06,25.9-44-7.12-72.37-51.54-102.52-79.88-16.12-15.15-34.81-29.31-57.27-32.78-31.57-4.88-61.3,15.81-84.75,34.21-64.58,50.69-111.31,118.25-166.07,178.38-.01.54-.02.91-.04,1.82,55.02-59.95,97.96-129.8,161.15-182.43,22.86-19.04,51.9-40.42,83.52-35.58,22.59,3.46,41.54,17.5,57.95,32.55,30.74,28.17,59.78,72.16,104.01,79.23,56.41,9.02,114.65-58.09,152.04-91.33,39.02-34.68,97.71-102.14,156.63-90.52,44.14,8.7,77.88,44.02,120.22,57.77,22.78,7.4,45.89,6.18,65.94-7.67,18.44-12.73,30.24-22.59,52.09-9.52,44.8,26.8,63.16,85.82,120.57,91.93Z"/>
        <path class="cls-1" d="M1085.43,272.2v3.46c-55.84-5.95-68.42-62.35-110.25-89.26-20.4-13.12-30.96-3.63-47.64,9.46-18.47,14.5-39.71,18.94-62.13,11.73-41.31-13.29-70.38-53.44-113.8-61.71-26.23-5-50.61,7.86-72.22,21.44-32.47,20.4-61.71,45.8-91.13,70.26-29.4,24.44-58.68,49.87-91.13,70.26-21.65,13.61-46.18,26.83-72.48,21.24-42.68-9.07-69.08-54.07-98.44-82.24-43.71-41.93-86.1-35.55-134.49-3.07-69.41,46.58-126.38,112.82-180.32,175.95,0-.36-.02-.41-.03-.28,55.44-62.29,107.66-130.62,176.49-179.05,47.99-33.77,90.19-39.35,134.31,2.15,29.8,28.03,56.77,72.65,99.59,81.72,58.34,12.35,122.13-57.9,161.43-91.24,28.77-24.41,57.35-49.76,89.26-70.07,21.51-13.68,45.66-26.28,71.83-21.42,44.03,8.18,74.73,47.72,116.83,60.82,22.56,7.02,44.14,3.29,62.95-11.15,17.17-13.19,27.82-21.92,48.54-8.8,42.43,26.86,56.81,83.87,112.83,89.77Z"/>
        <path class="cls-1" d="M1085.43,279.37v4.54c-55.45-6.1-66-60.32-106.29-88.17-18.66-12.9-29.83-5-45.54,8.08-18.19,15.14-37.97,22.43-61.24,15.53-40.65-12.06-66.56-53.1-108.28-63.34-25.4-6.23-48.1,4.04-69.82,16.78-35.78,20.99-67.85,48.39-100.04,74.31-30.06,24.21-59.96,49.46-92.87,69.82-21.63,13.38-45.79,27.32-72.12,22.14-42.5-8.36-67.85-52.54-96.24-81-15.26-15.3-32.38-29.31-54.34-32.85-30.34-4.9-59.67,12.7-84.15,28.31-68.93,43.96-133.14,106.07-183.08,170.72,0-1.54,0-2.14-.01-3.04,51.88-64.18,113.62-128.73,183.16-173.7,48.66-31.47,91.11-38.66,134.52,3.64,29.03,28.28,54.98,73.6,97.58,82.64,26.29,5.58,50.89-7.8,72.56-21.3,32.89-20.49,62.69-45.93,92.6-70.41,29.94-24.5,59.69-49.93,92.6-70.41,21.68-13.49,46.16-26.52,72.42-21.43,43.02,8.34,70.73,49.07,111.46,62.53,22.37,7.39,43.38,2.25,61.63-12.3,16.32-13.01,26.91-23.16,47.07-10.02,41.47,27.02,52.54,82.89,108.41,88.95Z"/>
        <path class="cls-1" d="M1085.43,288.41v5.14c-55.04-2.21-68.01-57.53-106.8-85.52-18.43-13.3-29.42-7.23-45.89,5.6-18.4,14.33-38.43,21.66-61.43,14.95-39.86-11.63-65.4-51.33-106.3-61.43-25.67-6.34-48.13,4.31-70.1,17.15-35.69,20.86-67.92,47.69-100.29,73.19-30.22,23.8-60.28,48.55-93.12,68.72-21.43,13.17-45.83,27.81-71.93,22.53-42.18-8.53-68.19-51.27-96.8-79.43-15.16-14.92-32.4-29.28-53.94-33.23-29.58-5.42-59.54,12.49-83.66,27.27-68.63,42.06-138.32,103.01-183.72,169.96,0-1.82-.01-2.82-.01-5.02,47.42-66,115.31-127.13,183.99-170.15,24.32-15.24,53.85-33.05,83.89-28.38,21.97,3.42,39.1,17.53,54.29,32.86,28.27,28.54,53.43,72.92,95.99,81.16,26.24,5.08,50.18-8.85,71.75-22.16,33.09-20.43,63.25-45.66,93.57-69.87,32.46-25.92,64.8-53.29,100.76-74.37,21.73-12.73,44.25-23,69.66-16.72,41.63,10.29,66.73,51.87,107.18,64.01,23.41,7.03,43.27-.94,61.47-16.11,15.63-13.03,26.95-21.32,45.56-8.36,40.37,28.1,50.04,81.95,105.9,88.21Z"/>
        <path class="cls-1" d="M1085.43,297.29v4.08c-54.75,6.27-76.51-55.23-115.19-81.72-20.18-13.82-30.03-6.68-48.74,5.14-18.79,11.87-37.2,17.6-59.02,11.13-38.7-11.48-65.69-48.78-106.89-54.61-26.01-3.69-50.45,10.2-72.02,23.22-31.82,19.21-61.31,42.31-90.88,64.74-29.59,22.44-59.04,45.52-90.88,64.74-21.14,12.76-46,27.55-71.54,23.03-41.11-7.28-69.2-46.32-98.02-72.8-15.02-13.8-32.2-28.6-52.42-33.96-27.88-7.38-55.91,6.61-79.89,19.87-70.59,39.03-145.52,101.05-188.42,170.15-.02-1.25-.03-1.95-.05-3.53,43.83-67.37,114.68-127.89,183.2-168.89,24.03-14.38,54.16-32.02,83.38-26.07,21.19,4.32,38.53,18.68,53.74,33.23,28.98,27.7,55.77,68.82,97.64,77.41,25.96,5.33,50.58-9.55,71.96-22.55,32.58-19.82,62.49-44.02,92.57-67.34,32.23-25,64.32-51.24,99.72-71.75,22.1-12.81,44.5-23.55,70.27-17.31,40.08,9.71,65.89,47.62,105.06,58.54,22.69,6.33,42.66-.76,61.12-14.39,17.2-12.7,28.24-16.88,46.63-3.44,37.84,27.65,54.27,84.44,108.67,83.07Z"/>
        <path class="cls-1" d="M1085.43,304.1v3.16c-54.03,15.28-86.55-49.45-125.26-75.16-39.53-26.26-66.27,22.92-109.12,13.11-36.51-8.36-63.41-40.03-101.6-44.53-25.63-3.02-49.71,9.7-71.39,22.04-30.97,17.62-59.86,38.88-88.82,59.54-28.98,20.68-57.83,41.92-88.82,59.54-21.31,12.12-45.79,25.76-71.01,21.65-40.39-6.58-70.58-40.84-100.69-65.43-15.57-12.71-32.88-26.44-52.53-32.13-27.24-7.88-54.47,3.75-78.78,15.95-69.75,35.02-146.21,94.48-185.79,162.87-.03-.76-.04-1.2-.06-2.24,41.45-68.92,117.14-129.99,187.41-167.43,24.11-12.84,51.84-25.93,79.45-18.3,19.96,5.52,37.2,19.94,52.43,33.3,29.33,25.74,58.3,62.86,99.09,69.89,25.41,4.38,50.16-10.04,71.36-22.56,31.5-18.6,60.72-40.95,90.07-62.69,29.34-21.73,58.59-44.1,90.07-62.69,21.62-12.77,45.95-26.27,71.83-22.83,40.02,5.31,66.98,40.34,104.84,50.6,21.53,5.83,39.62-.12,58.22-11.4,19.51-11.83,29.6-17.21,50.06-3.3,38.44,26.13,64.69,89.11,119.03,79.03Z"/>
        <path class="cls-1" d="M1085.43,309.22v2.41c-53.67,24.44-97.16-41.09-137.38-66.84-24.5-15.69-37.57-14.87-61.62-1.25-16.13,9.13-33.85,14.66-52.44,11.77-31.55-4.91-57.24-27.48-89.41-31.73-55.97-7.39-116.62,44.25-159.99,72.64-42.73,27.97-104.87,81.49-159.93,71.83-39.16-6.87-70.8-35.24-102.39-57.15-16.23-11.26-33.48-22.84-52.61-28.49-26.37-7.79-53.51,1.97-77.71,12.83-67.99,30.52-144.03,85.35-180.22,151.84-.02-.36-.03-.58-.06-1.17,38-67.46,113.62-124.5,182.33-158,23.9-11.65,51.8-23.39,78.52-15.74,19.42,5.55,36.59,17.99,52.43,30.08,30.67,23.42,61.01,55.08,100.46,62.77,27.08,5.28,51.98-7.95,75.12-20.69,30.26-16.66,58.54-36.85,86.93-56.44,42.48-29.31,105.97-86.79,162.37-77.77,34.35,5.5,60.06,31.68,93.41,38.89,19.14,4.14,37.45-.66,54.25-10.24,23.16-13.22,34.67-16.99,58.7-.95,38.74,25.87,75.8,90.37,129.25,71.4Z"/>
        <path class="cls-1" d="M1085.43,313.03v1.85c-55.84,34.77-111.85-35.5-157.19-61.06-22.09-12.45-38.91-15.87-60.98-3.15-15.07,8.69-31.57,16.07-49.29,16.06-29.01-.01-55.64-16.7-84.78-18.63-54.78-3.63-109.13,36.39-154.15,62.79-42.96,25.19-97.57,66.31-149.89,62.45-41.72-3.08-78.75-28.74-114.05-48.62-16.65-9.38-34.14-19.48-52.7-24.62-25.9-7.18-51.89-.68-76.46,8.78-65.72,25.29-141.23,75.05-174.15,139.05,0-.06,0-.13-.02-.36,35-65.73,111.25-118.91,178.68-147.31,24.42-10.28,50.99-18.62,77.14-10.77,18.97,5.7,36.27,16.65,52.78,27.3,32.23,20.79,64.75,46.86,103.75,53.13,54.8,8.81,115.06-40.74,158.4-67.98,44.04-27.68,102.56-75.07,158.24-68.91,30.63,3.39,56.32,23.41,86.55,26.68,18.19,1.97,35.46-4.06,51.13-12.93,24.56-13.91,38.95-12.75,63.74,2.63,41.55,25.79,89.31,91.78,143.28,63.63Z"/>
        <path class="cls-1" d="M1085.43,315.9v1.5c-56.9,44.46-123.16-24.53-173.06-51.08-21.64-11.52-43.7-20.43-66.3-8.01-14.78,8.12-29.28,16.89-46.1,20.1-25.91,4.94-52.86-4.49-78.99-4.24-53.3.5-101.71,28.5-148.08,51.88-44.97,22.67-96.62,55-148.98,50.74-39.56-3.22-76.33-19.66-112.16-35.5-45.15-19.96-82.61-34.23-132.16-18.76-62.99,19.67-138.01,64.01-167.86,125.26.02.12.03.16.03.18,31.5-62.56,106.51-110.16,170.57-133.48,24.59-8.95,50.34-14.67,76.12-7.81,19.78,5.26,38.68,15.62,56.72,25.03,34.65,18.07,70.15,38.51,109.77,42.73,53.04,5.65,107.76-33.36,151.83-57.85,45.47-25.27,97.09-60.38,151.27-58.85,28.51.8,55.87,15.62,84.3,13.33,17.63-1.42,33.21-9.75,48.3-18.28,21.74-12.29,41.54-5.52,62.62,6.27,46.6,26.07,106.18,95.2,162.16,56.87Z"/>
        <path class="cls-1" d="M1085.43,318.2v1.38c-57.19,53.54-132.52-11.72-187.18-39.37-24.23-12.26-50.89-24.95-76.93-11.79-14.88,7.52-28.37,17.41-44.07,23.39-22.09,8.43-46.65,7.72-69.92,9.42-50.4,3.68-94.4,20.98-140.82,40.15-45.25,18.69-91.94,40.49-141.91,39.09-40.52-1.14-80.08-11.5-118.49-23.73-46.05-14.66-85.56-32.29-134.78-20.34-59.9,14.54-132.84,52.35-159.74,110.77.06.17.08.26.12.41,28.72-60.16,102.44-101.87,164.37-119.85,50.42-14.64,89.41,1.63,135.83,19.96,36.27,14.32,73.33,27.98,112.61,30.42,51.29,3.2,101.21-25.31,146.1-46.57,47.84-22.66,95.35-46.7,149.26-47.84,23.61-.5,48.23,5.04,71.46-.62,17.92-4.37,31.39-15.75,48.06-22.6,24.09-9.89,46.2-.6,68.27,11,51.43,27.02,120.93,94.34,177.75,46.71Z"/>
        <path class="cls-1" d="M1085.43,320.33v1.5c-57.13,62.34-140.18,1.7-200.08-26.9-26.93-12.86-59.52-30.07-88.14-15.33-13.02,6.7-25.01,16.02-37.09,24.24-18.7,12.73-36.15,19.7-58.61,23.46-22.39,3.75-44.66,3.25-67.02,8.17-25.17,5.53-49.75,13.53-74.32,21.24-46.51,14.61-90.61,27.22-139.65,27.33-40.31.09-80.52-3.82-120.02-11.84-44.08-8.95-84.46-29.59-130.25-23.53-59.15,7.82-133.87,40.12-158.98,97.98.11.08.15.16.23.32,25.88-57.38,97.8-92.89,156.47-105.82,48.77-10.75,88.06,7.44,133.99,20.3,38.7,10.84,78.2,18.91,118.47,20.15,50.73,1.57,97.2-17.16,143.88-34.94,47.41-18.06,91.55-31.5,142.02-36.46,22.58-2.22,44.73-4.39,65.37-14.4,13.39-6.49,25.44-15.45,38.67-22.14,29.21-14.76,55.86-2.15,83.83,11.77,56.28,28.02,134.15,91.36,191.22,34.89Z"/>
        <path class="cls-1" d="M1085.43,322.64c0,.7,0,1.07,0,1.9-59.79,75.23-156.96,9.05-225.08-20.07-24.87-10.63-56.92-26.54-83.21-13.61-13.44,6.61-25.45,16.91-35.92,27.51-16.93,17.14-28.81,29.47-53.36,35.29-19.03,4.51-39.71,1.95-59.29,4.35-25.02,3.07-49.73,8.56-74.38,13.72-84.5,17.69-175.05,24.65-261.32,15.54-43.14-4.56-82.05-27.55-125.41-26.05-53.61,1.86-138.6,27.68-156.72,85.5.17-.15.25-.16.37-.14,24.9-58.6,103.1-89.72,162.78-94.33,43.51-3.36,84.39,18.41,127.01,25.34,39.79,6.47,79.99,8.15,120.24,7.71,47.7-.53,91.22-10.76,137.01-23.65,25.74-7.24,51.57-14.84,77.94-19.47,19.03-3.34,38.26-2.58,57.2-5.52,22.8-3.53,39.84-12.13,57.74-26.07,12.5-9.73,26.14-21.86,40.74-28.32,27.25-12.08,57.23,3.01,82.72,14.48,63.1,28.38,152.09,93.22,210.93,25.9Z"/>
        <path class="cls-1" d="M1085.43,325.53v2.57c-57.56,83.4-158.95,24.55-231.75-5.64-26.63-11.04-64.54-30.94-93.55-18.77-13.93,5.84-26.16,17.76-34.76,29.93-14.46,20.48-22.29,39.04-49.41,45.02-18.31,4.03-38.73.51-57.54,1.41-23.24,1.12-46.39,3.68-69.52,6.13-43.34,4.6-85.85,4.08-129.1,6.37-43.28,2.3-86.16,10.33-129.62,9.85-19.2-.22-39.73-1.43-57.91-8.15-25.61-9.46-45.02-20.04-73.73-20.77-50.38-1.27-132.54,17.94-148.56,74.41.25-.54.36-.72.55-.97,17.57-57.78,102.67-81.45,155.64-81.82,43.46-.31,81.45,23.5,125.11,26.87,43.68,3.37,87.06-1.47,130.68-2.74,44.48-1.29,86.53-5.19,130.49-12.97,24.36-4.31,48.77-8.92,73.42-11.32,19.37-1.89,40.16,1.21,58.87-3.58,25.12-6.43,35.21-20.41,51.45-38.65,9.85-11.07,21.7-21.49,35.12-27.97,26.54-12.79,59.56,3.75,84.63,14.28,70,29.42,169.73,94.83,229.46,16.5Z"/>
        <path class="cls-1" d="M1085.43,329.36v3.56c-26.66,44.9-63.07,57.82-113.94,49.46-44.95-7.39-86.99-27.06-129.09-43.59-44.85-17.61-99.76-41.59-128.87,10.62-12.33,22.1-16.2,43.91-44.17,50.96-18.51,4.66-40.52-.04-59.42-.44-21.77-.46-43.56-.22-65.33-.05-42.03.32-85.35-4.6-127.1-1.62-43.47,3.1-85.84,15.33-129.34,18.43-18.8,1.34-39.03,1.59-57.09-4.72-23.74-8.29-42.31-22.26-68.26-26.02-50.43-7.31-138.49,5.03-153.87,64.83.34-1.1.49-1.53.77-2.22,15.45-56.07,96.77-73.69,146.2-71.7,28.46,1.15,48.15,11.96,73.61,21.92,17.91,7,38.1,8,57.13,7.94,43.4-.16,86.17-9.12,129.34-12.34,43.56-3.25,87.7-.75,131.53-4.08,22.69-1.72,45.41-3.59,68.17-4.19,19.27-.51,41.71,3.71,60.38-1.43,26.37-7.27,32.44-27.5,46.28-47.87,8.39-12.35,20.76-24.49,35.03-29.69,29.8-10.87,68.35,9.96,95.33,21.04,41.4,17,82.81,37.26,127.26,44.85,45.89,7.83,79.63-4.57,105.46-43.62Z"/>
        <path class="cls-1" d="M1085.43,334.52v4.88c-24.99,50.03-63.48,67.66-118.66,59.58-44.77-6.56-87.33-24.89-129.23-41.02-40.68-15.66-103.85-46.46-130.37,6.28-10.98,21.83-12.72,45.71-39.57,53.99-19.84,6.12-44.29.41-64.65-1.1-20.45-1.52-40.89-3.07-61.33-4.62-42.07-3.19-87.34-11.54-129.29-6.91-43.13,4.76-84.5,19.36-127.52,24.71-20.59,2.56-42.8,3.62-62.03-5.53-23.6-11.23-41.89-24.1-68.66-28.72-49.63-8.56-132.44.08-146.52,59.76.44-1.83.65-2.6,1.02-3.9,14.99-59.75,101.92-70.76,151.84-63.03,25.97,4.02,44.62,17.7,68.25,26.91,17.48,6.81,37.9,6.33,56.24,4.89,43.44-3.39,85.61-16.01,128.94-20.34,42.06-4.2,87.39,2.4,129.75,3.12,22.9.39,45.8.72,68.69,1.65,18.69.76,39.75,5.59,57.81.06,26.82-8.22,29.78-31.29,41.71-52.85,27.03-48.84,80.22-27.31,122.27-11.04,45.01,17.41,90.07,38.71,138.22,45.76,51.35,7.52,87.25-7.02,113.09-52.52Z"/>
        <path class="cls-1" d="M1085.43,341.38v6.54c-20.44,50.56-54.54,75.33-110.14,71.05-49.69-3.83-97.18-24.25-143.25-41.74-34.96-13.28-99.72-45.07-124.84.75-12.5,22.81-11.94,48.64-42.14,55.34-38.26,8.48-86.58-4.27-124.8-9.49-41.43-5.66-85.14-14.02-127.04-9.98-45.36,4.37-87.89,22.89-132.8,29.61-19.94,2.98-40.47,3.88-58.75-5.89-22.18-11.86-39.52-24.55-64.97-30.59-50.99-12.1-136.73-7.21-150.82,56.6.57-2.76.83-3.96,1.31-6.05,13.82-59.77,95.41-67.87,144.94-59.08,29.42,5.22,48.99,21.37,75.39,32.15,16.98,6.94,36.68,5.62,54.43,3.37,45.77-5.79,89.58-23.5,135.72-26.95,40.48-3.03,83.16,4.73,123.43,8.53,21.57,2.03,43.13,4.08,64.72,5.87,18.06,1.5,39,5.76,57,2.02,31.41-6.54,31.82-32.86,44.16-56.52,26.81-51.37,92.89-17.95,132.31-2.82,41.7,16.01,84.42,33.99,129.06,39.81,55.49,7.23,93.12-12.14,117.08-62.54Z"/>
        <path class="cls-1" d="M1085.43,350.32v7.78c-21.27,49.98-56.22,73.1-111.2,68.9-43.49-3.32-85.37-19.22-126.01-33.98-36.75-13.35-106.03-49.76-136.26-6.07-14.92,21.56-15.47,48.35-45.36,55.56-38.83,9.36-88.24-3.49-127.08-8.87-41.09-5.69-83.84-13.28-125.44-9.92-45.68,3.69-88.55,21.96-133.65,28.78-18.85,2.85-38.78,4.03-56.47-4.36-24.13-11.45-43.3-24.89-70.27-30.66-50.39-10.78-132.34-6.5-149.53,54.15.46-1.88.71-3,1.25-5.71,19.21-62.63,94.4-69.92,149.66-56.93,27.79,6.53,46.56,22.23,71.37,33.89,15.97,7.51,34.63,6.29,51.6,3.84,47.5-6.84,92.23-27.85,140.4-30.99,40.52-2.64,81.84,4.82,121.77,10.63,38.44,5.59,81.87,15.78,120.84,10.47,34.41-4.68,33.04-31.94,47.56-56.35,26.12-43.92,92.55-10,126.56,2.94,45.61,17.35,92.98,37.37,142.29,40.4,55.6,3.42,88.6-22.92,107.98-73.48Z"/>
        <path class="cls-1" d="M1085.43,360.39v7.95c-23.59,48.77-60.69,67.85-114.62,62.75-43.25-4.09-84.84-19.62-125.62-33.59-37.55-12.87-96.07-39.94-127.91-1.56-18.22,21.97-21.77,47.65-53.97,53.66-39.79,7.43-86.81-3.09-126.42-7.74-41.96-4.93-85.27-11.37-127.64-8.47-44.16,3.02-85.98,19.63-129.67,25.53-19.43,2.62-38.97,3.12-57.14-5.2-23.29-10.67-42.61-22.27-68.55-27.39-49.84-9.84-129.59-6.66-151.08,49.89.37-.97.57-1.61,1.01-3.29,17.68-58.21,95.9-63.51,145.6-54.15,29.09,5.48,49.66,19.89,75.74,31.57,16.61,7.43,35.41,6.49,53.01,4.1,45.33-6.15,88.28-24.72,134.05-28.47,42.01-3.45,85.31,4.05,126.84,9.63,38.58,5.18,86.34,16.82,125.1,9.05,31.28-6.27,32.67-32.08,48.13-54.57,30.21-43.92,97.33-9.62,134.84,3.84,40.7,14.6,82.67,30.48,126.1,34,54.82,4.45,90.34-17.72,112.17-67.52Z"/>
        <path class="cls-1" d="M1085.43,370.46v8.12c-48.3,88.31-147.34,54.18-224.87,29.1-41.19-13.33-99.28-40.1-136.39-3.59-19.49,19.17-27.76,42.58-57.24,49.14-41.47,9.22-92.34-.82-134.07-4.51-43.46-3.85-87.42-8.2-131.11-6.11-42.08,2.02-82.28,16.49-124,21.09-47,5.17-78.76-22.6-123.63-30.8-48.92-8.94-126.48-7.06-152.33,45.15.28-.21.44-.44.79-1.25,22.57-56.13,103.04-58.67,152.83-48.65,25.92,5.21,44.68,16.87,68.22,27.19,16.99,7.44,35.41,7.14,53.48,5.02,45.19-5.3,88.28-22.93,133.95-25.2,41.68-2.07,83.75,3.62,125.09,8.24,39.76,4.44,84.65,13.64,124.48,7.68,33.51-5.01,38.38-29.83,57.14-52.37,31.88-38.31,88.1-13.4,126.66-.36,40.85,13.81,82.35,29.28,125.57,33.57,53.75,5.33,91.32-12.91,115.42-61.45Z"/>
        <path class="cls-1" d="M1085.43,380.52v8.3c-50.55,81.89-147.47,47.11-222.85,24.19-43.78-13.32-94.38-31.83-133.68,1.34-20.61,17.4-34.17,36.5-62.5,41.69-44.22,8.1-93.84.83-138.41-1.65-44.78-2.5-89.43-4.14-134.28-3.27-39.34.76-77.29,12.5-116.35,15.86-45.82,3.95-80.19-22.62-124.43-29.82-48.6-7.9-122-6.49-151.91,40.59.2.38.32.48.59.39,26.66-51.33,103.68-53.04,152.53-44.25,44.51,8.01,76.62,35.42,123.16,30.56,41.3-4.31,81.16-18.37,122.81-20.16,43.97-1.89,88.09,1.99,131.87,5.6,42.21,3.49,93.07,13.08,135,3.97,29.49-6.41,38.63-29.47,58.63-48.28,37.84-35.59,94.74-9.85,136.41,3.48,76.84,24.58,174.93,58.2,223.4-28.53Z"/>
        <path class="cls-1" d="M1085.43,390.59v8.47c-52.46,74.84-146.76,40.16-219.63,19.59-43.15-12.18-86.8-23.61-127.33,1.63-24.35,15.16-42.93,33-72.62,37.3-46.52,6.75-96.16,2.55-142.96,1.44-47.28-1.12-94.43-.53-141.69-.2-36.51.25-72.14,9.38-108.54,10.64-41.16,1.43-74.75-21.68-114.76-28.35-49.75-8.29-122.34-8.42-157.39,34.81.14.78.22,1.13.41,1.6,30.97-46.73,104.55-47.64,153.61-39.48,42.56,7.09,76.25,32.65,120.32,29.53,39.04-2.76,76.97-14,116.22-15.1,45.38-1.27,90.72.49,136.04,2.77,44.26,2.23,92.4,8.22,136.49,1.54,31.6-4.78,46.15-26.23,70.13-43.95,38.8-28.68,86.57-11.73,128.33.81,75.18,22.58,172.28,57.87,223.37-23.06Z"/>
        <path class="cls-1" d="M1085.43,400.66v8.65c-85.83,106.51-229.8-31.27-336.53,16.82-28.27,12.74-51.97,28.76-83.69,32.21-48.56,5.29-98.31,4.21-147.09,4.49-48.17.28-96.72,4.09-144.78,2.86-35.16-.91-69.92,5.91-105.02,5.25-40.99-.76-76.86-23.38-117.75-28.56-48.13-6.1-112.96-5.23-150.37,30.84.08,1,.13,1.49.26,2.34,35.98-42.71,109.14-42.26,159.1-33.76,40.16,6.83,73.39,29.52,114.76,27.88,36.34-1.45,71.95-9.79,108.43-9.67,46.46.16,92.87-1.2,139.37-.33,46.4.87,94.52,3.97,140.71-1.58,30.72-3.69,50.32-20.5,75.67-35.94,107.37-65.43,258.92,101.38,346.94-21.49Z"/>
        <path class="cls-1" d="M1085.43,410.73c0,3.53,0,5.29,0,8.82-52.41,55.45-131.1,30.61-196.16,15.05-44.24-10.58-85.33-16.48-129.39-2.5-32.21,10.23-61.16,24.11-95.45,26.64-49.97,3.69-100.08,5.66-150.16,7.23-81.6,2.56-164.08,10.06-245.7,5.88-38.98-2-73.85-21.78-112.81-26.77-49.86-6.4-113.44-6.38-155.71,25.13.03,1.01.05,1.55.13,2.58,37.94-35.33,102.27-36.15,150.46-30.12,40.76,5.1,76.61,27.39,117.41,28.41,34.8.86,69.32-5.58,104.18-4.52,48.18,1.46,97-2.8,145.3-3.26,49.05-.47,98.91.22,147.75-4.91,31.88-3.35,56.24-18.98,84.91-31.35,106.46-45.94,249.74,87.71,335.26-16.31Z"/>
        <path class="cls-1" d="M1085.43,420.8v8.99c-51.68,45.28-122.13,25.93-182.93,13.1-47.15-9.96-90.35-14.01-137.59-3.05-32.75,7.6-63.96,17.42-97.78,19.3-51.75,2.88-103.45,6.84-155.24,9.49-81.5,4.17-162.52,11.29-244.05,3.9-37.31-3.38-70.92-20.24-108.46-24.78-51.59-6.25-112.83-6.5-159.38,19.8,0,.8,0,1.29.02,2.31,42.7-30.82,105.83-30.83,155.77-24.52,38.9,4.92,73.75,24.42,112.61,26.61,81.59,4.6,163.92-2.84,245.48-5.63,50.23-1.72,100.45-3.99,150.58-7.53,34.5-2.44,63.98-15.95,96.54-25.86,44.14-13.44,85.21-7.86,129.47,2.59,64.64,15.25,142.54,39.62,194.97-14.72Z"/>
        <path class="cls-1" d="M1085.43,430.86v9.17c-50.98,35.33-113.8,21.3-170.8,10.9-46.36-8.46-90.44-11.73-137.25-4.93-88.45,12.85-176.45,19.26-265.77,25-26.05,1.68-52.1,3.34-78.14,5.32-23.28,1.77-47.97,6.48-71.21,3.89-31.13-3.47-62.52-3.49-93.62-7.05-38.15-4.36-73.31-18.94-111.96-22.67-52.42-5.06-106.91-3.36-156.62,15.36-.03.36-.04.69-.05,1.47,46.87-25.67,107.75-25.45,159.42-19.29,37.52,4.47,71.16,21.07,108.43,24.58,81.55,7.67,162.38.61,243.91-3.71,51.84-2.74,103.6-6.92,155.41-9.66,34.03-1.8,65.6-11.33,98.62-18.69,47.25-10.53,90.54-6.69,137.66,3.12,60.47,12.59,130.29,31.53,181.98-12.8Z"/>
        <path class="cls-1" d="M1085.43,440.93v9.34c-51.78,26.44-109.96,15.78-165.13,7.75-46.25-6.73-91.44-8.44-138.03-4.23-89.35,8.07-178.73,13.25-268.28,19.45-48.2,3.34-100.13,13.29-148.16,9.2-32.1-2.73-64.59-4.64-96.56-8.61-37.42-4.65-72.65-15.84-110.55-18.87-53.04-4.24-106.89-2.72-158.56,10.76-.04-.32-.07-.28-.1.04,49.86-18.23,104.22-19.93,156.65-14.96,38.67,3.67,73.91,18,112.07,22.41,31.12,3.6,62.51,3.75,93.65,7.25,23.22,2.61,47.92-2.12,71.18-3.9,26.01-1.99,52.05-3.67,78.08-5.37,89.44-5.83,177.72-12.19,266.37-24.56,46.77-6.53,90.93-3.39,137.25,4.93,56.77,10.19,119.1,23.9,170.1-10.64Z"/>
        <path class="cls-1" d="M1085.43,451v9.52c-52.97,17.49-108.06,10.24-162.47,4.69-44.99-4.59-89.76-5.38-134.91-3.28-89.6,4.16-178.89,7.89-268.43,13.6-45.93,2.93-95.27,11.76-141.13,8.18-33.29-2.6-66.73-4.82-99.97-8-41.11-3.93-81.03-12.57-122.43-14.79-52.08-2.8-104.26-1.4-155.8,6.88-.04-1.25-.07-1.62-.11-2,51.75-13.11,105.54-14.62,158.58-10.46,37.95,2.98,73.31,13.96,110.79,18.58,32.06,3.95,64.64,5.92,96.83,8.64,47.97,4.06,99.78-5.83,147.91-9.16,89.59-6.2,179.03-11.31,268.46-19.06,46.57-4.04,91.81-2.39,138.05,4.21,55.02,7.85,112.85,18.23,164.65-7.55Z"/>
        <path class="cls-1" d="M1085.43,461.07v9.69c-96.04,15.24-196.44-1.43-293.42.17-87.78,1.45-175.24,3.29-262.94,7.13-43.85,1.92-88.82,7.06-132.66,5.11-36.65-1.63-73.33-3.29-109.96-5.31-95.83-5.29-189.95-12.31-286.06-5.17-.03-2.46-.05-3.36-.09-4.7,51.57-8.03,103.74-9.41,155.82-6.67,41.48,2.18,81.55,10.62,122.75,14.49,33.39,3.14,66.96,5.35,100.39,7.91,45.79,3.51,94.92-5.16,140.77-8.06,89.49-5.65,178.72-9.29,268.28-13.27,45.15-2.01,89.94-1.24,134.93,3.24,54.32,5.41,109.24,12.43,162.2-4.55Z"/>
        <path class="cls-1" d="M1085.43,471.14v9.87c-361.67,0-723.33,0-1085,0,0-3.95-.01-5.52-.04-8.08,96.18-6.87,190.49-.09,286.41,5.02,36.78,1.96,73.62,3.59,110.42,5.17,43.74,1.88,88.54-3.09,132.28-4.96,87.6-3.73,174.96-5.51,262.62-6.88,97-1.52,197.17,14.52,293.31-.14Z"/>
      </g>
    </g>
  </g>
</svg>