<svg width="409" height="911" viewBox="0 0 409 911" fill="none" xmlns="http://www.w3.org/2000/svg">
<path d="M340.693 910.768H339.934C343.023 855.067 377.16 818.767 395.177 777.92C402.261 761.863 409.158 742.231 407.602 720.819C406.074 699.74 397.837 681.603 390.257 666.192C379.998 645.33 368.366 626.799 358.058 606.019C350.823 591.436 342.973 574.604 340.648 555.054C335.712 513.528 359.515 477.982 373.882 452.078C387.426 427.656 413.806 388.42 406.635 348.341C401.938 322.084 388.496 299.149 378.037 279.946C361.912 250.332 344.639 222.818 328.389 193.428C316.966 172.763 299.886 145.861 296.703 115.656C294.21 92.0079 306.677 78.9949 317.095 70.9424C333.712 58.0993 351.794 51.9427 369.064 42.6128C384.008 34.5399 404.791 25.0944 407.834 -6.59889H408.604C405.641 24.7887 385.162 34.2749 370.365 42.3206C353.19 51.6641 335.222 57.8479 318.624 70.3784C308.437 78.0707 295.382 90.7168 297.31 114.079C299.931 145.888 318.84 174.958 330.7 196.262C345.838 223.463 361.821 249.109 376.883 276.446C387.836 296.323 401.005 318.584 406.764 345.256C415.615 386.245 388.785 426.575 374.649 452.085C360.095 478.349 335.416 515.757 341.816 557.793C348.186 599.638 372.456 629.884 388.128 660.443C396.877 677.499 407.083 698.163 408.46 722.28C409.674 743.604 402.583 763.086 395.481 778.967C377.403 819.412 343.705 855.373 340.697 910.762L340.693 910.768Z" fill="#CCFF99"/>
<path d="M333.982 910.768H333.344C336.706 855.196 370.16 819.236 388.128 778.246C395.132 762.27 402.033 742.578 400.656 721.295C399.282 700.127 390.75 681.807 383.192 666.395C372.683 644.956 360.801 625.834 350.239 604.483C342.977 589.805 334.934 572.831 332.661 553.131C327.809 511.034 351.525 476.813 366.397 451.29C380.476 427.132 406.813 389.357 399.582 348.524C394.927 322.226 381.364 299.19 370.912 279.98C354.689 250.162 337.313 222.43 320.965 192.837C309.579 172.227 292.29 145.127 289.21 114.922C286.808 91.3624 299.294 78.2066 309.666 70.2289C326.136 57.5557 344.062 51.6098 361.18 42.4769C376.234 34.438 396.611 25.0605 399.84 -6.59889H400.747C397.533 25.0741 377.107 34.4652 362.06 42.5108C344.919 51.6777 326.97 57.6508 310.478 70.3512C300.102 78.3425 287.609 91.4915 290.018 115.058C293.102 145.256 310.368 172.329 321.754 192.939C338.087 222.505 355.448 250.203 371.655 279.993C382.104 299.197 395.652 322.22 400.311 348.504C407.53 389.262 381.22 427.221 367.201 451.446C352.39 477.044 328.693 511.435 333.549 553.478C335.822 573.15 343.834 590.091 351.088 604.742C361.613 626.011 373.461 645.051 383.936 666.409C391.49 681.807 399.984 700.093 401.365 721.234C402.758 742.53 395.853 762.223 388.838 778.206C370.858 819.181 337.316 855.183 333.978 910.782L333.982 910.768Z" fill="#CCFF99"/>
<path d="M329.307 910.768H328.822C332.255 855.516 364.925 819.915 382.688 778.905C389.585 762.977 396.41 743.244 395.094 722.124C393.747 700.569 384.797 681.766 377.137 666.076C366.237 643.747 353.968 623.707 343.019 601.466C335.628 586.448 327.24 569.046 324.925 548.911C320.039 506.427 344.248 473.83 359.655 449.319C374.265 426.072 401.13 390.118 393.815 348.755C389.137 322.308 375.43 299.081 364.928 279.749C348.55 249.605 331.022 221.554 314.519 191.634C303.099 170.935 285.583 143.571 282.529 113.223C280.173 89.8334 292.48 76.6709 302.815 68.7883C319.052 56.4005 336.736 50.7739 353.619 41.9332C368.65 34.0643 388.576 24.877 391.846 -6.59889H392.89C389.615 24.9042 369.629 34.1254 354.586 42.0216C337.669 50.903 319.952 56.5771 303.676 69.0125C293.337 76.9087 281 90.078 283.356 113.495C286.41 143.815 303.896 171.139 315.308 191.824C331.789 221.696 349.29 249.707 365.649 279.796C376.143 299.102 389.832 322.301 394.502 348.728C401.801 390.03 375.039 426.242 360.493 449.638C345.158 474.312 321.044 507.14 325.919 549.577C328.222 569.637 336.561 586.972 343.929 601.935C354.821 624.047 367.034 643.95 377.873 666.151C385.51 681.794 394.403 700.515 395.746 722.001C397.067 743.142 390.226 762.875 383.314 778.81C365.517 819.82 332.741 855.468 329.307 910.775V910.768Z" fill="#CCFF99"/>
<path d="M326.31 910.768H325.98C329.33 855.991 361.116 820.765 378.552 779.836C385.325 763.942 392.009 744.175 390.659 723.245C389.225 701.038 379.767 681.549 371.906 665.356C360.509 641.871 347.738 620.67 336.288 597.267C328.678 581.712 319.83 563.637 317.391 542.857C312.372 500.073 337.586 469.392 353.513 446.417C368.624 424.625 396.513 390.805 389.084 349.047C384.334 322.349 370.456 298.871 359.856 279.334C343.281 248.776 325.555 220.303 308.855 189.969C297.348 169.067 279.592 141.383 276.489 110.77C274.144 87.6113 286.121 74.5372 296.411 66.7769C312.353 54.7628 329.721 49.5372 346.293 41.0838C361.218 33.4731 380.651 24.5644 383.856 -6.59889H385.033C381.811 24.6188 362.303 33.575 347.363 41.2265C330.742 49.7411 313.324 55.0278 297.332 67.1031C287.036 74.8837 275.002 87.9783 277.346 111.171C280.438 141.743 298.156 169.373 309.648 190.241C326.318 220.507 344.009 248.919 360.554 279.409C371.135 298.912 384.987 322.349 389.726 349.007C397.135 390.71 369.424 424.863 354.385 446.9C338.531 470.133 313.495 501.113 318.487 543.856C320.904 564.534 329.676 582.494 337.252 597.96C348.622 621.173 361.313 642.197 372.63 665.492C380.453 681.597 389.836 700.977 391.251 723.075C392.59 744.032 385.882 763.799 379.091 779.7C361.601 820.649 329.679 855.93 326.31 910.789V910.768Z" fill="#CCFF99"/>
<path d="M324.607 910.768H324.425C327.574 856.583 358.407 821.757 375.419 780.964C382.043 765.084 388.538 745.296 387.093 724.57C385.48 701.52 375.453 681.168 367.311 664.289C355.33 639.459 341.972 616.885 329.937 592.136C321.978 575.766 312.808 557.032 310.023 535.361C304.518 492.53 331.641 463.569 347.848 442.768C363.384 422.838 392.746 391.457 385.169 349.36C380.305 322.342 366.245 298.558 355.512 278.743C338.705 247.702 320.745 218.734 303.812 187.91C292.169 166.716 274.167 138.671 270.969 107.698C268.605 84.8321 280.131 71.9074 290.382 64.2966C305.975 52.7242 322.976 47.9675 339.183 39.9762C353.907 32.712 372.812 24.1635 375.863 -6.59889H377.175C374.095 24.2314 355.102 32.8479 340.336 40.1733C324.064 48.2461 307.003 53.0843 291.35 64.7315C281.091 72.3695 269.485 85.3213 271.845 108.235C275.024 139.14 292.985 167.123 304.605 188.264C321.5 218.999 339.415 247.886 356.184 278.845C366.894 298.619 380.924 322.342 385.765 349.306C393.315 391.348 364.223 423.15 348.751 443.407C332.608 464.547 305.77 493.883 311.222 536.673C313.965 558.194 323.051 576.786 330.958 593.033C342.89 617.551 356.146 639.887 368.028 664.486C376.121 681.243 386.053 701.439 387.628 724.339C389.058 745.092 382.525 764.88 375.878 780.767C358.79 821.587 327.798 856.481 324.607 910.768Z" fill="#CCFF99"/>
<path d="M323.833 910.768H323.761C326.629 857.262 356.453 822.837 372.975 782.235C379.44 766.348 385.7 746.553 384.118 726.058C382.259 702.023 371.629 680.713 363.142 663.018C350.516 636.693 336.512 612.624 323.833 586.38C315.517 569.168 305.816 549.53 302.746 526.894C296.896 483.771 325.939 457.222 342.488 438.63C358.339 420.826 389.543 392.15 381.789 349.707C376.785 322.315 362.527 298.205 351.639 278.05C334.574 246.472 316.363 216.967 299.173 185.607C287.358 164.052 269.11 135.627 265.775 104.233C263.381 81.6926 274.364 68.9718 284.577 61.5241C299.787 50.441 316.378 46.2007 332.187 38.7055C346.684 31.8354 365.027 23.6946 367.869 -6.59889H369.318C366.435 23.7829 347.989 32.0053 333.451 38.9501C317.565 46.5337 300.899 50.8759 285.617 62.0474C275.396 69.5222 264.307 82.2838 266.697 104.885C270.005 136.198 288.208 164.555 299.992 186.035C317.133 217.293 335.298 246.696 352.314 278.179C363.176 298.273 377.392 322.321 382.373 349.645C390.097 392.021 359.249 421.207 343.444 439.411C326.948 458.411 298.277 485.423 304.059 528.484C307.075 550.936 316.678 570.405 324.926 587.461C337.483 613.426 351.369 637.216 363.874 663.263C372.296 680.801 382.817 701.935 384.623 725.786C386.182 746.329 379.877 766.116 373.381 782.004C356.768 822.64 326.754 857.14 323.833 910.775V910.768Z" fill="#CCFF99"/>
<path d="M323.613 910.768H323.602C326.151 857.982 354.935 823.979 370.927 783.594C377.228 767.68 383.219 747.912 381.485 727.635C379.338 702.533 368.093 680.21 359.226 661.618C345.925 633.73 331.239 608.071 317.884 580.265C309.154 562.087 298.998 541.559 295.542 517.87C289.206 474.441 320.616 450.406 337.32 434.206C353.365 418.645 386.694 392.911 378.735 350.067C373.571 322.274 359.116 297.811 348.053 277.296C330.723 245.154 312.239 215.078 294.783 183.16C282.783 161.218 264.288 132.392 260.79 100.536C258.354 78.3629 268.749 65.8392 278.924 58.5818C293.732 48.015 309.89 44.3116 325.278 37.3532C339.513 30.8976 357.276 23.1918 359.875 -6.59889H361.461C358.809 23.2937 340.932 31.0879 326.644 37.6182C311.173 44.6853 294.927 48.4975 280.036 59.1662C269.853 66.4643 259.34 79.0221 261.765 101.27C265.228 133.031 283.674 161.775 295.637 183.643C313.039 215.452 331.47 245.412 348.748 277.438C359.776 297.886 374.19 322.281 379.323 349.985C387.244 392.741 354.351 419.08 338.333 435.083C321.659 451.745 290.712 476.324 296.961 519.671C300.345 543.156 310.403 563.494 319.053 581.481C332.271 608.975 346.82 634.315 359.989 661.89C368.779 680.299 379.903 702.424 381.99 727.309C383.697 747.627 377.65 767.408 371.314 783.316C355.212 823.748 326.219 857.833 323.609 910.762L323.613 910.768Z" fill="#CCFF99"/>
<path d="M323.579 910.768H323.56C325.817 858.315 353.96 824.584 369.364 783.941C375.514 767.714 381.038 747.769 378.754 727.587C375.775 701.269 363.548 677.227 354.082 657.494C341.592 631.461 328.094 607.045 315.456 581.25C304.992 559.899 291.418 534.471 287.916 505.693C282.84 463.983 316.074 442.999 332.191 429.701C347.962 416.688 382.426 394.855 376.307 353.566C371.758 322.872 355.106 296.064 343.254 274.211C325.415 241.321 306.472 210.423 288.675 177.466C276.857 155.585 260.274 128.988 256.078 98.4567C253.031 76.2903 262.273 63.5016 272.623 56.0539C287.055 45.6707 302.868 42.5652 317.926 36.1504C332.009 30.1434 349.48 22.9539 351.881 -6.59889H353.604C351.149 23.0694 333.549 30.354 319.405 36.4494C304.256 42.9797 288.349 46.2007 273.829 56.6995C263.472 64.1879 254.097 77.0106 257.14 99.2585C261.302 129.695 277.839 156.21 289.616 178.009C307.356 210.844 326.238 241.62 344.017 274.387C355.831 296.16 372.433 322.886 376.948 353.485C383.029 394.719 349.074 417.191 333.295 430.666C317.159 444.454 284.475 466.015 289.468 507.677C292.886 536.19 306.324 561.374 316.689 582.5C329.198 607.99 342.567 632.099 354.924 657.833C364.303 677.356 376.401 701.174 379.308 727.261C381.561 747.491 375.976 767.435 369.789 783.649C354.268 824.332 325.901 858.159 323.571 910.768H323.579Z" fill="#CCFF99"/>
<path d="M323.359 910.768H323.237C325.199 859.029 352.295 825.725 367.171 785.279C373.165 768.984 378.405 749.081 375.992 729.089C372.691 701.711 359.883 676.643 350.026 655.992C336.945 628.586 322.854 602.791 309.621 575.624C298.713 553.233 284.528 526.724 280.654 496.757C275.222 454.735 310.96 436.551 326.967 425.366C342.662 414.391 379.459 395.568 373.165 353.947C368.461 322.831 351.589 295.657 339.559 273.429C321.454 239.983 302.246 208.514 284.179 174.999C272.186 152.751 255.379 125.794 251.032 94.8415C247.97 73.049 256.616 60.3893 266.939 53.1251C280.981 43.2515 296.361 40.6829 311.002 34.7914C324.835 29.226 341.714 22.4579 343.891 -6.59889H345.747C343.52 22.5666 326.504 29.4299 312.614 35.0971C297.883 41.1042 282.4 43.7951 268.271 53.7911C257.94 61.096 249.161 73.7829 252.219 95.657C256.533 126.514 273.29 153.39 285.241 175.556C303.247 208.948 322.395 240.282 340.439 273.606C352.431 295.752 369.254 322.845 373.92 353.865C380.173 395.398 343.91 414.928 328.192 426.351C312.155 438.005 276.99 456.855 282.343 498.789C286.133 528.484 300.182 554.748 310.987 576.908C324.083 603.763 338.041 629.239 350.99 656.331C360.759 676.779 373.435 701.615 376.663 728.756C379.046 748.795 373.746 768.706 367.717 784.987C352.724 825.474 325.385 858.873 323.359 910.775V910.768Z" fill="#CCFF99"/>
<path d="M322.581 910.768H322.251C323.977 859.695 350.079 826.785 364.466 786.516C370.305 770.173 375.294 750.297 372.79 730.489C369.212 702.159 355.857 676.147 345.648 654.667C332.013 625.984 317.406 598.836 303.581 570.452C292.26 547.206 277.506 519.569 273.317 488.582C267.581 446.125 305.641 430.768 321.496 421.411C337.074 412.217 376.06 396.363 369.603 354.314C364.765 322.818 347.685 295.297 335.495 272.743C317.141 238.773 297.682 206.781 279.368 172.743C263.836 143.87 224.159 75.8283 261.07 50.4478C274.744 41.0431 289.726 38.9841 303.976 33.575C317.596 28.4038 333.902 22.0026 335.898 -6.59889H337.889C335.856 22.1045 319.409 28.594 305.74 33.8604C291.399 39.3782 276.318 41.5663 262.558 51.0797C225.612 76.6233 264.94 144.162 280.605 173.273C298.858 207.188 318.26 239.052 336.554 272.899C348.706 295.378 365.737 322.818 370.544 354.225C376.959 396.159 338.496 412.74 322.888 422.348C306.996 432.134 269.485 448.191 275.153 490.526C279.266 521.261 293.884 548.66 305.11 571.682C318.802 599.761 333.276 626.595 346.779 654.973C356.904 676.262 370.126 702.044 373.643 730.149C376.128 750.005 371.082 769.881 365.206 786.217C350.701 826.527 324.357 859.532 322.581 910.762V910.768Z" fill="#CCFF99"/>
<path d="M320.874 910.768H320.202C321.788 860.273 346.964 827.723 360.934 787.576C366.628 771.213 371.424 751.344 368.878 731.712C365.103 702.601 351.244 675.759 340.754 653.613C326.629 623.789 311.529 595.507 297.211 565.981C285.571 541.973 270.278 513.46 265.854 481.583C259.887 438.576 299.905 425.902 315.638 418.04C331.121 410.307 371.974 397.233 365.372 354.626C360.444 322.811 343.159 294.998 330.844 272.172C312.269 237.74 292.586 205.279 274.053 170.772C258.999 142.749 218.101 72.8927 254.901 48.117C268.252 39.1336 282.878 37.5163 296.782 32.5421C310.258 27.731 326.018 21.6152 327.904 -6.59889H330.032C328.124 21.7104 312.224 27.8941 298.721 32.7935C284.733 37.8764 270.016 39.6024 256.586 48.6946C219.758 73.6198 260.365 143.027 275.533 171.262C294.013 205.653 313.639 237.992 332.157 272.308C344.441 295.072 361.673 322.811 366.583 354.552C373.146 396.995 332.752 410.783 317.247 418.869C301.483 427.092 261.943 440.458 267.858 483.309C272.228 514.969 287.381 543.264 298.945 567.089C313.138 596.329 328.116 624.326 342.116 653.865C352.538 675.848 366.268 702.485 370.001 731.406C372.539 751.079 367.698 770.948 361.969 787.311C347.898 827.492 322.482 860.123 320.87 910.768H320.874Z" fill="#CCFF99"/>
<path d="M317.865 910.768H316.704C318.279 860.741 342.632 828.491 356.282 788.405C361.844 772.069 366.537 752.166 364.007 732.711C360.148 703.056 345.834 675.528 335.165 652.954C320.635 622.192 305.125 592.958 290.401 562.495C278.549 537.971 262.77 508.751 258.24 476.229C252.151 432.541 293.561 422.233 309.272 415.499C324.751 408.867 366.97 398.198 360.251 354.898C355.281 322.858 337.806 294.794 325.415 271.798C306.658 236.979 286.793 204.137 268.078 169.25C253.369 141.838 211.594 70.6163 248.346 46.3162C261.431 37.6658 275.764 36.4222 289.381 31.8082C302.777 27.2689 318.044 21.3366 319.91 -6.59889H322.175C320.312 21.4046 304.913 27.3777 291.505 31.9849C277.813 36.6941 263.404 38.0327 250.25 46.7715C213.495 71.1871 255.057 142.076 269.85 169.638C288.519 204.423 308.335 237.169 327.046 271.887C339.422 294.848 356.84 322.845 361.806 354.83C368.495 397.913 326.603 409.213 311.135 416.124C295.432 423.137 254.348 434.07 260.414 477.554C264.929 509.92 280.575 538.963 292.382 563.372C306.999 593.59 322.403 622.579 336.827 653.097C347.454 675.576 361.647 702.927 365.494 732.453C368.036 751.948 363.324 771.845 357.724 788.195C343.998 828.294 319.421 860.619 317.858 910.768H317.865Z" fill="#CCFF99"/>
<path d="M313.183 910.768H311.362C313.081 861.061 336.747 829.028 350.197 788.935C355.649 772.688 360.342 752.696 357.902 733.418C354.12 703.525 339.392 675.494 328.682 652.778C313.851 621.329 298.046 591.402 283.022 560.246C271.098 535.518 254.89 505.788 250.409 472.94C244.339 428.451 286.376 419.997 302.23 414.004C317.865 408.085 360.763 399.272 353.968 355.116C349.021 322.967 331.379 294.726 318.969 271.662C300.076 236.565 280.082 203.437 261.23 168.272C246.699 141.165 204.473 69.1892 241.274 45.1542C260.862 32.3654 308.445 42.4769 311.916 -6.59889H314.318C312.394 21.2143 297.439 27.0923 284.035 31.4956C270.57 35.9194 256.396 36.9523 243.455 45.426C206.685 69.5154 248.82 141.335 263.385 168.496C282.202 203.594 302.162 236.646 321.022 271.669C333.435 294.726 351.028 322.919 355.99 355.048C362.766 398.925 319.99 408.235 304.423 414.323C288.637 420.5 246.695 429.443 252.788 473.68C257.303 506.468 273.385 536.068 285.306 560.776C300.25 591.749 315.98 621.499 330.734 652.771C341.448 675.481 356.055 703.376 359.879 733.234C362.356 752.567 357.675 772.525 352.192 788.806C338.698 828.885 314.841 860.972 313.183 910.762V910.768Z" fill="#CCFF99"/>
<path d="M306.461 910.768H303.926C305.8 861.115 329.137 829.347 342.563 789.214C347.973 773.034 352.704 752.961 350.383 733.751C346.775 703.906 331.785 675.623 321.135 653.043C306.168 621.309 290.226 591.097 275.066 559.655C263.187 535.022 246.703 505.061 242.393 472.206C236.516 427.411 278.45 419.542 294.449 413.65C310.33 407.807 353.137 399.577 346.357 354.871C341.467 322.648 323.791 294.379 311.336 271.357C292.419 236.388 272.384 203.431 253.509 168.387C238.819 141.111 196.809 69.4407 233.663 45.195C253.357 32.2363 299.999 42.2254 303.926 -6.59889H306.461C302.716 42.6739 255.835 31.9713 236.095 44.8077C199.195 68.8019 241.437 140.859 255.967 167.973C274.876 203.261 294.931 236.503 313.881 271.724C326.269 294.746 344.016 323.069 348.899 355.211C355.713 400.053 312.849 408.031 296.98 413.691C280.886 419.433 238.99 427.003 244.935 472.117C249.264 504.966 265.733 534.92 277.608 559.566C292.761 591.015 308.691 621.247 323.655 652.995C334.3 675.589 349.279 703.865 352.906 733.703C355.235 752.873 350.47 772.946 345.079 789.098C331.679 829.245 308.388 861.176 306.468 910.768H306.461Z" fill="#CCFF99"/>
<path d="M298.603 910.768H295.932C297.719 861.034 321.238 829.999 334.778 790.077C340.261 773.904 344.919 753.872 342.613 734.614C339.035 704.769 323.996 676.493 313.328 653.967C298.326 622.287 282.343 592.157 267.148 560.783C255.25 536.218 238.709 506.271 234.433 473.415C228.701 429.348 270.745 419.719 286.603 413.039C302.545 406.325 345.295 396.438 338.572 352.105C333.708 320.038 316.238 292.368 303.683 269.773C284.923 236.007 264.993 204.402 246.274 170.555C230.954 142.857 190.196 73.8848 226.504 48.1034C246.118 34.1594 291.642 41.3285 295.932 -6.59889H298.603C294.404 41.5391 248.448 33.344 228.818 46.853C192.26 72.0093 233.526 142.117 248.611 169.685C267.387 204.001 287.366 236.13 306.184 270.365C318.719 293.17 336.262 321.105 341.141 353.295C347.875 397.743 305.125 406.937 289.21 413.311C273.328 419.678 231.318 428.587 237.089 472.851C241.372 505.707 257.895 535.667 269.785 560.259C284.964 591.661 300.933 621.825 315.923 653.525C326.584 676.072 341.604 704.354 345.189 734.206C347.499 753.457 342.821 773.517 337.366 789.703C323.867 829.728 300.417 861.034 298.611 910.768H298.603Z" fill="#CCFF99"/>
<path d="M290.746 910.768H287.939C289.699 861.115 313.457 831.066 327.156 791.599C332.73 775.549 337.362 755.631 335.059 736.387C331.485 706.563 316.382 678.335 305.687 655.903C290.633 624.319 274.592 594.29 259.344 563.012C247.42 538.548 230.799 508.656 226.527 475.828C220.84 432.12 263.005 419.678 278.906 411.775C294.927 403.811 337.783 391.138 331.072 347.077C326.295 315.716 309.014 289.174 296.502 267.606C277.949 235.627 258.21 205.938 239.699 173.878C223.549 145.902 184.794 81.4752 219.979 53.2542C239.585 37.5095 283.557 41.111 287.939 -6.59889H290.746C286.368 41.1178 241.812 36.1912 222.198 51.202C186.558 78.4852 226.098 144.685 241.934 172.58C260.524 205.327 280.336 235.749 298.968 268.414C311.51 290.404 328.856 317.395 333.671 349.061C340.382 393.21 297.579 404.789 281.588 412.278C265.718 419.705 223.598 431.06 229.293 474.849C233.565 507.691 250.155 537.611 262.068 562.108C277.297 593.427 293.315 623.497 308.35 655.115C319.034 677.587 334.115 705.829 337.688 735.667C339.991 754.918 335.355 774.889 329.816 790.994C316.177 830.652 292.511 861.068 290.746 910.768Z" fill="#CCFF99"/>
<path d="M282.889 910.768H279.945C281.732 861.332 305.766 832.466 319.663 793.665C325.335 777.825 329.983 758.084 327.672 738.922C324.083 709.138 308.896 680.998 298.167 658.669C283.045 627.2 266.936 597.301 251.62 566.137C239.654 541.796 222.949 512.006 218.654 479.212C212.933 435.525 255.266 419.46 271.321 409.988C287.411 400.488 330.544 384.125 323.791 340.227C319.14 310.002 302.048 285.042 289.684 264.962C271.382 235.233 251.904 207.922 233.644 178.105C216.454 150.04 180.4 91.4235 213.954 60.1922C233.549 41.9468 275.7 41.4304 279.945 -6.59889H282.889C278.572 41.2605 235.727 40.2072 216.12 57.4469C181.91 87.5298 219.038 148.389 235.818 176.446C254.173 207.134 273.753 235.369 292.154 265.975C304.583 286.653 321.746 312.237 326.447 342.925C333.181 386.87 290.17 401.786 274.102 410.694C258.115 419.556 215.851 434.206 221.549 477.866C225.833 510.674 242.507 540.505 254.454 564.894C269.743 596.105 285.826 626.052 300.922 657.568C311.636 679.938 326.792 708.112 330.374 737.916C332.68 757.113 328.044 776.928 322.41 792.856C308.589 831.929 284.665 861.244 282.889 910.775V910.768Z" fill="#CCFF99"/>
<path d="M275.032 910.768H271.951C273.803 861.638 298.152 834.111 312.265 796.125C318.047 780.564 322.737 761.054 320.415 742C316.791 712.264 301.517 684.24 290.746 662.04C275.544 630.706 259.359 600.957 243.964 569.929C231.952 545.724 215.149 516.063 210.82 483.33C205.004 439.384 247.564 419.134 263.832 407.813C279.96 396.587 323.522 375.841 316.685 332.018C312.193 303.227 295.272 280.211 283.158 261.972C265.137 234.839 245.974 210.253 227.995 183.031C215.896 164.711 199.101 141.858 194.927 113.155C192.029 93.2039 199.434 78.2134 208.324 68.4825C227.817 47.1588 268.009 42.1371 271.951 -6.59889H275.032C270.953 41.8245 230.002 45.0727 210.456 65.1528C201.385 74.4692 193.933 89.0451 196.832 109.098C201.062 138.372 217.93 162.006 230.131 181.06C248.22 209.315 267.512 234.988 285.643 263.155C297.864 282.134 314.849 305.938 319.405 335.314C326.204 379.157 282.825 398.15 266.708 408.69C250.527 419.277 208.062 437.855 213.836 481.672C218.15 514.432 234.915 544.148 246.908 568.4C262.273 599.482 278.427 629.286 293.599 660.674C304.351 682.922 319.591 710.993 323.203 740.75C325.521 759.851 320.851 779.449 315.111 795.133C301.085 833.451 276.857 861.509 275.036 910.762L275.032 910.768Z" fill="#CCFF99"/>
<path d="M267.175 910.768H263.957C265.896 861.998 290.587 835.918 304.935 798.863C310.835 783.628 315.585 764.377 313.244 745.466C309.575 715.797 294.202 687.896 283.39 665.838C268.1 634.654 251.832 605.061 236.349 574.19C224.288 550.141 207.383 520.622 203.001 487.957C197.04 443.55 239.908 418.733 256.396 405.387C272.513 392.34 316.655 366.729 309.689 322.899C305.36 295.677 288.595 274.999 276.819 258.758C259.135 234.376 240.291 212.835 222.611 188.44C210.828 172.179 194.199 151.514 190.192 124.415C187.279 104.722 194.574 88.5083 202.951 77.7106C222.213 52.8669 260.425 43.0952 263.961 -6.59889H267.178C263.468 42.6875 224.467 50.5225 205.095 73.912C196.506 84.2816 189.164 99.9856 192.07 119.78C196.145 147.539 212.838 169.114 224.759 186.225C242.56 211.775 261.514 234.614 279.357 260.07C291.285 277.085 308.107 298.81 312.501 326.65C319.409 370.473 275.517 394.08 259.39 406.393C242.988 418.91 200.254 441.858 206.153 486.061C210.516 518.754 227.38 548.334 239.418 572.443C254.863 603.376 271.101 633.03 286.353 664.282C297.147 686.401 312.482 714.35 316.131 744.045C318.465 763.018 313.741 782.371 307.887 797.742C293.633 835.184 269.083 861.856 267.182 910.775L267.175 910.768Z" fill="#CCFF99"/>
<path d="M259.318 910.768H255.968C258.012 862.386 283.056 837.8 297.644 801.738C303.665 786.856 308.483 767.89 306.123 749.122C302.401 719.514 286.933 691.762 276.071 669.847C260.691 638.813 244.335 609.396 228.765 578.675C216.651 554.782 199.643 525.427 195.2 492.83C189.066 447.831 232.32 418.271 249.002 402.819C265.24 387.781 309.663 357.412 302.762 313.297C298.774 287.815 281.876 269.345 270.582 255.415C253.206 233.982 234.748 215.526 217.372 194.087C205.96 180.007 189.479 161.701 185.64 136.259C182.7 116.784 189.897 99.2245 197.716 87.3939C216.587 58.84 252.891 44.2029 255.968 -6.59889H259.318C256.047 43.7272 218.954 56.3189 199.905 83.3031C191.85 94.7124 184.615 111.694 187.541 131.251C191.452 157.386 207.99 176.698 219.565 191.702C237.066 214.385 255.691 234.145 273.196 256.821C284.649 271.662 301.62 291.165 305.668 317.347C312.482 361.435 268.385 389.622 252.105 403.899C235.499 418.468 192.416 446.023 198.475 490.764C202.891 523.388 219.857 552.812 231.948 576.772C247.481 607.555 263.802 637.046 279.145 668.142C289.984 690.118 305.414 717.931 309.113 747.565C311.461 766.395 306.677 785.476 300.705 800.515C286.216 836.999 261.321 862.216 259.321 910.762L259.318 910.768Z" fill="#CCFF99"/>
<path d="M251.46 910.768H247.974C250.121 862.76 275.525 839.676 290.352 804.619C296.494 790.097 301.384 771.417 299.005 752.791C295.234 723.252 279.664 695.636 268.76 673.87C253.293 642.992 236.846 613.739 221.185 583.18C209.022 559.444 191.903 530.244 187.404 497.722C181.087 452.071 224.781 417.768 241.611 400.243C255.383 385.905 269.815 371.866 281.986 353.254C289.938 341.09 298.842 323.946 295.838 303.668C292.317 279.919 275.024 263.603 264.356 252.065C247.279 233.595 229.22 218.224 212.144 199.748C201.138 187.835 184.786 171.968 181.102 148.144C178.116 128.845 185.234 109.886 192.491 97.118C210.816 64.8538 245.348 45.3377 247.974 -6.59889H251.46C248.645 44.8416 213.354 62.2376 194.775 92.8913C187.275 105.266 180.127 123.613 183.09 142.98C186.842 167.497 203.243 184.431 214.432 197.281C231.637 217.042 249.871 233.758 267.076 253.512C278.147 266.219 294.946 283.276 298.861 307.841C302.048 327.853 293.011 344.862 285.089 356.556C272.934 374.496 258.547 387.767 244.836 401.358C228.063 417.986 184.566 450.23 190.803 495.595C195.28 528.152 212.349 557.419 224.489 581.223C240.113 611.849 256.517 641.178 271.947 672.124C282.832 693.957 298.361 721.635 302.109 751.201C304.48 769.888 299.62 788.691 293.531 803.369C278.807 838.86 253.562 862.596 251.456 910.768H251.46Z" fill="#CCFF99"/>
<path d="M243.603 910.768H239.98C242.222 863.086 267.975 841.47 283.026 807.378C289.286 793.196 294.237 774.787 291.843 756.284C288.026 726.806 272.357 699.325 261.408 677.696C245.853 646.968 229.323 617.877 213.574 587.468C201.362 563.881 184.141 534.838 179.585 502.377C176.588 481.012 185.355 463.08 193.535 449.618C205.767 429.49 220.274 413.786 234.183 397.777C248.08 381.78 262.611 366.042 274.831 345.935C282.491 333.33 291.991 314.806 288.853 294.44C285.416 272.118 268.305 258.357 258.031 248.803C241.24 233.187 223.575 220.793 206.783 205.177C196.111 195.249 180.07 181.896 176.394 159.485C173.272 140.424 180.473 119.855 187.135 106.4C204.829 70.691 237.753 46.4249 239.98 -6.59889H243.603C241.205 45.9493 207.572 68.0816 189.589 102.276C182.681 115.411 175.48 135.308 178.564 154.45C182.275 177.493 198.399 191.94 209.242 202.765C226.159 219.658 243.998 233.384 260.919 250.271C271.371 260.702 288.561 275.61 292.032 298.551C295.105 318.876 285.875 336.782 278.082 349.197C265.885 368.638 251.396 383.615 237.556 398.877C223.704 414.146 209.238 429.089 197.029 448.558C188.796 461.68 180.177 479.13 183.132 500.318C187.666 532.806 204.837 561.917 217.031 585.572C232.741 616.049 249.23 645.214 264.747 676.004C275.677 697.695 291.3 725.236 295.098 754.741C297.488 773.299 292.564 791.83 286.353 806.161C271.401 840.682 245.804 862.957 243.603 910.775V910.768Z" fill="#CCFF99"/>
<path d="M235.746 910.768H231.986C234.3 863.337 260.38 843.101 275.643 809.885C282.016 796.009 287.013 777.832 284.6 759.43C280.745 730.006 264.989 702.642 253.998 681.141C238.36 650.549 221.754 621.607 205.926 591.341C193.668 567.897 176.348 538.983 171.754 506.583C168.673 484.879 177.737 465.981 185.803 451.874C198.088 430.38 212.683 413.12 226.701 395.575C240.708 378.043 255.326 360.749 267.6 339.276C275.009 326.317 285.036 306.529 281.766 286.102C278.378 264.935 261.461 253.587 251.536 245.793C235.002 232.814 217.713 223.178 201.18 210.192C190.841 202.072 174.994 191.002 171.375 169.767C168.154 150.869 175.389 128.893 181.546 114.847C198.558 76.0797 230.047 47.3763 231.986 -6.59889H235.746C233.686 46.955 201.544 73.6198 184.221 111.021C177.817 124.85 170.646 146.099 173.795 165.112C177.396 186.857 193.398 199 203.862 207.916C220.513 222.104 237.973 233.004 254.624 247.186C264.705 255.768 281.713 268.224 285.12 289.901C288.326 310.301 278.537 329.511 271.014 342.32C258.767 363.168 244.187 379.755 230.23 396.581C216.26 413.419 201.707 429.973 189.445 450.841C181.326 464.663 172.395 483.132 175.442 504.687C180.021 537.114 197.291 566.09 209.53 589.595C225.32 619.929 241.892 648.938 257.493 679.592C268.465 701.147 284.179 728.566 288.018 758.016C290.424 776.466 285.446 794.745 279.125 808.757C263.961 842.367 238.03 863.242 235.746 910.775V910.768Z" fill="#CCFF99"/>
<path d="M227.889 910.768H223.992C226.341 863.48 252.716 844.494 268.161 812.005C274.641 798.374 279.653 780.38 277.232 762.039C273.359 732.656 257.519 705.38 246.494 683.995C230.787 653.525 214.113 624.713 198.213 594.569C185.917 571.254 168.51 542.442 163.889 510.083C160.756 488.127 170.058 468.516 178.018 453.906C190.367 431.243 205.027 412.618 219.132 393.733C233.231 374.863 247.909 356.203 260.247 333.568C267.463 320.33 277.908 299.537 274.512 279.062C271.136 258.697 254.442 249.448 244.764 243.108C228.454 232.426 211.499 225.23 195.185 214.541C185.059 207.902 169.512 198.837 165.858 178.417C162.512 159.71 169.872 136.415 175.586 122.002C191.949 80.7413 222.19 48.083 223.996 -6.59889H227.893C226.045 47.7772 195.219 78.5804 178.557 118.707C172.642 132.95 165.339 155.646 168.632 174.442C172.27 195.215 187.958 205.197 198.175 212.516C214.591 224.279 231.702 232.61 248.114 244.366C257.895 251.372 274.702 261.592 278.078 282.297C281.417 302.744 271.155 323.089 263.855 336.204C251.548 358.303 236.899 376.324 222.839 394.576C208.771 412.835 194.142 430.829 181.823 452.948C173.81 467.333 164.618 486.639 167.729 508.486C172.342 540.865 189.703 569.718 201.984 593.101C217.85 623.306 234.494 652.179 250.167 682.704C261.177 704.143 276.974 731.46 280.84 760.857C283.257 779.225 278.249 797.3 271.818 811.04C256.461 843.862 230.222 863.432 227.885 910.775L227.889 910.768Z" fill="#CCFF99"/>
<path d="M220.032 910.768H216.002C218.336 863.473 244.958 845.574 260.562 813.609C267.137 800.141 272.122 782.256 269.705 763.929C265.832 734.566 249.924 707.351 238.872 686.054C223.108 655.679 206.377 626.976 190.424 596.927C178.097 573.707 160.611 544.97 155.99 512.631C152.838 490.56 162.307 470.554 170.164 455.639C182.582 432.073 197.283 412.359 211.453 392.388C225.616 372.437 240.337 352.69 252.743 329.137C259.837 315.669 270.536 294.304 267.046 273.755C263.65 253.757 247.222 246.119 237.639 240.859C221.507 232.005 204.822 226.834 188.69 217.973C178.651 212.462 163.369 204.885 159.697 184.845C156.29 166.247 163.741 142.083 169.14 127.391C184.945 84.37 214.124 48.4364 216.002 -6.59889H220.032C218.222 48.314 188.531 82.6915 172.463 124.924C166.924 139.48 159.515 163.277 162.903 181.917C166.568 202.085 181.979 210.342 192.044 216.369C208.259 226.086 225.07 232.222 241.289 241.933C250.895 247.689 267.463 256.067 270.847 276.188C274.296 296.696 263.699 317.837 256.555 331.189C244.184 354.314 229.482 373.551 215.35 392.993C201.21 412.448 186.524 431.651 174.144 454.803C166.234 469.59 156.836 489.445 159.989 511.476C164.614 543.822 182.062 572.593 194.373 595.86C210.3 625.957 227.009 654.708 242.742 685.13C253.778 706.467 269.656 733.71 273.533 763.079C275.954 781.413 270.95 799.339 264.42 812.875C248.892 845.071 222.384 863.494 220.039 910.768H220.032Z" fill="#CCFF99"/>
<path d="M212.174 910.768H208.009C210.266 863.296 237.07 846.267 252.8 814.567C259.458 801.153 264.371 783.288 261.966 764.921C258.122 735.558 242.158 708.356 231.091 687.128C215.293 656.814 198.513 628.199 182.521 598.218C170.176 575.073 152.629 546.356 148.038 514.017C144.912 491.987 154.465 472.022 162.224 457.025C174.713 432.881 189.426 412.414 203.631 391.695C217.827 370.983 232.555 350.488 245.037 326.365C252.113 312.686 262.838 291.355 259.302 270.691C255.861 250.556 239.775 243.836 230.051 239.208C214.049 231.597 197.549 227.935 181.546 220.324C171.42 215.506 156.362 208.717 152.705 188.563C149.325 169.937 156.833 145.569 162.065 130.639C177.479 86.6396 205.797 48.3072 208.009 -6.59889H212.174C210.175 48.4431 181.432 85.6475 165.836 129.246C160.539 144.053 153.054 168.408 156.461 187C160.13 207.025 175.305 214.126 185.359 219.25C201.423 227.432 218.006 231.815 234.069 239.989C243.69 244.889 259.963 251.99 263.377 271.989C266.894 292.585 256.153 314.018 249.082 327.588C236.641 351.46 221.913 371.608 207.728 391.973C193.539 412.346 178.826 432.467 166.374 456.359C158.567 471.343 149.04 491.382 152.189 513.46C156.799 545.792 174.319 574.523 186.653 597.695C202.625 627.71 219.383 656.366 235.166 686.707C246.225 707.969 262.163 735.171 266.025 764.527C268.438 782.867 263.483 800.732 256.863 814.159C241.194 845.962 214.474 863.419 212.171 910.768H212.174Z" fill="#CCFF99"/>
<path d="M204.317 910.768H200.015C198.767 863.629 228.071 843.4 243.508 813.758C250.432 800.46 256.134 782.806 253.6 763.983C249.624 734.484 233.929 707.554 222.737 686.224C207.064 656.359 190.394 628.233 174.524 598.707C162.068 575.535 144.787 547.063 140.079 514.656C136.854 492.456 146.278 472.668 154.128 457.507C166.655 433.302 181.41 412.774 195.652 391.994C209.887 371.227 224.66 350.671 237.176 326.48C244.275 312.76 254.924 291.559 251.377 270.854C247.894 250.522 231.679 243.761 221.853 239.113C205.763 231.502 189.172 227.887 173.074 220.31C163.15 215.642 147.898 208.989 144.601 188.848C141.558 170.242 150.004 145.582 155.262 131.047C170.582 88.6918 199.818 47.451 200.015 -6.59889H204.317C201.889 48.049 173.871 87.1628 158.566 131.244C153.24 146.588 146.001 170.14 149.142 189.154C152.508 209.533 167.922 216.328 177.98 220.915C193.945 228.2 210.399 231.38 226.36 238.658C236.235 243.156 252.143 249.747 255.615 270.127C259.147 290.873 248.497 311.945 241.395 325.719C228.883 349.978 214.159 370.684 199.958 391.613C185.75 412.55 171.041 433.228 158.521 457.507C150.808 472.464 141.247 492.238 144.351 514.194C148.919 546.546 166.488 575.27 178.837 598.395C194.84 628.348 211.628 656.936 227.434 687.223C238.508 708.438 254.484 735.646 258.308 765.022C260.706 783.438 255.831 801.323 249.135 814.751C233.36 846.39 206.457 863.167 204.317 910.775V910.768Z" fill="#CCFF99"/>
<path d="M196.46 910.768H192.021C183.788 865.586 216.249 837.794 231.041 810.884C238.007 798.211 245.473 781.053 243.804 762.06C240.906 729.103 222.001 698.952 209.769 676.466C194.612 648.592 178.575 622.287 163.498 594.277C152.28 573.436 139.168 550.386 133.155 522.797C127.521 496.947 136.801 475.964 146.449 457.868C158.942 434.424 173.545 414.649 187.688 394.59C201.821 374.537 216.439 354.735 228.928 331.312C236.694 316.743 249.047 292.252 242.605 270.405C237.419 252.819 222.448 246.214 212.789 241.301C197.666 233.609 182.123 228.954 166.951 221.608C156.586 216.593 137.586 209.247 135.7 185.831C134.145 166.519 144.07 142.85 149.814 128.356C165.103 89.7791 196.058 45.2154 192.021 -6.59889H196.46C198.148 46.4793 168.241 89.1403 152.906 129.735C147.507 144.033 138.277 168.38 140.629 187.333C143.345 209.234 160.433 215.941 170.578 220.772C186.675 228.437 203.251 232.494 219.299 240.519C228.598 245.167 243.224 252.126 247.45 269.943C252.06 289.371 242.469 310.341 235.712 323.952C222.847 349.863 207.113 371.166 192.108 392.864C177.103 414.561 161.37 435.864 148.505 461.775C140.652 477.588 132.98 496.404 137.044 518.489C142.158 546.288 155.467 569.8 166.45 590.668C183.902 623.83 202.803 654.456 220.134 687.814C231.057 708.839 246.209 734.471 249.51 763.84C251.631 782.718 245.068 800.032 238.106 812.936C222.987 840.953 192.18 864.54 196.46 910.755V910.768Z" fill="#CCFF99"/>
<path d="M188.603 910.768H184.027C168.59 867.768 202.174 832.663 216.761 806.127C224.911 791.307 234.695 771.369 231.421 748.931C227.422 721.526 214.09 698.449 203.418 678.81C187.374 649.292 169.971 622.26 153.794 592.979C143.046 573.524 130.818 552.044 124.93 526.201C119.235 501.215 127.183 481.305 136.668 463.453C149.541 439.228 164.952 419.406 179.744 399.197C194.536 378.988 209.947 359.159 222.82 334.94C230.066 321.302 240.595 299.72 235.64 279.368C230.882 259.818 215.073 251.84 204.848 245.942C188.77 236.673 172.164 230.707 156.059 221.595C146.855 216.383 129.156 208.636 126.918 188.066C124.793 168.523 136.956 142.932 142.894 128.791C152.481 105.959 163.419 85.0087 172.684 61.7348C180.814 41.3081 188.322 18.9311 184.031 -6.59889H188.607C191.683 20.1135 183.758 42.8166 175.271 63.8006C166.488 85.5184 156.396 105.408 147.519 126.997C141.467 141.709 128.522 170.541 132.483 190.703C136.19 209.574 152.2 216.247 161.408 221.065C176.569 229.001 192.139 234.139 207.314 241.974C217.892 247.437 236.042 255.238 240.348 276.596C244.271 296.044 234.327 317.048 227.676 329.966C214.8 354.987 199.211 375.461 184.297 396.336C169.383 417.211 153.794 437.686 140.917 462.706C133.041 478.016 124.99 496.581 128.534 518.421C133.542 549.271 149.321 575.42 161.476 597.518C176.33 624.529 192.051 649.964 206.84 677.098C218.336 698.191 232.457 722.341 237.802 751.106C242.04 773.897 233.777 793.407 225.225 808.9C210.532 835.524 177.27 866.415 188.614 910.768H188.603Z" fill="#CCFF99"/>
<path d="M180.746 910.768H176.037C152.747 868.189 189.043 824.325 204.241 794.066C211.958 778.702 221.477 758.479 218.18 736.292C213.874 707.33 198.865 683.295 187.267 663.372C172.316 637.685 156.351 613.949 141.619 587.848C131.869 570.568 120.976 551.371 115.972 528.036C110.915 504.47 118.457 485.586 127.441 468.998C140.61 444.692 156.575 425.25 171.819 405.449C187.063 385.647 203.027 366.206 216.196 341.892C223.712 328.016 233.762 306.618 227.836 286.204C222.832 268.958 208.555 260.002 199.131 253.628C182.373 242.279 164.925 234.642 148.016 224.095C138.872 218.394 119.41 208.989 117.664 187.801C116.014 167.748 130.332 140.948 136.657 126.99C147.185 103.757 158.897 82.046 168.362 57.3246C175.821 37.8425 182.237 16.3421 176.037 -6.59889H180.746C185.856 17.8982 178.765 39.9354 170.923 59.9272C161.211 84.6894 149.48 106.652 139.21 130.639C133.667 143.591 122.247 167.225 123.033 185.552C123.981 207.732 142.697 216.586 152.124 222.159C169.151 232.222 186.748 238.957 203.676 249.612C213.032 255.496 227.597 263.963 232.343 281.359C238.129 302.574 226.88 325.155 219.216 339.181C206.366 362.686 191.145 381.95 176.493 401.596C161.841 421.241 146.616 440.506 133.769 464.011C124.52 480.931 115.874 500.739 120.923 525.257C126.019 549.992 137.575 570.473 147.739 588.874C163.256 616.966 180.059 642.646 195.72 670.473C207.197 690.865 223.647 717.36 226.591 747.531C228.45 766.586 220.513 784.219 213.878 797.341C199.233 826.282 161.526 866.619 180.753 910.762L180.746 910.768Z" fill="#CCFF99"/>
<path d="M172.888 910.768H168.044C122.099 848.408 215.528 787.42 203.49 719.059C199.89 698.619 190.557 681.63 182.191 666.966C171.5 648.231 159.864 631.277 148.52 613.847C138.736 598.816 128.883 583.662 120.267 566.436C113.506 552.92 105.209 535.144 105.364 515.798C105.497 499.414 112.395 485.681 118.518 474.74C128.545 456.814 140.352 442.082 151.942 427.622C173.731 400.434 202.496 374.041 217.687 333.54C231.751 296.037 208.498 274.367 191.517 261.415C167.687 243.238 140.132 234.309 118.222 208.942C107.895 196.982 106.408 185.423 112.539 166.926C119.227 146.751 128.329 129.144 136.979 111.667C150.322 84.7165 183.436 33.1605 168.044 -6.59889H172.888C179.763 15.2888 173.837 36.4086 166.61 55.6122C157.318 80.2928 145.622 101.834 134.972 124.585C128.291 138.862 113.552 164.915 113.901 185.416C114.265 206.733 132.434 216.899 141.274 222.933C158.013 234.363 175.377 242.551 192.146 253.831C202.891 261.062 220.18 270.99 225.415 291.641C230.636 312.237 220.324 333.119 212.774 346.621C199.601 370.181 183.823 389.038 168.704 408.262C153.585 427.486 137.806 446.343 124.634 469.902C115.866 485.586 107.645 504.307 112.099 527.418C117.103 553.403 130.032 574.57 140.856 592.924C155.304 617.415 170.768 639.907 185.12 664.588C195.819 682.989 210.255 706.392 213.13 733.927C215.418 755.862 205.129 776.568 197.663 791.646C187.89 811.387 176.265 829.102 168.313 851.527C160.221 874.339 161.787 892.897 172.9 910.775L172.888 910.768Z" fill="#CCFF99"/>
<path d="M165.031 910.768H160.05C149.765 899.624 140.61 885.823 142.177 862.433C143.645 840.532 152.238 821.24 159.542 804.327C170.718 778.43 195.284 739.33 188.675 702.295C181.584 662.563 154.405 633.866 137.241 609.39C123.23 589.411 96.8851 558.173 96.464 521.526C96.2743 505.014 103.559 491.11 109.781 480.51C120.21 462.747 132.483 448.497 144.487 434.424C166.261 408.901 194.969 384.641 210.338 345.65C224.971 308.527 201.491 285.301 184.866 270.895C160.001 249.347 130.727 238.06 108.043 209.227C97.4466 195.759 97.1772 183.704 104.31 165.336C112.304 144.76 122.282 126.671 131.755 108.317C142.207 88.087 181.577 23.2393 160.05 -6.59889H165.031C181.588 31.4141 148.664 83.2963 135.503 109.438C126.151 128.009 116.238 146.493 108.919 167.932C103.278 184.458 103.949 195.208 112.82 207.059C134.073 235.45 163.605 244.984 187.628 263.834C204.97 277.445 229.862 300.264 214.549 338.936C198.972 378.281 170.825 403.675 149.078 430.177C137.563 444.209 125.863 458.493 115.813 475.862C109.284 487.142 101.677 501.765 101.973 519.189C102.622 557.467 130.264 591.26 144.643 612.74C162.618 639.595 190.147 670.67 197.936 712.413C210.938 782.113 114.69 848.381 165.035 910.768H165.031Z" fill="#CCFF99"/>
<path d="M157.174 910.768H152.056C140.007 899.862 127.768 885.551 128.302 858.451C128.773 834.552 137.601 811.992 144.946 793.128C155.657 765.627 180.086 723.721 173.685 686.306C167.365 649.339 141.164 624.625 124.877 603.464C111.666 586.299 88.0149 560.225 87.6242 526.629C87.4307 509.994 94.7681 496.424 101.218 486.102C112.038 468.788 124.71 455.115 137.044 441.62C149.704 427.771 162.584 414.534 174.964 399.883C185.169 387.815 197.025 374.244 204.036 355.734C217.926 319.06 192.112 293.89 176.5 279.273C150.91 255.313 119.918 241.185 97.2303 208.48C87.3472 194.237 87.7987 183.099 95.1816 165.995C104.116 145.297 114.754 126.97 124.869 108.16C137.635 84.4379 174.797 26.6234 152.056 -6.59889H157.174C177.68 28.9202 141.232 85.5252 128.276 110.199C118.784 128.275 108.847 146.065 100.778 166.301C94.1421 182.929 93.7362 193.999 102.887 207.311C113.939 223.389 128.686 232.827 141.638 242.565C154.898 252.527 168.317 261.952 181.224 273.327C197.082 287.298 222.255 311.136 208.532 347.913C201.18 367.612 189.024 382.141 178.268 395.242C166.317 409.798 153.923 423.137 141.748 437.067C129.812 450.726 117.653 464.52 107.193 481.74C100.854 492.17 93.6375 505.414 93.2771 521.791C92.4766 558.228 119.607 589.058 133.432 608.126C150.167 631.202 175.893 657.779 183.087 695.717C190.094 732.684 166.238 771.899 155.106 798.415C147.519 816.497 137.863 838.575 137.188 862.162C136.497 886.373 146.35 899.828 157.174 910.782V910.768Z" fill="#CCFF99"/>
<path d="M149.317 910.768H144.062C130.15 899.93 115.062 884.967 114.534 854.394C114.113 829.857 121.671 806.576 128.67 786.4C136.292 764.438 145.2 743.848 152.185 721.186C156.863 706.012 161.67 688.059 158.862 670.337C153.456 636.19 127.931 615.621 112.721 597.973C100.095 583.323 77.8358 560.871 78.8526 528.953C79.3534 513.27 86.4897 501.194 92.7611 491.654C103.889 474.727 116.921 461.761 129.562 448.891C142.59 435.626 155.831 422.974 168.556 408.778C178.469 397.722 189.308 385.613 196.471 368.72C212.129 331.794 183.489 303.159 168.078 287.563C153.953 273.266 139.183 261.109 124.653 248.232C111.677 236.734 97.1848 225.447 86.4139 207.671C77.5475 193.034 78.5111 182.114 85.9358 166.593C95.8721 145.834 107.201 127.242 117.994 107.943C130.867 84.9476 170.616 23.6402 144.066 -6.59889H149.321C173.643 26.005 134.369 86.4425 121.508 109.954C111.359 128.512 100.732 146.574 91.6798 166.933C84.221 183.717 84.4638 194.821 93.9675 208.962C104.837 225.135 118.81 235.491 131.497 246.078C145.375 257.657 159.439 268.618 172.949 281.536C188.698 296.594 216.393 323.551 201.218 360.864C193.892 378.879 182.339 391.912 172.054 403.777C159.758 417.952 146.995 430.775 134.441 444.182C122.179 457.276 109.61 470.534 98.7668 487.318C92.3968 497.178 84.7256 510.647 84.589 526.928C84.3082 560.511 108.051 585.708 121.261 602.234C136.873 621.757 162.448 644.868 168.499 680.013C175.176 718.774 149.784 762.59 139.024 791.653C131.888 810.932 123.374 834.056 123.56 858.22C123.769 885.864 136.907 900.113 149.324 910.775L149.317 910.768Z" fill="#CCFF99"/>
<path d="M141.46 910.768H136.072C120.385 900.072 102.549 884.817 100.641 851.044C99.1576 824.828 106.95 798.523 113.973 776.602C121.644 752.648 130.784 730.203 137.947 705.727C142.465 690.294 147.158 671.431 144.112 653.749C138.941 623.707 115.695 607.928 101.87 594.073C89.7488 581.923 68.8557 563.412 70.0166 533.302C70.6237 517.558 78.0597 505.72 84.5018 496.567C95.9708 480.278 109.2 467.979 122.096 455.768C134.6 443.93 147.264 432.596 159.519 419.936C170.138 408.962 182.369 396.757 189.916 378.852C205.656 341.498 172.828 309.193 158.066 293.584C144.26 278.995 129.922 266.083 115.798 252.534C102.504 239.786 87.5824 227.146 76.6598 208.113C66.6742 190.717 70.0925 179.368 78.8375 163.216C89.3845 143.734 100.744 125.706 111.647 106.883C124.668 84.4039 166.253 20.4329 136.072 -6.59889H141.46C169.432 22.8316 128.196 85.9737 115.229 108.826C104.454 127.819 93.1557 146.085 83.1398 166.396C74.9411 183.024 74.5086 194.026 84.2779 209.492C95.3448 227.017 109.667 238.685 122.729 250.549C136.213 262.795 149.867 274.51 163.043 287.801C178.113 302.996 210.118 333.513 194.703 371.227C187.45 388.97 175.878 401.317 165.574 412.55C153.024 426.235 139.976 438.419 127.13 451.181C114.606 463.623 101.783 476.222 90.6138 492.435C83.9668 502.085 76.2652 514.805 75.9579 531.243C75.3585 562.964 97.6439 583.968 110.357 598.007C124.626 613.772 147.852 632.025 153.676 663.025C157.087 681.189 152.341 700.195 147.53 716.001C140.617 738.718 131.884 759.498 124.395 781.596C117.118 803.056 108.764 828.593 110.08 854.707C111.64 885.605 127.104 900.086 141.456 910.775L141.46 910.768Z" fill="#CCFF99"/>
<path d="M133.603 910.768H128.079C111.575 900.854 92.0251 886.849 87.5331 853.001C83.6974 824.101 91.9226 793.488 99.3701 768.699C106.7 744.31 115.483 721.417 122.741 696.967C127.65 680.421 133.576 659.185 130.264 639.921C125.521 612.339 103.638 600.78 90.701 589.962C78.9361 580.129 59.8527 565.227 61.3361 536.598C62.148 520.901 69.861 509.376 76.4359 500.596C88.1477 484.96 101.597 473.374 114.644 461.836C127.354 450.597 140.211 439.853 152.667 427.717C163.282 417.374 175.483 405.883 182.98 388.304C198.368 352.221 165.456 318.217 151.514 302.459C136.512 285.504 120.847 270.528 105.452 254.776C92.579 241.6 78.5832 228.397 67.8579 209.743C64.7355 204.314 60.566 196.798 60.3118 188.372C60.0045 178.071 65.5625 171.173 69.2957 164.786C81.2162 144.373 93.8272 125.298 105.854 105.096C119.409 82.3246 161.586 17.0556 128.079 -6.59889H133.603C165.156 19.6582 122.213 85.2533 109.022 107.739C97.5983 127.208 85.6627 145.772 74.6338 165.968C65.6384 182.44 64.8607 193.469 74.6603 209.879C85.8941 228.689 100.618 241.62 113.996 254.674C127.976 268.319 142.143 281.42 155.793 296.132C170.798 312.305 204.055 345.84 187.097 383.343C179.262 400.671 167.406 412.4 156.738 423.15C144.628 435.348 132.138 446.295 119.804 457.738C107.049 469.569 93.9296 481.454 82.491 497.178C75.6923 506.529 67.7289 518.822 67.3077 535.334C66.5641 564.289 86.1938 581.128 98.0536 592.415C111.898 605.591 134.775 619.936 139.779 649.747C142.947 668.617 137.336 689.01 132.457 705.224C125.559 728.137 117.179 749.502 110.027 772.151C102.648 795.52 94.2786 823.693 96.517 851.554C99.2297 885.327 117.679 900.331 133.61 910.775L133.603 910.768Z" fill="#CCFF99"/>
<path d="M125.745 910.768H120.085C101.172 900.766 78.0977 885.755 73.7309 846.492C70.4719 817.177 78.2874 786.686 85.6627 761.326C93.2088 735.381 102.401 711.102 109.959 685.178C114.751 668.74 120.965 646.94 117.342 627.791C108.73 582.263 49.6206 596.465 52.815 539.683C53.7066 523.809 61.4462 512.645 68.2449 504.008C79.5166 489.69 92.3058 479.151 104.78 468.706C118.484 457.236 132.381 446.438 145.815 433.969C156.047 424.469 167.6 413.963 175.093 397.763C192.313 360.538 155.786 322.729 141.547 306.217C126.876 289.201 111.651 273.796 96.6726 257.678C83.504 243.503 69.1744 229.355 58.2783 209.642C54.9928 203.696 50.8157 195.8 51.0623 186.714C51.3278 176.997 57.326 170.31 61.0175 164.466C73.8295 144.182 87.093 124.822 99.7267 104.172C113.882 81.0335 156.988 13.8822 120.085 -6.59889H125.745C160.668 16.41 116.583 84.0982 102.917 106.706C91.4143 125.74 79.4255 143.822 67.9338 162.876C64.2082 169.053 57.8647 176.582 57.546 186.476C57.2463 195.725 61.799 204.076 65.1453 210.009C76.4587 230.055 91.6116 244.06 105.258 258.167C119.713 273.117 134.373 287.502 148.471 303.532C162.531 319.522 196.851 355.095 180.51 391.695C172.854 408.839 160.744 420.086 150.14 430.217C137.772 442.035 125.021 452.493 112.414 463.44C99.4422 474.7 86.08 485.959 74.3948 501.235C67.8275 509.818 59.9704 521.071 58.8701 536.564C56.8138 565.512 75.9807 579.823 87.8594 589.146C100.535 599.095 121.527 609.328 126.307 635.946C129.702 654.864 124.008 675.644 119.25 692.055C111.674 718.189 102.276 742.489 94.6467 768.583C87.6356 792.564 80.3361 821.159 83.3257 848.89C87.2903 885.701 107.99 900.48 125.749 910.768H125.745Z" fill="#CCFF99"/>
<path d="M117.888 910.768H112.091C92.7384 901.846 68.2222 888.636 61.5221 850.134C56.0551 818.733 64.5762 784.362 72.5017 756.855C80.3437 729.639 89.9764 704.273 98.0878 677.336C103.065 660.81 109.682 639.017 105.945 619.637C97.3935 575.304 43.3038 598.809 44.3547 543.509C44.6582 527.581 52.1018 516.382 58.8057 507.813C70.563 492.782 84.1983 482.29 97.3404 471.846C110.467 461.408 123.75 451.555 136.657 440.247C147.5 430.741 160.016 420.126 167.862 403.057C185.018 365.73 146.38 325.821 132.487 309.315C117.448 291.444 101.87 275.087 86.5619 257.977C73.454 243.326 58.965 228.499 48.3345 208.051C45.2386 202.092 40.9629 193.387 42.0935 184.356C43.1975 175.529 49.871 168.876 53.5321 163.488C67.194 143.38 81.0645 123.722 94.2484 102.602C105.934 83.8807 119.489 63.0667 126.629 37.4891C133.606 12.4823 125.859 -0.652995 112.091 -6.59889H117.888C131.364 0.393484 137.385 14.2355 130.632 38.0191C123.181 64.2626 109.443 85.5795 97.4239 105.007C84.8129 125.386 71.6025 144.515 58.7677 164.426C55.0155 170.242 48.9719 176.426 48.4862 186.177C48.0537 194.835 52.1398 202.962 55.1863 208.711C66.2531 229.593 81.5577 244.488 95.1589 259.254C109.978 275.345 125.025 290.791 139.529 307.793C153.46 324.129 189.737 361.714 173.522 398.633C166.052 415.642 153.752 426.365 143.247 435.966C130.731 447.403 117.816 457.392 105.042 467.857C91.3953 479.035 77.191 490.179 64.9822 506.04C58.4225 514.561 51.0585 525.549 50.4629 541.083C48.3079 597.538 105.634 579.809 114.098 625.603C117.6 644.555 111.507 665.92 106.711 682.276C98.6948 709.614 88.9483 735.205 81.1328 762.753C73.9623 788.038 66.5566 818.576 70.3126 847.511C75.3775 886.536 98.93 901.099 117.892 910.762L117.888 910.768Z" fill="#CCFF99"/>
<path d="M110.031 910.768H104.097C83.0639 902.492 54.6475 889.343 48.4672 845.982C43.998 814.628 52.6102 780.998 60.6381 753.905C68.5939 727.044 78.2608 702.01 86.8009 675.766C92.2717 658.941 100.072 636.89 96.4109 616.484C88.3222 571.383 33.504 600.447 36.2167 542.462C36.9262 527.261 44.3546 516.43 50.8346 508.33C62.7285 493.455 76.5422 483.228 89.8057 473.048C103.096 462.848 116.545 453.254 129.592 442.062C140.037 433.105 151.98 423.103 159.652 406.998C177.57 369.372 139.039 329.3 124.884 312.142C110.308 294.467 95.2347 278.145 80.374 261.259C66.3365 245.303 50.5539 229.205 39.2139 207.019C28.5682 186.191 35.401 177.928 45.8684 163.447C60.3232 143.448 74.8045 123.463 88.5347 101.868C100.406 83.2012 114.371 62.0066 121.348 35.9669C128.523 9.19341 117.915 -2.03244 104.097 -6.59889H110.031C123.625 -1.10828 132.142 11.1844 125.442 36.463C118.347 63.2229 103.794 84.9612 91.6571 104.158C79.0158 124.15 65.7788 142.878 52.6557 161.83C48.5355 167.782 40.132 175.624 39.6464 186.524C39.2822 194.719 43.1747 202.527 46.0467 208.079C57.235 229.715 72.7293 245.249 86.5505 260.729C101.76 277.765 117.209 294.162 132.089 312.122C146.001 328.906 183.037 368.054 165.578 404.783C157.61 421.547 145.219 431.984 134.38 441.375C121.576 452.465 108.407 462.135 95.3865 472.376C82.3241 482.65 68.7988 492.972 57.068 507.704C50.3756 516.11 42.7726 527.2 42.2452 542.979C40.3483 599.625 95.8759 573.53 103.524 619.569C106.844 639.561 99.7229 661.462 94.5253 678.233C86.1977 705.108 76.5308 730.591 68.7229 757.996C60.9075 785.415 52.6329 819.901 58.4642 850.997C65.6612 889.363 90.5455 902.125 110.035 910.775L110.031 910.768Z" fill="#CCFF99"/>
<path d="M102.174 910.768H96.1073C75.5444 901.969 49.7268 888.616 43.2506 847.287C38.531 817.177 45.8987 784.831 53.2665 758.139C61.2717 729.13 71.4431 702.329 80.097 673.972C85.1505 657.412 92.1124 636.326 88.0984 616.864C79.3459 574.448 26.8002 598.191 29.0234 543.115C29.695 526.453 38.641 514.425 45.7242 505.843C56.8518 492.354 69.3793 482.48 81.607 472.702C94.8971 462.074 108.373 452.085 121.394 440.41C131.744 431.135 143.793 420.5 151.089 403.77C167.175 366.865 129.406 327.853 115.65 310.905C101.051 292.918 85.9662 276.256 71.1245 258.935C57.8571 243.448 42.7953 227.805 32.2483 206.23C22.3803 186.041 28.3178 177.663 38.4134 163.365C52.2232 143.809 66.0634 124.279 79.1979 103.261C91.0728 84.2613 105.395 62.4823 112.065 35.8718C118.472 10.301 109.454 -1.3665 96.1073 -6.59889H102.174C116.868 -2.01885 127.305 10.036 119.482 37.7066C112.14 63.6578 98.0878 84.7029 86.0535 103.424C72.3423 124.755 57.9103 144.536 43.4782 164.256C39.8626 169.196 33.1322 175.217 31.5047 183.201C29.7329 191.899 34.2211 201.147 37.1803 206.937C47.8185 227.738 62.4895 243 75.6164 258.065C91.9302 276.786 108.551 294.685 124.546 314.289C138.721 331.665 175.605 370.684 157.432 407.8C149.681 423.626 137.825 433.561 127.411 442.442C114.477 453.471 101.149 462.93 87.977 472.987C74.7932 483.058 61.1161 493.156 49.2564 507.8C42.8029 515.77 35.2303 526.534 34.3159 541.593C30.7497 600.372 85.97 571.356 94.3242 615.743C97.8715 634.6 91.3156 654.347 86.2697 670.119C77.0164 699.04 66.1317 726.187 57.4284 755.693C49.4878 782.622 41.0653 816.062 45.8267 847.124C52.4243 890.138 81.129 902.791 102.166 910.762L102.174 910.768Z" fill="#CCFF99"/>
<path d="M94.3166 910.768H88.1136C68.6471 901.153 45.3145 886.523 39.525 847.266C35.2151 818.053 41.8241 786.7 48.6114 760.443C55.9071 732.228 65.2439 705.958 73.1314 678.301C77.9156 661.523 84.278 640.485 80.3247 621.309C71.6329 579.13 22.6383 596.723 23.8979 543.495C24.2583 528.24 31.903 515.954 38.1137 507.208C49.2867 491.47 62.4326 480.109 75.0967 468.849C95.6787 450.542 124.175 433.337 138.489 399.102C153.805 362.468 120.225 326.283 106.222 308.371C92.7042 291.077 78.7009 275.06 64.929 258.439C52.2687 243.156 38.1478 227.649 27.9384 206.971C25.1575 201.345 21.2953 193.312 21.7202 185.124C22.221 175.543 28.424 169.746 32.1458 164.133C45.0527 144.651 58.0582 125.346 70.3885 104.674C84.976 80.2045 125.673 12.7202 88.1136 -6.59889H94.3166C107.831 -0.958784 116.094 11.7213 109.553 36.8232C102.58 63.5695 88.3488 85.5252 76.3373 104.817C63.8136 124.931 50.6601 143.734 37.5294 162.543C33.6824 168.054 26.1249 175.244 25.3244 184.941C24.5922 193.761 29.1449 202.506 32.1648 208.316C42.7233 228.628 56.8973 243.836 69.7435 258.942C85.3061 277.235 101.161 294.773 116.393 313.97C130.26 331.448 164.47 368.278 147.906 404.185C140.61 420.004 129.41 430.333 119.398 439.507C106.419 451.398 92.9698 461.564 79.7101 472.389C67.5203 482.338 55.0155 492.395 43.9715 506.135C37.3245 514.405 28.6782 526.256 27.6918 541.932C24.2242 597.205 77.9611 575.712 86.4177 617.945C90.3748 637.706 83.1777 659.471 78.0673 676.262C69.8459 703.267 60.3574 728.987 52.743 756.59C45.03 784.552 37.0324 819.331 42.9281 850.705C50.1555 889.166 74.7059 902.104 94.3166 910.782V910.768Z" fill="#CCFF99"/>
<path d="M86.4594 910.768H80.1198C61.5714 900.304 41.274 885.075 36.0232 847.925C32.0434 819.779 37.8329 789.887 44.0625 764.214C50.6563 737.046 59.1812 711.605 66.2645 684.872C70.7944 667.775 76.4473 647.396 72.8583 628.199C64.9442 585.823 17.8883 594.589 20.5479 541.559C22.3462 505.652 51.4948 480.829 66.2948 465.322C85.4882 445.208 110.961 425.916 123.765 391.688C137.408 355.211 109.769 322.852 95.599 303.716C83.4774 287.346 70.8665 272.186 58.468 256.509C46.7979 241.749 33.8645 226.813 24.5391 207.107C21.7657 201.249 17.9832 193.047 18.5181 184.71C19.1176 175.373 25.6355 168.122 29.2207 162.237C40.5 143.741 51.9159 125.495 62.7399 106.129C76.6825 81.183 114.136 15.8256 80.1198 -6.59889H86.4594C122.748 13.0803 84.1869 78.4648 69.8649 102.976C57.6144 123.946 44.6316 143.476 31.7665 163.209C21.9099 178.329 17.3496 186.85 26.971 206.557C37.0931 227.289 50.9864 242.782 63.5936 258.113C77.2592 274.734 91.1563 290.764 104.537 308.112C118.947 326.793 151.153 362.183 134.999 399.027C120.426 432.256 93.6451 449.543 73.287 468.197C61.2299 479.246 48.8922 490.451 38.1554 505.387C31.8689 514.14 23.7992 526.854 23.0367 542.252C20.3923 595.778 70.6616 580.693 78.8565 622.878C82.4189 641.205 76.8419 660.891 72.3765 677.064C64.7204 704.803 55.448 731.026 48.1713 759.117C41.3537 785.429 34.5967 817.014 38.6486 846.43C44.0777 885.836 67.027 900.874 86.4594 910.748V910.768Z" fill="#CCFF99"/>
<path d="M78.6023 910.768H72.1261C55.0573 899.814 37.1045 884.022 32.4418 849.699C28.5758 821.261 34.4791 791.062 40.5683 765.077C46.2137 740.981 53.2893 718.101 59.2761 694.29C63.6163 677.017 68.6584 657.14 65.7675 637.903C59.0788 593.353 18.5637 595.153 18.503 544.039C18.4574 507.31 43.1027 479.599 57.5499 460.953C74.6946 438.827 96.7979 417.116 107.425 383.058C119.045 345.82 97.5718 317.13 82.8325 295.861C62.9638 267.184 36.93 242.653 21.3408 205.775C13.863 188.08 16.9095 179.566 24.9033 164.915C35.4428 145.603 46.2782 126.8 56.4648 106.876C69.9939 80.4219 102.606 18.6933 72.1261 -6.59889H78.6023C111.465 16.0635 76.3866 78.9609 62.5199 104.369C51.2596 125.006 39.2898 144.325 27.5249 164.025C18.5447 179.063 15.1567 188.128 23.8031 206.618C42.3818 246.35 71.1586 272.009 93.8917 303.233C107.815 322.355 133.629 353.247 121.132 389.099C109.022 423.857 83.4888 444.039 64.6179 464.541C49.8255 480.612 21.0297 506.339 20.0091 542.632C18.5295 595.235 63.9236 586.754 71.5684 630.102C75.017 649.665 69.1744 670.615 64.561 687.937C57.842 713.188 49.9431 737.386 43.6907 763.045C37.1159 790.023 30.7535 822.361 35.8146 851.819C41.7255 886.217 61.1162 900.643 78.5947 910.755L78.6023 910.768Z" fill="#CCFF99"/>
<path d="M70.7451 910.768H64.1323C48.3762 899.23 33.284 883.58 29.0614 851.833C25.4837 824.95 30.4765 796.736 35.9018 771.784C41.1526 747.64 47.9095 724.686 53.3841 700.719C57.2919 683.608 60.972 665.301 58.5325 646.689C52.6443 601.731 18.3777 594.039 17.619 543.767C17.0726 507.528 35.3517 478.716 48.9415 456.305C63.9312 431.583 83.4622 406.25 91.0501 371.024C98.8314 334.906 83.8682 309.798 69.7776 287.434C53.3083 261.293 30.6852 238.087 18.7344 204.246C12.6679 187.074 16.5642 178.77 23.2036 164.854C32.3545 145.67 41.9303 127.146 50.865 107.617C63.9009 79.124 91.0842 21.2483 64.1323 -6.59889H70.7451C100.129 18.7544 69.7966 78.1862 56.4306 105.035C46.3464 125.285 35.5566 144.339 25.0816 163.923C17.3116 178.451 13.2825 187.156 20.7907 205.252C36.1029 242.157 61.5979 266.444 81.1973 295.33C95.5383 316.464 115.308 343.965 104.849 380.367C94.8933 414.996 72.8621 437.577 56.0323 460.178C41.8355 479.246 18.8634 506.542 18.3701 542.395C17.6455 594.943 58.2821 594.317 64.6293 640.023C67.1598 658.248 62.7665 676.867 58.7563 693.325C52.5419 718.855 44.9389 743.23 39.0773 769.045C33.4775 793.699 28.3216 822.232 31.7133 849.04C36.0877 883.608 53.6952 899.577 70.7489 910.768H70.7451Z" fill="#CCFF99"/>
<path d="M62.8879 910.768H56.1385C42.1276 898.945 29.2738 883.431 25.5672 854.755C22.3348 829.762 26.4739 803.518 31.1101 780.006C38.3678 743.203 55.1141 700.535 51.7717 659.885C49.7837 635.708 40.8149 619.304 32.0775 601.962C23.3477 584.634 17.8086 566.776 17.2471 543.026C15.5019 468.835 63.4 429.497 73.6967 362.692C85.3971 286.768 31.1746 259.451 16.2607 201.711C12.1178 185.675 17.2547 176.589 22.4789 163.814C30.2147 144.903 38.4323 126.637 46.0201 107.528C58.2631 76.7117 79.5773 23.3752 56.1423 -6.59889H62.8917C88.7396 21.0037 64.0184 76.1069 51.3013 104.878C42.5259 124.734 33.0298 143.51 23.9244 162.869C17.0081 177.581 12.1823 186.925 18.7761 205.096C30.909 238.528 52.7202 261.51 68.9316 288.039C82.4606 310.178 95.4055 334.105 88.5385 368.869C81.5273 404.348 62.2657 430.387 47.6477 455.571C34.0845 478.94 16.735 507.929 17.5317 544.596C18.6129 594.399 52.356 604.232 57.5954 649.896C59.6175 667.517 56.2675 684.75 52.6481 700.984C47.3177 724.876 40.6707 747.749 35.4389 771.716C29.9719 796.757 25.1498 824.651 28.4543 851.649C32.3241 883.247 47.3784 899.162 62.8917 910.768H62.8879Z" fill="#CCFF99"/>
<path d="M55.0307 910.768H48.1485C35.7386 898.469 25.5975 883.295 22.2361 857.711C19.0037 833.105 22.9456 806.705 27.3162 783.384C34.0086 747.688 46.9269 709.845 44.7416 670.948C43.3796 646.689 36.3115 627.56 29.179 607.562C21.6974 586.578 17.9604 567.048 17.0916 542.17C14.5269 468.801 52.1245 421.92 57.3032 352.506C59.6289 321.316 56.1802 298.511 45.3486 274.02C35.4541 251.65 19.8004 229.769 14.7735 201.909C11.8787 185.865 17.4558 175.781 21.9288 162.598C28.2267 144.026 35.0519 126.039 41.2777 107.386C52.2915 74.3673 68.1728 25.1828 48.1485 -6.59889H55.0307C78.1659 23.8713 57.1401 77.3164 44.992 108.466C37.5407 127.575 29.4597 145.861 21.925 164.86C16.7805 177.833 12.0836 186.605 16.2873 202.602C31.258 259.567 81.9902 286.157 71.4848 360.81C61.8938 428.947 15.2136 468.903 17.304 544.012C17.968 567.891 23.4236 585.565 31.9751 603.335C40.2534 620.534 48.729 637.006 50.7132 660.388C54.1694 701.065 37.9732 742.992 30.7079 779.884C26.0945 803.321 21.925 829.598 25.017 854.564C28.5568 883.132 41.1336 898.795 55.0307 910.768Z" fill="#CCFF99"/>
<path d="M47.1735 910.768H40.1547C-9.48098 851.309 40.8908 758.35 37.6508 679.714C36.653 655.523 31.2201 634.233 25.8707 612.332C20.3278 589.629 17.9452 568.563 16.8905 543.985C15.3653 508.438 18.4991 479.008 25.5634 445.724C32.4607 413.236 41.1222 380.408 41.6989 345.038C42.1352 318.428 41.862 293.999 34.2704 270.494C27.2441 248.749 15.2705 227.065 12.9448 201.535C11.6207 187.006 17.1371 176.08 20.453 163.637C25.6013 144.311 31.4212 125.584 36.5923 106.271C45.9139 71.4589 56.7493 26.4399 40.1547 -6.59889H47.1735C66.8183 25.3934 51.5061 74.177 40.6555 107.454C34.5853 126.073 27.9232 144.04 21.796 162.584C17.4672 175.685 11.8636 185.919 14.5459 201.793C19.1896 229.294 34.388 251.147 43.9031 273.334C54.416 297.838 57.3943 320.779 55.3342 351.535C50.679 421.03 14.3903 468.992 17.0726 542.157C17.9869 567.096 21.5153 586.836 28.7958 608.173C35.731 628.498 42.6056 647.98 43.8917 672.314C45.9442 711.068 33.3902 748.49 26.785 784.138C22.4903 807.317 18.6357 833.485 21.7998 857.915C25.0739 883.213 34.9571 898.401 47.1773 910.762L47.1735 910.768Z" fill="#CCFF99"/>
<path d="M39.3163 910.768H32.161C-6.86696 851.663 31.554 765.029 30.6586 692.197C30.3437 666.667 26.4512 642.571 22.5207 618.244C18.5371 593.584 17.4406 570.812 16.3176 545.473C15.5816 528.858 13.7719 513.365 14.3562 496.506C14.9594 479.076 16.845 461.89 18.9506 444.875C23.1618 410.851 28.644 376.684 27.6424 341.484C27.411 333.343 26.1476 325.169 26.0756 317.082C26.03 311.673 27.0202 306.896 27.2744 301.412C27.8056 289.915 25.8517 278.43 23.6475 267.769C19.2503 246.499 10.8582 224.272 11.12 200.862C11.2717 187.081 16.348 176.209 18.852 163.569C22.5396 144.964 26.8761 126.807 30.6927 108.289C38.2882 71.3977 45.8684 28.5465 32.161 -6.59889H39.3163C55.5922 26.6098 45.1627 71.3365 36.0232 106.339C30.9887 125.611 25.3168 144.332 20.3126 163.63C17.0878 176.079 11.579 187.061 12.7513 201.508C14.8038 226.779 26.3753 248.456 33.1095 270.127C40.3976 293.591 40.4355 318.217 40.1434 344.501C39.7526 379.83 31.4553 412.815 24.8539 445.48C18.0818 478.981 15.2971 508.472 16.8412 543.991C17.9111 568.624 20.1343 589.928 25.5178 612.841C30.7193 634.967 35.9815 656.562 36.9185 680.835C39.9271 758.879 -9.21539 851.377 39.3163 910.775V910.768Z" fill="#CCFF99"/>
<path d="M31.4591 910.768H24.1672C3.54735 868.332 12.0723 815.124 18.5712 765.675C23.5261 727.975 24.4746 691.776 21.2953 653.498C15.0808 578.756 9.42411 505.374 14.0223 429.742C15.3502 407.895 16.697 385.973 16.5415 363.963C16.4125 345.908 13.2218 326.636 14.6256 309.227C17.122 278.213 11.2528 252.139 9.27995 221.669C8.4339 208.602 8.93849 196.438 11.9774 184.424C16.6553 165.934 18.9354 145.908 21.9744 126.202C28.6137 83.1808 36.2812 35.4913 24.1672 -6.59889H31.4591C44.8934 28.6688 37.6015 71.323 30.1844 108.33C26.4777 126.82 22.2513 144.977 18.6775 163.556C16.2342 176.249 11.1959 187.156 10.9569 200.916C10.5509 224.19 18.6092 246.418 22.7976 267.714C24.8995 278.397 26.7243 289.86 26.1363 301.304C25.8555 306.794 24.8464 311.551 24.8957 316.967C24.9678 325.046 26.2577 333.242 26.5119 341.369C27.6197 376.521 22.4031 410.749 18.4119 444.834C16.4163 461.877 14.6407 479.083 14.121 496.499C13.6164 513.345 15.483 528.872 16.2152 545.473C17.3382 570.874 18.3322 593.835 22.183 618.631C25.9845 643.135 29.7595 667.421 30.0364 693.047C30.818 765.451 -6.68482 851.642 31.4667 910.768H31.4591Z" fill="#CCFF99"/>
<path d="M23.6019 910.768H16.1735C2.84924 868.393 7.87997 821.261 12.1785 775.678C15.8548 736.713 16.6856 698.225 15.0125 658.846C13.5594 624.611 11.45 590.784 11.45 556.406C11.45 535.864 8.84741 515.804 8.21383 495.221C7.58025 474.618 7.85341 453.988 8.12278 433.371C8.37317 414.147 8.63495 394.902 8.15692 375.685C7.64095 354.953 4.02915 333.629 6.0513 313.399C9.01055 283.758 5.90334 254.919 5.93748 225.135C5.95266 210.647 7.26535 197.77 9.78072 184.016C13.3849 164.31 14.5003 142.986 16.439 122.397C20.4833 79.5249 24.2127 35.5049 16.1772 -6.59889H23.6057C35.4579 35.5932 28.056 83.0993 21.5949 126.222C18.6433 145.929 16.4694 165.982 11.8446 184.472C8.82844 196.527 8.27074 208.731 9.03711 221.839C10.8278 252.323 16.4011 278.56 13.8819 309.506C12.4668 326.881 15.6764 346.166 15.851 364.181C16.0634 386.157 14.8076 408.051 13.5708 429.885C9.28371 505.455 14.9101 579.171 20.8703 653.912C23.9206 692.163 23.0063 728.45 18.1501 766.13C11.8029 815.356 3.45627 868.243 23.5981 910.762L23.6019 910.768Z" fill="#CCFF99"/>
<path d="M15.7447 910.768H8.18346C1.50618 866.436 4.20365 821.301 6.42309 776.228C8.25555 739.01 8.60459 701.758 8.06585 664.411C7.5385 628.036 6.83283 591.776 6.82524 555.394C6.81766 517.299 3.85461 478.899 3.46005 440.635C3.25518 420.813 3.06548 400.977 2.38258 381.189C1.76417 363.263 -0.189694 345.507 0.842249 327.656C2.67091 295.99 2.26497 264.561 2.89096 232.786C3.23241 215.581 4.66272 199.238 6.22201 182.324C7.93307 163.821 8.13414 144.706 8.93087 125.964C10.8089 81.6994 12.4023 37.4008 8.18346 -6.59889H15.7447C23.5791 35.566 19.9939 79.5113 16.0824 122.424C14.2044 143.02 13.1497 164.33 9.61756 184.071C7.14393 197.892 5.82365 210.865 5.77433 225.393C5.6719 255.259 8.61976 284.234 5.67948 313.943C3.68009 334.159 7.25396 355.428 7.7889 376.12C8.2859 395.29 8.05827 414.486 7.84581 433.663C7.61817 454.225 7.38295 474.808 8.03171 495.357C8.68047 515.886 11.2603 535.905 11.2527 556.4C11.2414 590.838 13.2673 624.774 14.6635 659.084C16.2645 698.435 15.4564 736.965 11.8711 775.922C7.68267 821.397 2.78852 868.332 15.7485 910.762L15.7447 910.768Z" fill="#CCFF99"/>
<path d="M7.88755 910.768H0.189711V-6.59891H7.88755C11.9546 37.4211 10.4371 81.7062 8.63116 125.971C7.86479 144.719 7.67889 163.821 6.02854 182.352C4.51477 199.34 3.11861 215.798 2.77716 233.058C2.14737 264.949 2.50779 296.506 0.724652 328.294C-0.273146 346.119 1.62001 363.834 2.22704 381.726C2.89856 401.46 3.09585 421.22 3.30451 440.981C3.71046 479.123 6.60521 517.415 6.60901 555.394C6.60901 591.81 7.28432 628.117 7.78132 664.52C8.2935 701.86 7.95584 739.112 6.18788 776.337C4.04812 821.369 1.46067 866.429 7.87997 910.775L7.88755 910.768Z" fill="#CCFF99"/>
</svg>
