<?xml version="1.0" encoding="UTF-8"?>
<svg id="Layer_2" data-name="Layer 2" xmlns="http://www.w3.org/2000/svg" viewBox="0 0 1078.62 1350">
  <defs>
    <style>
      .cls-1 {
        fill: #cf9;
      }
    </style>
  </defs>
  <g id="Final">
    <g id="Cover">
      <g>
        <path class="cls-1" d="M899.62,1350h-2c8.14-81.97,98.12-135.39,145.61-195.5,18.67-23.63,36.85-52.52,32.75-84.03-4.03-31.02-25.74-57.71-45.72-80.39-27.04-30.7-57.7-57.97-84.87-88.55-19.07-21.46-39.76-46.23-45.89-75-13.01-61.11,49.73-113.42,87.6-151.54,35.7-35.94,105.23-93.68,86.33-152.66-12.38-38.64-47.81-72.39-75.38-100.65-42.5-43.58-88.03-84.07-130.86-127.32-30.11-30.41-75.13-70-83.52-114.45-6.57-34.8,26.29-53.95,53.75-65.8,43.8-18.9,91.46-27.96,136.98-41.69,39.39-11.88,94.17-25.78,102.19-72.42h2.03c-7.81,46.19-61.79,60.15-100.79,71.99-45.27,13.75-92.63,22.85-136.38,41.29-26.85,11.32-61.26,29.93-56.18,64.31,6.91,46.81,56.75,89.59,88.01,120.94,39.9,40.03,82.03,77.77,121.73,118,28.87,29.25,63.58,62.01,78.76,101.26,23.33,60.32-47.39,119.67-84.65,157.21-38.36,38.65-103.41,93.7-86.54,155.56,16.79,61.58,80.76,106.09,122.07,151.06,23.06,25.1,49.96,55.51,53.59,91,3.2,31.38-15.49,60.05-34.21,83.42-47.65,59.52-136.47,112.44-144.4,193.95Z"/>
        <path class="cls-1" d="M881.93,1350h-1.68c8.86-81.78,97.04-134.7,144.4-195.02,18.46-23.51,36.65-52.49,33.02-83.81-3.62-31.15-26.11-58.11-46.03-80.79-27.7-31.55-59.02-59.69-86.86-91.11-19.14-21.6-40.34-46.58-46.33-75.57-12.79-61.95,49.72-112.31,88.92-149.87,37.11-35.55,106.53-91.14,87.47-151.23-12.27-38.7-48.02-72.6-75.57-100.87-42.76-43.88-88.56-84.69-131.65-128.24-30.01-30.33-75.58-70.21-83.7-114.66-6.33-34.67,26.58-54.03,53.92-65.77,43.41-18.65,90.66-27.4,135.78-40.84,39.67-11.82,93.38-25.62,101.89-72.21h2.39c-8.47,46.61-62.31,60.43-101.97,72.27-45.18,13.49-92.49,22.28-135.96,40.97-27.35,11.76-60.28,31.11-53.93,65.79,8.13,44.44,53.64,84.28,83.65,114.61,43.05,43.51,88.81,84.27,131.53,128.11,27.54,28.26,63.25,62.14,75.53,100.82,19.03,59.98-50.32,115.84-87.27,151.49-39.04,37.67-101.5,88.28-88.7,150.15,5.99,28.95,27.11,53.88,46.23,75.44,27.74,31.3,58.97,59.32,86.58,90.75,19.91,22.66,42.3,49.57,45.94,80.68,3.67,31.34-14.53,60.32-33.02,83.84-47.39,60.3-135.8,113.28-144.6,195.1Z"/>
        <path class="cls-1" d="M869.62,1350h-1.28c9.05-81.31,95.16-133.7,141.98-194.05,18.18-23.44,36.17-52.48,32.7-83.56-3.55-31.72-27.14-59.39-47.33-82.48-28.73-32.86-61.07-62.35-89.93-95.08-19.48-22.1-41.59-47.71-47.69-77.34-12.88-62.52,50.93-110.49,91.54-146.56,38.51-34.21,109.32-87.12,90.04-147.99-12.33-38.92-48.46-73.1-76.14-101.55-43.17-44.36-89.37-85.64-132.87-129.67-30.1-30.46-76.27-70.73-84.32-115.39-6.21-34.42,26.23-53.79,53.47-65.39,42.8-18.23,89.41-26.51,133.91-39.52,39.62-11.58,92.15-25.11,100.77-71.42h2.75c-8.63,46.36-61.31,59.93-100.96,71.55-44.59,13.07-91.29,21.42-134.19,39.72-27.25,11.62-59.77,31-53.56,65.46,8.05,44.62,54.14,84.83,84.22,115.27,43.44,43.96,89.57,85.18,132.69,129.46,27.66,28.41,63.74,62.55,76.05,101.44,19.24,60.78-51.3,114.07-89.64,148.5-40.42,36.31-103.98,84.62-91.13,147.07,6.07,29.52,28.05,55.03,47.47,77.05,28.71,32.54,60.9,61.83,89.47,94.5,20.13,23.02,43.57,50.57,47.11,82.19,3.48,31.11-14.55,60.15-32.77,83.6-46.91,60.35-133.3,112.81-142.35,194.2Z"/>
        <path class="cls-1" d="M861.71,1350h-.87c8.83-80.61,92.61-132.45,138.57-192.68,17.85-23.39,35.47-52.48,31.91-83.28-3.78-32.68-28.71-61.36-49.43-85.19-30.04-34.56-63.7-65.76-93.88-100.2-20.06-22.89-43.38-49.49-49.81-80.07-13.23-62.96,53.23-108.11,95.21-141.92,39.83-32.07,113.34-81.84,93.76-143.29-12.52-39.29-49.1-73.84-77.04-102.59-43.69-44.97-90.41-86.87-134.43-131.51-30.33-30.76-77.13-71.5-85.31-116.55-6.18-34.08,25.39-53.32,52.51-64.74,42.02-17.68,87.8-25.37,131.48-37.81,39.32-11.19,90.55-24.3,98.99-70.16h3.1c-8.49,45.94-59.91,59.12-99.29,70.38-43.81,12.53-89.72,20.31-131.87,38.08-27.14,11.45-58.86,30.72-52.68,64.85,8.15,44.99,54.85,85.65,85.14,116.36,43.94,44.54,90.57,86.35,134.18,131.22,27.89,28.7,64.4,63.19,76.89,102.42,19.53,61.37-53.51,111.63-93.15,144.06-41.79,34.19-107.78,79.78-94.62,142.68,6.37,30.43,29.49,56.86,49.46,79.62,29.97,34.16,63.42,65.1,93.25,99.38,20.62,23.7,45.35,52.22,49.08,84.74,3.53,30.84-14.15,59.93-32.05,83.33-46.1,60.26-130.24,112.18-139.12,192.91Z"/>
        <path class="cls-1" d="M857.22,1350h-.48c8.3-79.74,89.57-130.99,134.41-191.02,17.46-23.37,34.58-52.49,30.77-82.99-4.25-33.92-30.68-63.87-52.14-88.71-31.58-36.54-66.79-69.76-98.51-106.18-20.98-24.09-45.15-51.66-52.49-83.55-14.51-63.03,56.98-105.65,99.7-136.26,40.95-29.33,118.34-75.51,98.37-137.46-12.82-39.76-49.88-74.76-78.17-103.92-44.3-45.68-91.64-88.31-136.27-133.67-30.69-31.19-78.14-72.46-86.57-118.04-6.23-33.65,24.15-52.67,51.17-63.87,41.1-17.03,85.91-24.03,128.63-35.79,38.83-10.69,88.65-23.28,96.7-68.54h3.46c-8.12,45.37-58.18,58.05-97.1,68.83-42.89,11.88-87.86,19-129.12,36.14-27.04,11.24-57.63,30.3-51.41,64.02,8.38,45.48,55.72,86.66,86.35,117.77,44.53,45.23,91.75,87.74,135.95,133.3,28.23,29.1,65.21,64.01,77.97,103.69,19.9,61.87-56.78,108.67-97.56,138.48-42.55,31.11-113.29,74.28-98.92,137.25,7.23,31.67,31.18,59.03,52.02,82.94,31.45,36.08,66.39,68.95,97.71,105.15,21.33,24.66,47.51,54.38,51.66,88.08,3.77,30.54-13.45,59.66-30.97,83.04-45.04,60.07-126.73,111.42-135.14,191.31Z"/>
        <path class="cls-1" d="M855.18,1350h-.19c7.56-78.74,86.17-129.4,129.72-189.15,17.04-23.38,33.54-52.51,29.37-82.67-4.9-35.37-32.92-66.73-55.29-92.77-33.28-38.74-70.19-74.16-103.61-112.78-21.92-25.33-47.49-54.23-55.58-87.54-15.42-63.46,61.13-102.53,104.75-129.89,41.78-26.2,124.03-68.4,103.59-130.86-13.19-40.31-50.77-75.79-79.47-105.45-44.98-46.47-92.98-89.89-138.29-136.04-31.14-31.72-79.24-73.55-88.03-119.75-6.31-33.17,22.64-51.89,49.56-62.85,40.09-16.31,83.82-22.55,125.49-33.58,38.21-10.11,86.56-22.09,94.04-66.67h3.82c-7.6,44.71-56.22,56.81-94.54,67.03-41.87,11.16-85.8,17.55-126.08,33.99-26.94,11-56.17,29.78-49.87,63.04,8.72,46.08,56.7,87.81,87.76,119.42,45.18,46,93.06,89.27,137.91,135.6,28.63,29.57,66.1,64.96,79.23,105.17,20.36,62.36-60.95,105.31-102.61,132.1-43.48,27.96-119.05,67.71-103.81,131.08,7.95,33.04,33.26,61.69,55,86.79,33.1,38.21,69.7,73.22,102.66,111.55,22.2,25.81,49.93,56.91,54.69,92.01,4.11,30.23-12.51,59.35-29.63,82.73-43.79,59.8-122.9,110.57-130.6,189.5Z"/>
        <path class="cls-1" d="M854.6,1350h-.03c6.72-77.68,82.59-127.72,124.74-187.15,16.61-23.42,32.4-52.51,27.83-82.35-5.66-36.94-35.3-69.79-58.67-97.15-35.06-41.04-73.77-78.8-108.97-119.72-23.01-26.75-49.78-56.96-58.89-91.82-16.7-63.91,66.09-99.28,110.12-123.12,42.29-22.9,130.14-60.77,109.16-123.82-13.61-40.9-51.71-76.9-80.87-107.09-45.68-47.3-94.4-91.56-140.41-138.53-31.63-32.29-80.38-74.71-89.6-121.59-6.42-32.63,20.98-51.06,47.8-61.74,39.03-15.55,81.62-21,122.18-31.24,37.52-9.48,84.34-20.82,91.19-64.66h4.18c-6.99,43.99-54.11,55.46-91.77,65.07-40.78,10.4-83.6,16.01-122.85,31.71-26.84,10.74-54.55,29.22-48.16,61.96,9.13,46.74,57.75,89.04,89.28,121.22,45.87,46.81,94.45,90.9,139.99,138.03,29.07,30.09,67.06,65.99,80.59,106.76,20.88,62.92-65.82,101.68-108.04,125.23-43.95,24.52-125.52,60.69-109.05,124.48,8.92,34.56,35.43,64.49,58.23,90.96,34.84,40.46,73.19,77.75,107.9,118.33,23.17,27.09,52.49,59.65,57.99,96.27,4.5,29.9-11.44,59.01-28.14,82.42-42.44,59.5-118.86,109.66-125.74,187.55Z"/>
        <path class="cls-1" d="M854.51,1350h-.05c5.95-77.19,80.13-126.83,120.73-186.64,16.21-23.88,30.77-53.23,24.75-82.93-7.85-38.73-40.08-74.11-65.03-103.15-32.92-38.31-68.5-74.24-101.81-112.2-27.58-31.42-63.36-68.84-72.59-111.19-13.38-61.38,74.22-92.26,116.7-111.83,41.57-19.15,132.41-51.28,116.28-112.04-11.99-45.17-55.88-84.62-87.12-116.78-47.02-48.4-96.95-93.87-143.86-142.37-31.15-32.2-74.86-71.34-85.92-116.27-8.03-32.62,16.33-51.44,43.61-62.4,38.04-15.28,79.72-19.85,119.41-29.29,37.13-8.83,83.18-19.41,89.51-62.9h4.54c-6.47,43.66-52.86,54.38-90.14,63.35-39.93,9.61-81.86,14.35-120.13,29.8-27.3,11.02-52.01,29.89-43.99,62.63,10.97,44.79,54.56,83.81,85.6,115.89,46.76,48.32,96.53,93.61,143.39,141.83,31.14,32.04,74.9,71.37,86.8,116.4,16.03,60.68-73.47,93.75-115.06,113.58-42.53,20.29-128.68,52.02-115.52,113.33,9.01,41.96,44.43,79.02,71.75,110.11,32.97,37.51,68.21,72.99,100.78,110.86,24.72,28.73,56.61,63.78,64.27,102.17,5.94,29.77-8.78,59.12-25.09,82.98-40.91,59.87-115.68,109.65-121.82,187.07Z"/>
        <path class="cls-1" d="M853.93,1350h-.32c5.17-76.14,76.59-125.15,115.8-184.67,15.8-23.98,29.61-53.27,23.25-82.69-8.7-40.29-42.46-77.18-68.44-107.57-34.48-40.33-71.62-78.29-106.5-118.27-28.75-32.95-66.14-71.96-76.35-116.06-14.32-61.84,79.88-88.6,122.07-105.06,41.37-16.15,138.36-43.85,121.77-105.1-12.4-45.79-56.87-85.78-88.58-118.49-47.72-49.22-98.35-95.53-145.97-144.85-31.61-32.74-75.91-72.41-87.37-117.96-8.07-32.07,14.72-50.7,41.93-61.39,37.01-14.53,77.55-18.31,116.14-26.98,36.46-8.19,80.96-18.16,86.69-60.91h4.89c-5.87,42.92-50.72,53.02-87.33,61.36-38.83,8.84-79.64,12.8-116.88,27.51-27.23,10.75-50.37,29.42-42.31,61.61,11.37,45.41,55.54,84.96,87.04,117.58,47.46,49.14,97.93,95.25,145.49,144.29,31.61,32.59,75.95,72.46,88.25,118.11,16.48,61.12-79.1,89.86-120.53,106.67-42.27,17.15-134.96,44.89-120.85,106.6,9.99,43.7,47.02,82.35,75.5,114.96,34.52,39.52,71.31,77.01,105.44,116.88,25.75,30.09,59.16,66.64,67.67,106.58,6.28,29.49-7.69,58.79-23.58,82.75-39.52,59.58-111.58,108.73-116.92,185.11Z"/>
        <path class="cls-1" d="M851.88,1350h-.87c4.55-75.16,73.35-123.59,111.27-182.85,15.39-24.05,28.54-53.3,21.94-82.45-9.43-41.69-44.63-79.97-71.54-111.58-35.94-42.21-74.44-82.16-110.88-123.93-29.84-34.21-68.73-74.88-79.77-120.48-15.12-62.48,85.2-85.08,126.99-98.85,41.06-13.53,143.82-36.86,126.8-98.74-12.75-46.35-57.77-86.85-89.9-120.04-48.38-49.99-99.67-97.07-147.94-147.16-40.94-42.49-145.52-142.62-48.23-179.97,36.04-13.84,75.53-16.87,113.09-24.83,35.9-7.6,78.88-17.03,84.14-59.11h5.25c-5.36,42.24-48.71,51.79-84.74,59.54-37.8,8.12-77.55,11.34-113.82,25.34-97.38,37.59,6.28,136.98,47.57,179.82,48.11,49.91,99.25,96.8,147.47,146.61,32.03,33.08,76.92,73.46,89.59,119.68,16.91,61.71-84.47,86.11-125.61,100.25-41.89,14.4-140.76,38.03-125.82,100.33,10.84,45.23,49.37,85.55,78.96,119.43,36.09,41.32,74.24,80.81,109.83,122.57,26.69,31.33,61.54,69.27,70.81,110.63,6.55,29.22-6.75,58.47-22.24,82.51-38.23,59.32-107.67,107.89-112.35,183.28Z"/>
        <path class="cls-1" d="M847.38,1350h-1.77c4.18-74.31,70.54-122.21,107.36-181.29,15.01-24.08,27.65-53.32,20.94-82.21-9.95-42.84-46.48-82.34-74.13-114.93-37.23-43.89-77.03-85.51-114.77-128.96-30.68-35.33-70.99-77.29-82.65-124.2-15.73-63.29,89.75-81.94,131.22-93.51,40.81-11.38,148.49-30.62,131.09-93.32-12.99-46.82-58.55-87.75-91.01-121.34-48.96-50.67-100.84-98.44-149.69-149.22-39.68-41.24-147.48-144.04-50.48-180.5,35.19-13.22,73.74-15.6,110.39-22.92,35.5-7.09,77.04-16.09,82.01-57.61h5.61c-5.03,41.66-46.94,50.76-82.53,57.97-36.87,7.48-75.66,10.02-111.06,23.4-97.07,36.68,9.96,138.82,49.94,180.37,48.71,50.61,100.44,98.2,149.25,148.7,32.38,33.5,77.8,74.32,90.74,121.03,17.3,62.46-89.17,82.75-130.04,94.65-41.55,12.1-145.77,31.77-130.18,94.83,11.52,46.59,51.46,88.23,81.94,123.29,37.41,43.03,76.89,84.23,113.79,127.7,27.47,32.35,63.66,71.55,73.5,114.11,6.69,28.95-6.07,58.19-21.17,82.27-37.09,59.13-104.08,107.15-108.33,181.68Z"/>
        <path class="cls-1" d="M839.45,1350h-3.06c4.15-73.62,68.34-121.08,104.32-180.07,14.66-24.04,27.03-53.33,20.36-81.96-10.17-43.64-47.9-84.15-76.02-117.37-38.3-45.27-79.18-88.29-117.99-133.12-31.24-36.09-72.83-79.09-84.77-126.95-16.05-64.29,93.1-79.46,134.51-89.37,40.8-9.76,152.08-25.46,134.37-89.18-13.1-47.15-59.16-88.45-91.82-122.29-49.44-51.24-101.8-99.57-151.13-150.91-38.77-40.34-148.88-145.15-52.01-180.91,34.49-12.73,72.27-14.56,108.16-21.35,35.31-6.68,75.54-15.41,80.47-56.52h5.97c-4.91,41.21-45.5,50-80.84,56.78-36.09,6.93-74.07,8.9-108.74,21.76-96.88,35.93,12.67,140.25,51.66,180.81,49.21,51.19,101.44,99.38,150.76,150.47,32.62,33.79,78.53,74.99,91.62,122.06,17.63,63.4-92.79,80.03-133.56,90.2-41.39,10.32-149.68,26.41-133.69,90.4,11.9,47.63,53.14,90.37,84.26,126.29,38.53,44.47,79.13,87.13,117.15,132.04,28.01,33.08,65.42,73.33,75.56,116.78,6.7,28.69-5.72,57.97-20.48,82.03-36.18,59.01-100.96,106.58-105.08,180.38Z"/>
        <path class="cls-1" d="M827.12,1350h-4.8c4.53-73.15,66.91-120.29,102.36-179.29,14.37-23.91,26.74-53.33,20.31-81.7-9.97-43.99-48.79-85.24-77.02-118.67-39.09-46.28-80.75-90.32-120.35-136.17-31.43-36.39-74.15-80.14-85.96-128.48-16-65.47,94.8-77.91,136.59-86.73,41.21-8.71,154.28-21.68,136.37-86.66-13.04-47.31-59.54-88.87-92.25-122.81-49.8-51.65-102.5-100.4-152.19-152.15-38.3-39.89-149.6-145.81-52.6-181.18,51.63-18.82,177.05-3.94,186.21-76.16h6.33c-5.07,40.93-44.49,49.58-79.82,56.06-35.49,6.51-72.85,8.03-106.96,20.5-96.92,35.45,14.14,141.14,52.53,181.11,49.6,51.65,102.21,100.29,151.92,151.83,32.72,33.93,79.09,75.42,92.17,122.7,17.86,64.57-94.89,78.27-135.92,87.23-41.61,9.09-152.16,22.25-136.1,87.35,11.9,48.25,54.29,91.81,85.71,128.17,39.39,45.58,80.85,89.36,119.74,135.38,28.24,33.42,66.74,74.47,76.82,118.41,6.53,28.45-5.81,57.82-20.26,81.78-35.57,58.98-98.45,106.2-102.82,179.47Z"/>
        <path class="cls-1" d="M809.39,1350h-6.68c4.94-73.07,66.45-119.82,101.84-178.88,14.26-23.81,26.73-53.35,20.61-81.62-9.51-43.92-49.02-85.54-77.09-118.77-39.45-46.7-81.47-91.16-121.43-137.43-31.31-36.25-74.76-80.34-86.12-128.69-15.49-65.92,95.04-77.5,137.21-86.17,41.86-8.6,154.69-20.71,136.82-86.5-12.89-47.42-59.48-89.02-92.31-122.9-49.86-51.46-102.67-99.96-152.42-151.53-38.72-40.14-149.45-145.61-52.31-181.29,51.9-19.06,174.84-4.36,185.19-76.21h6.68c-9.87,72.51-133.44,56.76-185.47,75.65-97.26,35.31,14.08,141.35,52.38,181.25,49.84,51.93,102.7,100.85,152.65,152.68,32.65,33.88,79.43,75.56,92.3,122.86,17.96,65.99-95.02,77.73-136.85,86.06-42.42,8.45-152.85,19.59-137.18,85.98,11.41,48.34,54.82,92.42,86.12,128.69,39.94,46.28,81.93,90.77,121.37,137.49,28.06,33.25,67.54,74.86,77.1,118.77,6.14,28.21-6.42,57.75-20.63,81.52-35.32,59.08-96.71,106.07-101.77,179.05Z"/>
        <path class="cls-1" d="M788.68,1350h-7.04c4.71-73.19,66.7-118.86,102.39-177.61,14.45-23.8,26.73-53.28,20.65-81.62-9.43-43.92-49.07-85.53-77.19-118.68-39.54-46.62-81.67-90.96-121.72-137.13-31.36-36.15-74.96-80.22-86.23-128.57-15.11-64.85,95.71-79.02,137.51-88.85,42.02-9.88,154.7-24.43,136.98-89.67-12.82-47.19-58.87-87.91-91.96-121.16-49.45-49.69-101.98-96.2-151.32-146.01-40.38-40.76-147.81-142.26-52.11-180.2,51.71-20.5,171.7-9.96,183.01-80.48h7.04c-11.07,70.84-132.2,58.78-183.94,78.66-96.36,37.02,12.41,140.19,52.17,180.76,49.49,50.5,102.15,97.78,151.75,148.16,33.04,33.56,79.28,74.67,92.14,122.04,17.75,65.41-94.93,78.94-136.88,88.32-41.86,9.37-152.59,22.48-137.38,87.62,11.29,48.35,54.84,92.44,86.18,128.63,40.01,46.21,82.1,90.6,121.61,137.25,28.1,33.18,67.69,74.8,77.14,118.73,6.09,28.33-6.24,57.85-20.62,81.67-35.58,58.9-97.39,104.97-102.15,178.16Z"/>
        <path class="cls-1" d="M767.97,1350h-7.4c4.64-73.07,67.26-117.29,103.37-175.37,14.69-23.62,26.9-52.93,20.83-81.25-9.42-43.89-49.23-85.43-77.42-118.44-39.68-46.48-81.96-90.67-122.15-136.7-31.43-36-75.24-79.99-86.5-128.3-14.99-64.32,96.15-82.63,138.06-94.26,42.23-11.72,155.19-30.37,137.5-95.21-12.59-46.15-58.14-85.21-91.12-116.95-48.9-47.06-100.93-90.75-149.72-137.93-42.57-41.17-144.72-135.98-51.98-177.51,51.69-23.15,167.6-17.85,179.15-88.06h7.4c-11.54,70.22-128.98,62.97-180.68,85.06-93.94,40.15,10.28,137.57,52.02,178.62,49,48.19,101.22,92.96,150.33,141.03,33.06,32.36,78.78,72.08,91.47,118.68,17.69,64.97-95.13,82.01-137.28,93.03-41.83,10.93-152.85,27.64-137.84,92.08,11.26,48.33,54.99,92.36,86.39,128.41,40.14,46.09,82.36,90.34,121.99,136.87,28.16,33.07,67.91,74.63,77.33,118.54,6.07,28.33-6.15,57.72-20.75,81.42-35.95,58.36-98.33,103.12-102.98,176.26Z"/>
        <path class="cls-1" d="M747.26,1350h-7.76c4.71-72.75,68.06-115.23,104.69-172.33,14.95-23.31,27.2-52.36,21.11-80.56-9.46-43.83-49.49-85.24-77.77-118.1-39.86-46.31-82.32-90.31-122.69-136.17-31.54-35.82-75.57-79.66-86.89-127.92-15.08-64.29,96.5-87.93,138.82-101.87,42.41-13.98,156.1-38.06,138.3-102.66-12.26-44.48-57.31-81.21-89.9-110.76-48.24-43.75-99.58-83.94-147.71-127.82-45.31-41.3-140.34-127.56-51.9-173.52,51.65-26.84,162.75-27.6,173.94-98.28h7.76c-11.38,70.43-124.31,68.88-175.99,94.25-90.17,44.27,7.69,133.83,51.92,175.12,48.38,45.16,99.99,86.71,148.49,131.75,32.76,30.43,78,68.08,90.39,113.24,17.75,64.67-95.62,86.62-137.97,99.73-42.14,13.04-153.54,34.6-138.52,98.85,11.29,48.28,55.24,92.18,86.73,128.07,40.3,45.93,82.69,90,122.48,136.38,28.24,32.92,68.19,74.38,77.63,118.24,6.08,28.25-6.14,57.41-20.99,80.85-36.43,57.5-99.49,100.64-104.17,173.53Z"/>
        <path class="cls-1" d="M726.55,1350h-8.12c4.88-72.3,69.06-112.81,106.26-168.71,15.24-22.9,27.6-51.61,21.48-79.65-9.55-43.76-49.81-85-78.2-117.67-40.07-46.11-82.73-89.89-123.31-135.55-31.66-35.62-75.95-79.27-87.36-127.44-15.33-64.67,96.85-94.47,139.73-111.13,42.51-16.52,157.33-47.05,139.31-111.54-11.84-42.37-56.44-76.24-88.37-103.08-47.5-39.93-98.01-76.11-145.4-116.17-31.89-26.96-76.16-60.59-87.16-102.83-7.64-29.36,11.88-51.42,35.31-65.74,51.38-31.39,157.32-38.78,167.71-110.5h8.12c-10.75,71.26-118.69,76.04-170.21,105.59-23.91,13.71-43.55,35.16-35.91,64.67,11.15,43.08,55.61,77.86,87.77,105.9,47.68,41.58,98.53,79.36,146.32,120.81,32.21,27.93,76.98,62.96,88.99,106.19,17.92,64.52-96.42,92.47-138.9,107.98-42.65,15.58-154.58,42.92-139.36,107.4,11.37,48.21,55.56,91.94,87.17,127.63,40.5,45.74,83.08,89.6,123.07,135.79,28.34,32.74,68.51,74.05,78.03,117.84,6.11,28.11-6.2,56.95-21.33,80.03-36.97,56.39-100.83,97.68-105.63,170.16Z"/>
        <path class="cls-1" d="M705.84,1350h-8.48c5.11-71.77,70.19-110.15,108.01-164.68,15.55-22.42,28.07-50.75,21.9-78.58-9.67-43.66-50.19-84.72-78.69-117.18-40.3-45.89-83.18-89.44-123.99-134.87-31.79-35.39-76.35-78.83-87.9-126.9-15.71-65.35,97.28-101.87,140.74-121.51,42.48-19.2,158.83-56.89,140.47-121.39-11.41-40.06-55.6-70.49-86.64-94.39-46.61-35.88-96.28-67.58-142.88-103.48-31.06-23.93-74.89-54.34-85.45-94.22-7.68-28.98,11.55-52.84,33.63-68.73,50.77-36.55,151.48-50.92,160.8-124.06h8.48c-9.78,72.53-112.58,84.06-163.64,118.48-22.64,15.26-41.99,38.37-34.33,67.5,10.74,40.85,54.74,72.6,86.16,97.78,46.92,37.6,96.88,71.21,143.91,108.67,31.44,25.04,75.78,57.01,87.36,97.98,18.21,64.49-97.48,99.23-139.99,117.35-43.23,18.42-155.87,52.19-140.32,117.24,11.5,48.11,55.95,91.64,87.68,127.12,40.71,45.52,83.51,89.16,123.71,135.15,28.45,32.55,68.87,73.68,78.49,117.38,6.15,27.92-6.3,56.4-21.73,79.02-37.57,55.1-102.28,94.35-107.29,166.34Z"/>
        <path class="cls-1" d="M685.13,1350h-8.83c5.39-71.2,71.4-107.38,109.85-160.45,15.87-21.9,28.57-49.81,22.35-77.43-9.81-43.57-50.58-84.41-79.21-116.66-40.54-45.67-83.65-88.96-124.69-134.17-31.93-35.16-76.76-78.36-88.47-126.33-16.17-66.22,97.84-109.72,141.81-132.46,42.8-22.13,159.89-66.82,141.7-131.74-10.51-37.5-55.05-64.68-84.82-85.18-45.8-31.54-94.45-58.7-140.25-90.25-30.08-20.72-73.52-47.66-83.64-85.1-7.75-28.66,11.22-54.5,31.83-71.91,49.73-42.02,145.43-63.56,153.53-138.32h8.83c-8.62,74.06-106.39,92.59-156.6,132.3-21.23,16.79-40.3,41.78-32.59,70.56,10.31,38.46,53.9,66.88,84.41,88.96,46.13,33.38,95.22,62.46,141.36,95.83,30.19,21.84,74.92,50.54,85.59,89.07,17.96,64.88-98.27,106.36-141.18,127.37-43.77,21.44-157.33,61.99-141.36,127.83,11.64,48.01,56.36,91.31,88.23,126.57,40.94,45.3,83.96,88.7,124.4,134.46,28.57,32.34,69.24,73.27,78.99,116.88,6.19,27.71-6.42,55.79-22.16,77.92-38.19,53.69-103.81,90.8-109.08,162.24Z"/>
        <path class="cls-1" d="M664.42,1350h-9.19c5.66-70.65,72.62-104.62,111.7-156.21,16.19-21.37,29.08-48.86,22.81-76.27-9.94-43.47-50.98-84.11-79.72-116.14-40.77-45.44-84.12-88.49-125.4-133.46-32.06-34.93-77.18-77.9-89.04-125.76-16.65-67.18,98.52-117.66,142.88-143.45,36.3-21.1,74.34-41.76,106.42-69.15,20.96-17.9,44.43-43.13,36.51-72.97-9.28-34.95-54.86-58.96-82.98-75.94-45.01-27.18-92.61-49.8-137.62-76.99-29.01-17.53-72.11-40.88-81.82-75.94-7.87-28.4,10.89-56.3,30.02-75.09,48.31-47.46,139.33-76.18,146.25-152.61h9.19c-7.42,75.7-100.44,101.3-149.41,146.41-19.77,18.21-38.61,45.21-30.8,73.71,9.89,36.08,53.12,61,82.61,79.91,45.35,29.08,93.41,53.68,138.76,82.75,29.18,18.7,73.46,43.8,83.78,79.95,8.4,29.45-15.42,54.48-36.3,71.69-32.04,26.4-69.96,45.93-106.1,65.93-44.21,24.47-158.86,71.92-142.42,138.68,11.8,47.91,56.79,90.98,88.79,126.01,41.18,45.07,84.42,88.23,125.09,133.77,28.69,32.13,69.62,72.86,79.5,116.37,6.25,27.5-6.56,55.17-22.61,76.77-38.81,52.23-105.35,87.16-110.9,158.05Z"/>
        <path class="cls-1" d="M643.71,1350h-9.55c5.91-70.17,73.79-101.98,113.46-152.15,16.5-20.87,29.55-47.96,23.24-75.19-10.06-43.38-51.36-83.82-80.22-115.65-41-45.22-84.57-88.03-126.08-132.78-32.19-34.71-77.58-77.45-89.59-125.22-7.9-31.44,15.21-57.83,36.77-77.64,32.24-29.62,70.48-52.73,107.14-76.29,36.63-23.54,74.93-46.7,107.14-76.29,20.19-18.55,45.23-45.81,36.96-75.78-9.06-32.85-54.16-53.1-81.24-67.16-44.26-22.98-90.82-41.22-135.08-64.2-28.13-14.61-70.41-34.26-80.1-67.24-8.23-28.05,10.75-58.32,28.31-78.12,46.61-52.57,133.39-88.27,139.27-166.3h9.55c-6.32,77.33-94.97,109.9-142.37,160.22-18.21,19.33-37.19,48.61-29.06,76.78,9.78,33.91,52.28,55.17,80.86,71.1,44.59,24.86,91.61,45.06,136.21,69.91,27.55,15.35,72.86,37.29,82.01,71.05,8.1,29.91-16.23,56.26-36.77,74.53-32.15,28.61-70.34,50.65-106.82,73.11-36.51,22.47-74.64,44.46-106.82,73.11-21.7,19.31-44.42,44.99-36.63,76.17,11.95,47.81,57.21,90.65,89.35,125.46,41.41,44.85,84.87,87.77,125.77,133.08,28.81,31.92,69.99,72.45,80,115.87,6.3,27.31-6.68,54.58-23.05,75.67-39.41,50.8-106.88,83.58-112.68,153.95Z"/>
        <path class="cls-1" d="M623,1350h-9.91c6.1-69.8,74.84-99.58,115.07-148.46,16.8-20.42,29.97-47.17,23.61-74.25-10.16-43.3-51.69-83.57-80.66-115.21-41.22-45.02-84.99-87.61-126.71-132.15-32.31-34.5-77.96-77.05-90.07-124.73-8.12-31.94,15.77-59.75,37.03-80.51,32.38-31.63,70.85-57.03,107.8-82.85,36.92-25.8,75.45-51.25,107.8-82.85,19.53-19.07,45.96-48.19,37.34-78.25-8.93-31.15-53.52-47.85-79.68-59.32-43.58-19.1-89.15-33.28-132.73-52.39-27.25-11.95-69.02-28.24-78.56-59.49-8.49-27.81,10.58-60.15,26.81-80.82,44.82-57.06,127.82-99.3,132.94-178.73h9.91c-5.43,78.81-90.15,118.05-135.81,173.09-16.88,20.35-35.78,51.62-27.48,79.6,9.49,32,51.67,49.87,79.25,62.99,43.89,20.88,89.91,36.92,133.8,57.79,26.57,12.63,71.4,30.96,80.38,62.86,8.45,30.02-17.35,58.29-37.18,77.14-32.28,30.68-70.71,55.09-107.5,79.85-36.82,24.78-75.18,49.14-107.5,79.85-21.4,20.34-44.94,47.52-36.91,79.24,12.07,47.72,57.59,90.36,89.85,124.95,41.62,44.64,85.3,87.33,126.42,132.44,28.92,31.72,70.34,72.07,80.46,115.41,6.34,27.15-6.78,54.05-23.44,74.67-39.97,49.46-108.32,80.18-114.34,150.13Z"/>
        <path class="cls-1" d="M602.29,1350h-10.27c6.19-69.59,75.71-97.53,116.42-145.34,17.08-20.06,30.29-46.54,23.91-73.53-10.21-43.24-51.96-83.38-81.02-114.85-41.4-44.84-85.35-87.24-127.26-131.6-32.41-34.31-78.29-76.71-90.47-124.33-8.26-32.31,16.26-61.17,37.24-82.67,32.55-33.35,71.19-60.76,108.37-88.55,37.16-27.77,75.85-55.23,108.37-88.54,19.02-19.48,46.55-50.08,37.6-80.21-8.9-29.97-52.9-43.58-78.41-52.91-42.99-15.72-87.68-26.31-130.68-42.04-26.69-9.77-67.67-23.11-77.3-53.16-8.82-27.53,10.58-61.81,25.64-83.02,43.11-60.72,122.82-108.78,127.58-189.25h10.27c-4.87,80.02-86.12,125.35-130.04,184.4-15.59,20.96-34.84,54.36-26.16,82.02,9.59,30.57,50.94,45.26,77.87,56.03,43.27,17.31,88.37,29.57,131.63,46.87,25.78,10.31,70.08,25.35,78.98,55.82,8.8,30.09-18.25,60.03-37.49,79.33-32.44,32.52-71.05,59.04-108.11,85.9-37.08,26.87-75.64,53.35-108.11,85.9-21.12,21.17-45.35,49.58-37.15,81.73,12.16,47.65,57.92,90.11,90.29,124.52,41.82,44.45,85.69,86.94,127,131.86,29.02,31.55,70.66,71.75,80.85,115.01,6.37,27.03-6.83,53.63-23.78,73.85-40.48,48.3-109.64,77.1-115.8,146.77Z"/>
        <path class="cls-1" d="M581.58,1350h-10.62c6.15-69.6,76.32-95.94,117.45-142.98,17.33-19.82,30.47-46.14,24.1-73.11-10.21-43.21-52.14-83.26-81.27-114.6-41.55-44.7-85.65-86.94-127.7-131.16-32.49-34.17-78.58-76.46-90.76-124.05-8.31-32.48,16.65-61.92,37.36-83.87,32.73-34.68,71.48-63.69,108.83-93.08,37.33-29.36,76.13-58.42,108.83-93.08,18.7-19.82,46.9-51.26,37.7-81.5-8.95-29.43-52.25-40.67-77.51-48.41-42.52-13.03-86.5-20.64-129.02-33.68-26.46-8.11-66.74-19.26-76.42-48.75-8.98-27.37,10.66-62.93,24.89-84.55,41.66-63.33,118.58-116.21,123.52-197.2h10.62c-4.77,80.81-83.03,131.4-125.38,193.55-14.6,21.42-34.13,56.44-25.2,83.87,9.66,29.68,50.28,41.83,76.81,50.7,42.74,14.3,87.05,23.33,129.8,37.62,25.32,8.47,68.99,20.8,77.91,50.41,9.09,30.18-18.84,61.29-37.67,80.94-32.61,34.03-71.36,62.34-108.61,90.95-37.27,28.63-75.98,56.89-108.61,90.96-20.85,21.76-45.62,50.98-37.31,83.4,12.19,47.6,58.18,89.94,90.63,124.18,41.98,44.29,86.02,86.6,127.49,131.37,29.09,31.4,70.94,71.49,81.16,114.71,6.38,26.98-6.81,53.36-24.02,73.28-40.93,47.38-110.8,74.49-116.98,144.06Z"/>
        <path class="cls-1" d="M560.87,1350h-10.98c5.95-69.86,76.6-94.92,118.06-141.57,17.55-19.74,30.5-46.03,24.16-73.06-10.13-43.21-52.21-83.24-81.38-114.48-41.64-44.61-85.87-86.72-128.02-130.84-32.54-34.06-78.79-76.32-90.89-123.91-8.24-32.42,16.94-61.8,37.39-83.87,32.92-35.53,71.7-65.65,109.14-96.14,37.42-30.48,76.24-60.64,109.14-96.14,18.65-20.13,46.92-51.52,37.6-81.93-9.07-29.63-51.47-39.52-77.1-46.33-42.18-11.2-85.67-16.59-127.85-27.79-26.69-7.09-66.38-17.08-76.02-46.74-8.91-27.41,10.88-63.27,24.67-85.24,40.63-64.73,115.28-121.14,121.11-201.94h10.98c-5.27,81-81.03,135.75-122.14,199.91-13.96,21.79-33.69,57.63-24.71,84.99,9.67,29.47,49.67,39.92,76.17,47.46,42.34,12.04,86.05,18.49,128.39,30.52,25.36,7.21,68.25,17.66,77.25,47.09,9.27,30.31-19.04,61.85-37.68,81.82-32.79,35.13-71.61,64.78-109,94.75-37.4,29.98-76.18,59.59-109,94.75-20.58,22.05-45.69,51.54-37.39,84.03,12.15,47.58,58.33,89.86,90.84,123.96,42.1,44.17,86.27,86.34,127.87,130.99,29.15,31.29,71.16,71.32,81.34,114.52,6.36,26.99-6.7,53.28-24.15,73.04-41.3,46.8-111.73,72.49-117.8,142.17Z"/>
        <path class="cls-1" d="M540.16,1350h-11.34c-3.29-69.37,73.95-99.14,114.64-142.76,18.25-19.57,33.28-45.55,26.6-73.25-10.48-43.41-51.85-83.04-81.35-114.43-41.31-43.95-85.25-85.34-127.08-128.79-32.83-34.1-78.38-76-90.79-123.69-8.5-32.67,16.34-61.79,37.03-84.1,33.02-35.62,71.91-65.83,109.45-96.41,37.52-30.56,76.46-60.81,109.45-96.41,18.71-20.19,46.78-51.39,37.43-81.86-9.18-29.92-51.92-39.87-77.82-46.71-42.41-11.2-86.14-16.52-128.57-27.67-26.16-6.87-66.36-16.66-75.05-46.3-8.02-27.38,14.24-63.67,28.1-85.06,40.36-62.34,117.42-123.02,117.94-202.57h11.34c-6.4,80.42-80.25,137.98-120.59,202.85-14.04,22.58-33.12,57.24-24.84,85.22,8.87,29.99,49.5,39.99,76.01,46.74,42.08,10.72,85.45,15.4,127.52,26.11,26.03,6.62,67.96,16.32,77.11,46.31,9.31,30.53-18.76,61.54-37.48,81.81-32.98,35.7-71.79,66.17-109.22,96.97-37.45,30.81-76.22,61.24-109.22,96.97-20.33,22.01-45.53,51.11-37.35,83.42,12.04,47.61,58.35,89.88,90.9,123.91,42.18,44.08,86.43,86.15,128.09,130.72,29.19,31.22,71.3,71.26,81.38,114.49,6.32,27.1-6.53,53.42-24.18,73.18-41.58,46.56-112.49,71.25-118.13,141.31Z"/>
        <path class="cls-1" d="M519.45,1350h-11.7c-21.7-66.49,63.86-107.39,102.85-146.99,18.36-18.65,38.04-43.9,33.64-71.85-7.64-48.5-57.47-92.87-89.71-125.96-39.95-41.02-82.22-79.73-121.96-120.95-29.57-30.67-64.13-64.59-79.98-105.19-14.85-38.04,9.61-68.92,35.04-95.55,32.93-34.5,71.42-63.6,108.7-93.12,37.25-29.51,75.78-58.65,108.7-93.12,20.47-21.44,53.03-57.48,36.05-89.63-13.67-25.88-53.13-35.6-78.59-42.83-39.86-11.32-80.83-18.17-120.82-28.98-27.32-7.38-77.4-18.19-82.37-52.65-4.1-28.42,22.06-63.25,37.2-84.58,40.3-56.75,121.89-122.34,111.25-198.59h11.7c4.45,78.11-74.38,140.89-114.8,200.63-14.23,21.04-38.56,56.87-32.36,84.76,7.16,32.23,52.2,42.1,78.94,49.21,42.43,11.28,86.12,17.25,128.42,29.06,24.51,6.84,63.06,17.08,74.2,43.3,12.15,28.59-13.13,59.45-30.94,79.48-33.91,38.13-75.38,69.48-114.93,101.41-39.55,31.93-81.02,63.28-114.93,101.41-20.7,23.27-40.92,50.96-30.21,83.46,13.48,40.91,48.56,75.51,77.51,106.22,46,48.8,95.82,93.87,141.5,142.96,28.79,30.94,68.73,68.66,77.43,111.88,5.59,27.78-11.71,53.26-30.06,72.25-39.85,41.23-121.05,75.94-109.77,143.95Z"/>
        <path class="cls-1" d="M498.74,1350h-12.06c-40.69-63.28,47.83-114.94,86.28-153.99,21.48-21.81,47.27-51.15,38.64-84.17-10.54-40.33-45.68-74.29-73.81-103.19-42.29-43.44-88.16-83.22-130.8-126.31-28.33-28.63-60.56-60.24-76.08-98.27-15.01-36.77,5.94-66.07,30.94-92.34,33.93-35.65,74.55-64.82,113.54-94.56s79.61-58.92,113.54-94.56c19.1-20.07,46.85-51.83,33.79-81.78-12.54-28.77-54.21-40.51-81.16-49.19-42.38-13.64-86.15-22.42-128.6-35.83-24.26-7.67-70.91-19.07-76.81-49.34-5.6-28.76,26.46-66.42,42.11-87.23,25.27-33.6,54.1-64.43,78.52-98.68,21.43-30.05,41.22-62.98,29.91-100.56h12.06c8.11,39.31-12.78,72.72-35.15,103.6-23.15,31.96-49.75,61.23-73.15,93-15.95,21.65-50.07,64.08-39.63,93.75,9.77,27.77,51.97,37.59,76.24,44.68,39.96,11.68,81,19.24,121,30.77,27.88,8.04,75.72,19.52,87.07,50.95,10.34,28.62-15.87,59.53-33.4,78.54-33.94,36.82-75.03,66.95-114.34,97.67-39.31,30.72-80.4,60.85-114.34,97.67-20.76,22.53-41.98,49.85-32.64,81.99,13.2,45.4,54.79,83.88,86.83,116.4,39.15,39.75,80.59,77.18,119.57,117.11,30.3,31.04,67.52,66.58,81.61,108.91,11.17,33.54-10.61,62.25-33.15,85.05-38.73,39.18-126.4,84.64-96.5,149.91Z"/>
        <path class="cls-1" d="M478.03,1350h-12.41c-61.39-62.66,34.28-127.21,74.34-171.74,20.34-22.61,45.43-52.37,36.74-85.02-11.35-42.62-50.91-77.99-81.48-107.31-39.41-37.8-81.49-72.73-120.32-111.14-25.7-25.43-54.41-53.68-67.6-88.02-13.33-34.68,6.55-62.47,30.23-86.88,34.71-35.77,76.79-64.38,116.97-93.52s82.26-57.75,116.97-93.53c19.81-20.42,46.3-51.91,30.68-81.95-13.19-25.38-50.82-38.56-75.66-47.94-44.17-16.7-90.16-27.94-134.73-43.46-24.1-8.39-75.4-22.23-80-53.41-4.35-29.51,33.39-68.95,50.06-89.49,27.75-34.19,58.62-66.14,83.57-102.52,19.66-28.66,36.57-60.3,20.23-94.06h12.41c13.47,36.05-5.22,68.48-25.89,97.9-25.6,36.44-56.52,68.76-83.59,104.06-14.61,19.06-44.71,53.84-42.64,80.81,2.5,32.64,51.83,45.67,76.68,53.87,44.88,14.81,91.26,24.72,135.88,40.4,24.66,8.66,63.05,21.12,75.56,46.72,15.25,31.22-14.4,64.45-34.6,85.09-33.87,34.59-73.99,62.94-112.61,91.85s-78.75,57.26-112.61,91.85c-24.38,24.9-47.17,54.05-33.86,90.13,13.43,36.4,43.89,66.54,70.68,93.62,40.9,41.34,85.19,79.13,126.47,120.08,30.25,30.01,73.61,69,81.37,113.4,4.9,28.04-16.02,53.99-33.51,73.3-38.6,42.59-137.99,101.95-87.31,166.91Z"/>
        <path class="cls-1" d="M457.32,1350h-12.77c-121.1-91.77,125.16-181.52,93.43-282.12-9.49-30.08-34.09-55.08-56.14-76.66-28.18-27.57-58.85-52.52-88.75-78.17-25.79-22.12-51.76-44.42-74.47-69.77-17.82-19.89-39.69-46.05-39.28-74.52.35-24.11,18.53-44.32,34.67-60.42,26.43-26.38,57.55-48.06,88.1-69.34,57.43-40.01,133.25-78.85,173.29-138.45,37.07-55.19-24.22-87.08-68.98-106.14-62.81-26.75-135.44-39.89-193.19-77.22-27.22-17.6-31.14-34.61-14.98-61.83,17.63-29.69,41.62-55.6,64.42-81.32,35.18-39.67,122.45-115.55,81.88-174.05h12.77c18.12,32.21,2.5,63.29-16.55,91.55-24.49,36.32-55.32,68.02-83.39,101.5-17.61,21.01-56.46,59.35-55.54,89.52.96,31.37,48.85,46.33,72.15,55.21,44.12,16.82,89.89,28.87,134.09,45.47,28.32,10.64,73.89,25.25,87.69,55.64,13.76,30.31-13.42,61.04-33.32,80.91-34.72,34.67-76.31,62.42-116.16,90.71-39.85,28.29-81.44,56.04-116.16,90.71-23.11,23.08-44.78,50.63-33.04,84.64,13.19,38.24,47.27,69.39,75.8,96.4,38.08,36.04,78.84,69.14,116.67,105.46,28.2,27.08,66.25,61.52,73.83,102.04,6.03,32.28-21.09,62.75-40.77,84.94-25.76,29.05-56.4,55.12-77.36,88.12-21.33,33.57-17.2,60.88,12.09,87.19Z"/>
        <path class="cls-1" d="M436.61,1350h-13.13c-27.11-16.4-51.24-36.71-47.11-71.13,3.87-32.23,26.52-60.62,45.77-85.51,29.46-38.11,94.21-95.65,76.79-150.15-18.69-58.47-90.33-100.7-135.57-136.72-36.93-29.4-106.37-75.37-107.48-129.3-.5-24.3,18.7-44.76,35.1-60.36,27.49-26.14,59.84-47.11,91.48-67.82,57.39-37.56,133.06-73.26,173.57-130.64,38.57-54.63-23.32-88.81-67.14-110.01-65.54-31.71-142.7-48.32-202.49-90.75-27.93-19.82-28.64-37.56-9.84-64.59,21.07-30.28,47.37-56.9,72.34-83.91,27.54-29.79,131.32-125.23,74.58-169.13h13.13c43.64,55.94-43.14,132.29-77.83,170.76-24.65,27.33-50.78,54.53-70.07,86.08-14.87,24.32-13.1,40.14,10.28,57.58,56.02,41.78,133.86,55.81,197.18,83.55,45.71,20.03,111.32,53.61,70.96,110.52-41.06,57.9-115.25,95.27-172.57,134.27-30.35,20.65-61.19,41.67-87.68,67.23-17.21,16.6-37.26,38.12-36.48,63.76,1.71,56.33,74.57,106.06,112.47,137.67,47.38,39.52,119.94,85.25,140.47,146.68,34.27,102.57-219.42,200.09-86.72,291.9Z"/>
        <path class="cls-1" d="M415.9,1350h-13.49c-31.76-16.05-64.02-37.11-62.61-76.99,1.24-35.17,24.51-68.37,43.87-96.13,28.23-40.47,92.62-102.14,75.75-157.2-16.66-54.4-85.72-90.77-128.65-121.91-34.82-25.26-97.16-63.63-98.19-113.07-.51-24.48,18.83-44.45,35.83-59.64,28.52-25.48,61.92-45.6,94.43-65.46,33.37-20.38,67.32-39.86,99.95-61.42,26.9-17.76,58.15-37.73,76.63-64.97,36.61-53.97-31.43-91.01-72.58-112.52-67.45-35.26-149.14-56.05-208.94-104.18-26.05-20.96-24.86-37.35-5.4-62.52,23.55-30.46,51.59-57.43,78.25-85.11C364.4,133.97,462.35,48.89,402.41,0h13.49c54.05,52.27-42.02,135.57-76.17,171.88-25.02,26.6-51.21,52.78-72.48,82.56-17.49,24.47-18.56,40.76,5.56,60.35,29.13,23.66,68,37.55,102.14,51.88,34.95,14.66,70.32,28.53,104.34,45.27,41.8,20.56,108.15,55.64,71.98,109.76-19.38,28.99-51.42,50.37-79.77,69.65-31.5,21.42-64.17,41.05-96.26,61.55-31.46,20.1-63.51,40.4-91.08,65.74-16.71,15.35-35.73,34.84-36.68,58.94-2.11,53.62,69.4,98.99,105.84,127.05,44.11,33.96,111.92,73.07,130.88,128.9,18.47,54.4-44.41,112.11-73.75,151.13-20,26.61-45.45,59.1-47.23,93.81-1.82,35.63,24.15,55.43,52.68,71.55Z"/>
        <path class="cls-1" d="M395.19,1350h-13.85c-36.67-15.95-76.44-37.97-77.83-82.96-1.11-36.11,18.81-70.37,37.26-100.06,20.09-32.32,43.57-62.62,61.98-95.97,12.33-22.33,25-48.75,17.6-74.83-14.25-50.25-81.53-80.52-121.62-106.49-33.28-21.56-91.95-54.6-89.27-101.57,1.32-23.08,20.13-40.85,36.66-54.89,29.33-24.91,63.68-43.99,97-62.93,34.34-19.52,69.24-38.14,102.78-59.03,26.13-16.27,54.7-34.09,73.58-58.95,41.27-54.34-34.22-96.48-74.84-119.43-37.23-21.04-76.16-38.93-114.46-57.88-34.2-16.92-72.4-33.53-100.79-59.69-23.37-21.54-20.83-37.61-1.26-60.45,26.19-30.55,56.05-57.91,84.5-86.31C346.56,134.72,451.34,44.5,381.35,0h13.85c64.11,47.98-39.41,136.92-73.31,171.52-26.75,27.31-54.76,53.89-78.62,83.85-19.66,24.7-19.02,41.04,6.03,61.85,28.65,23.8,65.48,39.04,98.92,54.62,36.58,17.04,73.65,33.17,109.26,52.18,41.51,22.16,114.51,61.83,74.51,116.74-19.31,26.51-49.76,45.69-76.87,63.15-32.41,20.86-66.05,39.73-99.14,59.46-32.32,19.27-65.45,38.78-94.03,63.48-16.79,14.51-37.01,34.33-37.37,58.29-.74,49.42,61.84,86.5,96.66,110.82,41.15,28.73,108.56,62.74,124.51,114.46,17.6,57.04-49.33,121.52-77.69,164.29-18.81,28.37-41.25,62.4-40.76,97.96.55,40.68,35.18,61.65,67.91,77.34Z"/>
        <path class="cls-1" d="M374.48,1350h-14.2c-41.35-15.74-88.36-38.19-93.39-87.89-3.91-38.58,16.63-77.29,35.14-109.55,20.22-35.25,44.31-68.28,63.19-104.3,11.91-22.71,24.28-50.47,16.25-76.49-13.63-44.21-74.9-67.43-111.34-87.82-31.95-17.88-87.02-45.12-83.96-89.43,1.6-23.17,21.2-40.59,38.18-54.06,30.23-23.97,65.1-42.07,99.09-60.04,32.96-17.42,66.34-34.1,98.64-52.73,27.99-16.15,60.23-34.11,80.12-60.46,41.49-54.97-45.04-102.51-83.95-125.48-36.39-21.47-74.18-40.47-111.41-60.41-35.04-18.76-74.37-37.36-103.16-65.37-26.32-25.6-17.31-42.3,5.74-66.07,27.8-28.67,57.74-55.2,86.48-82.9C330.22,133.92,439.84,39.78,360.28,0h14.2c73.73,43.31-34.96,136.23-69.14,169.86-28.4,27.95-58.18,54.83-84.58,84.72-21.61,24.47-22.75,40.66,3,63.42,29.17,25.79,66.92,42.96,101.35,60.42,35.54,18.02,71.53,35.26,106.26,54.82,39.72,22.36,124.08,67.27,83.45,122.77-19.12,26.11-49.62,44.28-76.78,60.81-33.08,20.14-67.47,38.07-101.33,56.85-33.01,18.31-66.81,36.85-96.25,60.71-17.52,14.2-37.82,32.92-38.63,57.11-1.58,46.68,57.16,77.59,90.67,98.25,37.61,23.2,98.83,50.06,114.18,95.68,8.99,26.73-3.52,54.7-16.2,77.96-18.22,33.43-41.24,64.01-60.98,96.53-19.18,31.58-41.2,69.16-37.73,107.59,4.11,45.47,44.87,66.78,82.7,82.51Z"/>
        <path class="cls-1" d="M353.77,1350h-14.56c-43.5-14.59-95.03-35.2-106.87-85.01-10.11-42.53,11.57-87.58,31.2-124.06,19.32-35.89,42.47-69.58,61.6-105.56,12.94-24.35,28.56-55.6,19.83-83.95-12.5-40.59-70.18-57.6-104.28-73.52-31.01-14.47-81.31-36.4-77.4-78.53,2.14-23.1,22.47-40.06,39.8-52.98,30.87-23.01,66.32-40.06,100.71-57.04,33.5-16.54,67.39-32.35,100.22-50.21,27.98-15.22,60.14-32.13,79.9-58,40.56-53.1-46.19-103.14-82.94-126.33-39.54-24.95-80.83-46.99-121.41-70.17-33.93-19.39-70.82-38.82-99.09-66.27-8.23-7.99-19.22-19.05-19.89-31.45-.81-15.16,13.84-25.31,23.68-34.71,31.42-30.04,64.66-58.11,96.36-87.84C316.36,130.86,427.53,34.81,339.21,0h14.56c83.17,38.64-30.02,135.17-64.79,168.26-30.11,28.65-61.57,55.97-90.64,85.69-23.71,24.24-25.76,40.47.07,64.62,29.61,27.68,68.42,46.71,103.68,65.92,36.85,20.08,74.19,39.36,110.17,61.01,39.55,23.8,127.21,73.15,82.51,128.34-20.65,25.5-51.9,42.76-80.02,58.58-31.92,17.95-64.84,34.06-97.35,50.9-33.62,17.41-68.2,34.9-98.35,58.04-17.92,13.76-38.91,31.85-40.02,56.15-1.96,42.61,49.78,67.39,81.04,84,36.49,19.39,96.79,40.5,109.98,84.37,8.35,27.77-6.44,57.78-19.3,81.64-18.18,33.72-40.27,65.16-59.12,98.49-19.45,34.39-41.51,75.85-35.61,116.85,7.15,49.7,55.78,71.78,97.77,87.15Z"/>
        <path class="cls-1" d="M333.06,1350h-14.92c-49.85-14.72-110.67-36.81-122.18-94.59-8.59-43.14,12.01-88.01,31.45-125.33,19.89-38.18,44.12-73.91,64.04-112.06,12.63-24.19,29.01-56.27,19.46-84.45-22.7-67-178.5-46.1-170.08-129.66,2.35-23.36,22.75-39.79,40.67-52.5,29.71-21.07,63.42-36.58,96.3-51.95,36.12-16.88,72.75-32.77,108.16-51.12,26.97-13.98,57.42-29.44,77.17-53.28,45.39-54.78-50.89-110.42-88.42-134.72-38.67-25.04-78.8-47.71-118.28-71.43-34.71-20.86-72.48-41.68-101.2-70.69-8.66-8.75-19.67-20.37-19.02-33.74.7-14.3,16.51-24.14,26.24-32.74,33.77-29.85,68.73-58.34,102.03-88.73C301.8,128.96,415.41,30.14,318.14,0h14.92c92.05,33.86-24.15,133.47-60.17,166.74-30.32,28.01-61.92,54.62-92.21,82.66-9.82,9.09-26.54,20.17-27.38,34.73-.79,13.61,11.21,25.9,20.03,34.63,29.82,29.5,69.76,50.11,105.73,70.87,38.1,22,76.74,43.17,113.9,66.76,37.06,23.53,127.52,75.88,84.45,129.74-20.18,25.23-52.1,41.78-80.05,56.69-32.6,17.39-66.21,32.78-99.44,48.89-34.19,16.57-69.41,33.14-100.21,55.62-17.31,12.63-38.02,29.19-40.92,51.99-5.42,42.6,45.1,63.66,76.41,77.38,33.41,14.64,88.74,29.7,101.34,68.87,8.95,27.84-6.06,58.42-18.6,82.57-19.97,38.46-44.74,74.22-64.85,112.62-18.48,35.29-37.72,77.37-29.84,118.18,10.45,54.17,65.01,75.92,111.82,91.06Z"/>
        <path class="cls-1" d="M312.35,1350h-15.28c-51.01-13.13-115.63-32.57-133.29-89.23-14.41-46.21,8.05-96.79,28.94-137.27,20.67-40.05,46.06-77.38,67.44-117.02,13.12-24.32,30.56-56.39,20.71-84.91-22.54-65.24-165.11-30.65-162.34-112.03.8-23.44,20.42-39.92,38.09-52.53,30.99-22.12,66.93-37.56,101.57-52.93,34.6-15.36,69.61-29.86,103.63-46.5,28.58-13.99,61.57-29.61,82.25-54.73,45.22-54.93-56.62-113.66-93.24-137.95-39.64-26.3-80.7-50.37-121.05-75.55-34.55-21.56-72.74-43.38-100.76-73.47-8.16-8.77-19.43-21.58-16.45-34.87,2.91-12.99,20.5-22.78,30.15-30.71,36.01-29.59,72.57-58.52,107.32-89.6,30.8-27.55,66.53-58.18,85.35-95.82,18.39-36.79-2.03-56.12-38.32-64.87h15.28c35.52,10.29,51.39,30.66,33.59,65.66-19.64,38.62-55.85,69.99-87.53,98.58-33.24,29.99-68.06,58.14-101.89,87.44-9.89,8.56-25.82,17.66-27.1,32.01-1.14,12.74,9.63,24.7,17.66,33.16,29.17,30.73,69.51,52.65,105.36,74.38,39.06,23.68,78.72,46.41,116.95,71.43,36.72,24.04,132.34,79.35,89.6,133.68-19.69,25.03-52.11,40.81-79.8,54.94-32.99,16.83-67.03,31.53-100.7,46.93-35.97,16.45-73.41,32.85-105.59,56.19-17.29,12.54-36.7,28.71-38.27,51.57-5.68,83.08,145.42,56.99,167.73,124.38,9.23,27.89-6.83,59.33-19.47,83.4-21.13,40.23-46.82,77.89-67.42,118.43-18.9,37.21-38.42,82.15-28.52,124.73,13.35,57.43,75.43,78.86,125.41,93.08Z"/>
        <path class="cls-1" d="M291.64,1350h-15.64c-55.44-12.18-130.34-31.53-146.63-95.34-11.78-46.14,10.92-95.63,32.08-135.5,20.97-39.53,46.45-76.37,68.96-114.99,14.42-24.76,34.98-57.21,25.33-87.24-21.32-66.37-165.81-23.6-158.66-108.93,1.87-22.37,21.45-38.31,38.53-50.23,31.35-21.89,67.76-36.94,102.72-51.92,35.03-15.01,70.48-29.13,104.87-45.6,27.53-13.18,59.01-27.9,79.23-51.6,47.23-55.37-54.33-114.34-91.64-139.59-38.42-26.01-78.15-50.03-117.32-74.88-37-23.48-78.6-47.17-108.49-79.82-28.06-30.65-10.05-42.81,17.54-64.12,38.1-29.43,76.27-58.84,112.46-90.62,31.29-27.47,68.1-58.66,86.49-96.98,18.9-39.38-9.07-55.9-45.48-62.62h15.64c35.83,8.08,58.28,26.17,40.62,63.37-18.7,39.38-57.06,71.37-89.05,99.62-33.32,29.42-68.21,56.98-102.8,84.87-10.86,8.76-33.01,20.3-34.29,36.34-.96,12.06,9.3,23.55,16.87,31.72,29.49,31.84,70.33,54.7,106.76,77.48,40.09,25.07,80.81,49.2,120.03,75.63,36.67,24.7,134.29,82.31,88.27,136.36-21,24.67-53.66,40.03-82.23,53.85-33.75,16.32-68.46,30.55-102.78,45.62-34.43,15.12-70.08,30.31-101,51.99-17.64,12.37-37.68,28.69-39.07,51.91-5,83.36,141.36,44.96,161.52,112.71,8.75,29.42-10.02,61.65-23.72,86.33-21.95,39.55-47.43,77.05-68.01,117.38-20.6,40.35-42.41,91.1-27.04,136.86,18.97,56.46,84.56,75.24,135.93,87.97Z"/>
        <path class="cls-1" d="M270.93,1350h-15.99c-54.2-12.95-122.25-32.6-139.32-93.42-12.44-44.31,6.98-91.91,26.4-131.19,21.1-42.69,47.91-82.13,70.72-123.86,13.32-24.37,31.67-55.4,21.09-84.04-23.07-62.42-161.57-27.48-155.71-108.53,1.77-24.52,25.35-42.22,44.02-54.85,29.33-19.85,62.35-34.38,94.58-48.77,35.03-15.64,70.55-30.34,104.87-47.52,27.28-13.65,59.04-29.3,78.27-53.92,42.4-54.31-57.15-111.72-93.41-136.66-38.48-26.47-78.24-50.99-117.36-76.48-34.97-22.79-74.67-45.81-102.47-77.56-26.01-29.71-10.36-42.04,16.25-63.08,36.4-28.78,72.88-57.52,107.5-88.45,31.3-27.96,69.05-60.01,86.63-99.17,16.89-37.62-6.88-54.79-42.07-62.49h15.99c38.73,6.74,66.24,24.48,45.62,65.2-19.35,38.19-56.39,69.16-88.11,96.71-36.14,31.39-74.18,60.5-112.22,89.52-9.53,7.27-27.27,16.13-31.56,27.88-4.67,12.8,7.16,26.41,14.96,34.93,28.04,30.61,66.71,53.07,101.31,75.24,43,27.55,86.81,53.89,128.97,82.74,37.36,25.57,134.58,82.99,86.68,137.61-20.43,23.29-51.68,37.91-79.13,50.98-34.09,16.23-69.22,30.15-103.94,44.95-34.75,14.82-70.8,29.68-102.06,51.23-17.01,11.73-36.97,27.57-39.38,49.73-9.4,86.5,136.15,43.8,158.17,109.12,9.35,27.75-7.93,56.81-21.23,80.02-24.39,42.56-53.08,82.51-76.02,125.93-20.93,39.63-43.13,88.84-30.58,134.55,17.39,63.3,93.05,81.92,148.5,93.65Z"/>
        <path class="cls-1" d="M250.22,1350h-16.35c-51.31-14.15-112.81-35.68-128.07-93.45-11.36-42.99,6.06-89.13,23.95-127.77,19.23-41.52,43.84-80.18,64.63-120.88,12.61-24.69,29.38-55.65,18.96-83.87-22.91-62.07-152.05-36.18-148.73-114.51.95-22.45,21.1-40.53,37.47-53.4,29.45-23.16,64.1-39.88,97.48-56.45,54.25-26.94,129.36-52.26,167.09-102.64,40.37-53.91-48.14-107.16-85.05-133.52-35.63-25.45-72.54-49.02-108.84-73.48-33.37-22.49-70.59-45.31-97.5-75.74-7.33-8.28-17.51-20.1-16.39-32.15,1.32-14.1,17.67-22.63,27.48-30.89,34.02-28.67,68.3-57.08,100.8-87.5C225.6,127.74,332.88,28.43,233.87,0h16.35c35.62,8.3,57.4,26.96,40.16,63.9-18.38,39.36-55.89,71.67-87.55,100.06-33.01,29.6-67.68,57.27-102.29,84.95-10.14,8.11-30.06,18.69-32.17,32.96-1.93,12.98,10.07,25.85,18.03,34.4,27.83,29.89,65.19,52.27,99.05,74.5,41.02,26.92,82.81,52.73,122.96,80.98,36.55,25.72,126.72,79.92,83.06,132.76-19.23,23.28-48.75,38.48-75.14,51.98-34.21,17.5-69.66,32.46-104.61,48.39-32.13,14.64-65.09,29.44-94.2,49.66-17.52,12.17-40.31,29.61-42.91,52.68-9.14,81.34,132.5,49.71,154.79,111.86,10.43,29.08-8.54,61.11-22.01,85.82-21.67,39.74-46.68,77.59-66.75,118.21-20.33,41.15-41.41,92.33-25.87,138.5,19.05,56.6,83.76,75.64,135.45,88.41Z"/>
        <path class="cls-1" d="M229.51,1350h-16.71c-48.89-15.4-102.39-37.81-116.23-92.48-10.49-41.42,4.77-85.41,21.19-123.19,17.38-39.98,39.85-77.42,58.52-116.76,11.94-25.16,26.84-55.15,17.38-83.4-20.86-62.36-144.89-49.46-137.88-127.5,4.74-52.84,81.57-89.37,120.58-112.19,50.59-29.6,117.73-57.99,151.48-108.36,35.96-53.68-36.89-101.3-74.24-129.46-31.95-24.09-65.19-46.4-97.87-69.47-30.76-21.72-64.85-43.7-89.43-72.7-7.31-8.62-17.28-20.69-15.87-32.96,1.58-13.74,18.76-24.41,28.21-33.07,29.73-27.22,59.82-54.07,88.35-82.57C203.75,129.18,302.46,33,212.8,0h16.71c95.65,28.96-5.99,125.18-43.74,161.25-32.29,30.86-66.51,59.6-100.42,88.64-25.98,22.25-38,34.79-12.64,63.79,26.68,30.51,63.3,53.31,96.53,75.87,36.02,24.46,72.65,48.05,107.92,73.58,37.98,27.49,122.87,79.57,80.29,133.79-38.41,48.9-109,74.34-162.66,101.79-31.78,16.26-64.3,32.75-92.6,54.73-16.57,12.88-37.84,31.59-39.85,54.25-6.97,78.77,125.53,56.57,147.13,118.65,9.39,26.97-5.31,55.94-17.08,79.74-20.18,40.82-44.62,79.41-63.8,120.75-17.97,38.72-35.78,85.2-25.1,128.49,14.31,57.99,74.8,80.12,126.02,94.65Z"/>
        <path class="cls-1" d="M208.8,1350h-17.07c-44.99-16.12-92.31-39.36-104.6-89.87-10.19-41.85,5.37-86.29,21.42-124.53,14.88-35.46,33.53-69.13,49.31-104.17,11.44-25.42,24.73-54.67,17.11-82.98-17.63-65.56-124.42-62.91-124.58-138.13-.12-54.05,64.84-94.83,102.92-122.27,45.19-32.56,103.45-64.51,131.46-114.63,30.63-54.8-25.97-97.02-64.82-128.32-52.37-42.2-120.99-78.3-162.08-132.57-19.71-26.04-11.68-38.57,9.39-60.13,27.78-28.42,56.34-56.09,83.19-85.41C186.11,128.06,272.08,37.22,191.73,0h17.07c86.62,33.35-5.84,125.91-42.39,163.3-29.68,30.37-61.23,58.8-92.24,87.79-23.67,22.13-32.6,35.47-9.81,62.68,48.97,58.47,124.82,96.23,184.74,142.18,36.7,28.14,104.74,73.6,71.8,126.36-31.92,51.15-99.22,80.85-148.96,111.02-38.99,23.65-114.89,61.51-117.58,114.92-3.9,77.41,115.75,64.93,135.9,128.72,9.09,28.79-6.31,59.62-18.47,85.11-17.71,37.16-38.53,72.77-55.01,110.53-17.33,39.7-34.1,87.29-20.76,130.64,15.58,50.62,66.69,71.85,112.76,86.73Z"/>
        <path class="cls-1" d="M188.09,1350h-17.43c-41.53-16.98-81.31-40.01-92.44-86.73-9.43-39.56,3.73-81.08,18.03-117.8,13.84-35.53,31.65-69.31,46.08-104.58,10.3-25.18,20-52.12,13.57-79.51-15.52-66.16-105.84-77.48-107.84-151.46-1.44-53.33,46.74-95.73,82.56-128.71,39.51-36.38,90.99-73.66,110.99-125.5,20.51-53.15-18.93-90.1-56.07-123.01-43.41-38.47-103.04-72.62-134.54-122.42-15.99-25.27-5.72-37.49,11.78-57.97,24.12-28.23,49.36-55.49,72.91-84.23C170.05,126.15,241.7,40.98,170.67,0h17.43c77.45,37.31-2.5,124.77-37.73,164.28-26.58,29.8-55.02,57.84-82.63,86.66-20.48,21.38-31.1,34.19-11.31,60.82,40.36,54.31,107.56,90.05,159.22,132.56,37.8,31.1,89.91,71.57,62.34,125.14-26.24,50.96-84.31,84.19-128.67,117.45-37.42,28.06-97.97,68.23-99.27,120.99-1.91,77.33,105.2,76.41,121.93,143.67,6.67,26.82-4.91,54.22-15.48,78.44-16.38,37.57-36.42,73.44-51.87,111.43-14.76,36.28-28.35,78.27-19.41,117.72,11.53,50.87,57.94,74.37,102.89,90.84Z"/>
        <path class="cls-1" d="M167.38,1350h-17.79c-36.93-17.4-70.81-40.23-80.58-82.43-8.52-36.78,2.39-75.4,14.61-110,19.13-54.16,63.27-116.95,54.46-176.77-5.24-35.58-28.88-59.72-51.91-85.24-23.01-25.5-37.61-51.78-39.09-86.73-4.6-109.18,121.65-167.07,148.79-265.38,30.84-111.73-112.08-151.93-151.39-236.9-10.92-23.6,2.62-36.97,16.39-55.77,20.39-27.83,42.05-54.71,62.05-82.83C155.19,122.6,211.38,44.11,149.6,0h17.79c68.13,40.62,2.97,121.71-30.55,164.05-23.13,29.22-48.16,56.85-72.16,85.34-18.23,21.65-30.95,35.4-13.57,62.14,31.98,49.2,89.47,83.02,132.2,122.06,35.66,32.58,69.78,67.79,51.68,118.95-18.48,52.21-69.25,90.53-107.78,127.59-35.75,34.39-81.48,77.05-79.38,131.01,2.85,73.29,91.79,87.76,105.6,154.96,5.33,25.93-3.5,51.29-13.04,75.18-14.05,35.16-31.57,68.82-45.36,104.09-14.41,36.85-27.12,77.9-18.41,117.63,10.2,46.5,49.88,69.92,90.77,87Z"/>
        <path class="cls-1" d="M146.67,1350h-18.14c-32.71-18.1-59.44-40.43-68.3-78.08-8.52-36.21,1.87-75.06,13.39-109.38,17.64-52.53,51.69-108.22,45.93-165.46-3.59-35.7-22.22-63.85-41.02-93.28-19.72-30.88-29.57-59.62-31.86-96.23-6.76-107.97,92.34-176.96,105.99-279.11,6.13-45.9-2.96-79.46-31.51-115.5-26.08-32.92-67.34-65.12-80.59-106.12-7.63-23.61,7.07-38.45,18.86-57.85,16.6-27.33,34.59-53.8,51-81.25C139.45,119.15,181.31,46.77,128.53,0h18.14c60.98,44.84,5.56,123.49-26.46,169.33-19.64,28.12-40.94,55.03-60.8,82.99-13.56,19.09-25.94,32-14.86,55.54,39.46,83.83,173.18,122.96,145.49,232.82-25.28,100.27-148.32,159.07-142.81,269.6,1.75,35.14,16.13,61.15,38.67,87.3,21.82,25.31,44.16,49.55,49.39,83.96,9.11,59.86-33.58,121.56-52.73,175.85-12.16,34.49-23.15,73.16-15,109.9,9.33,42.04,42.48,65.09,79.11,82.71Z"/>
        <path class="cls-1" d="M125.96,1350h-18.5c-130.83-87.5,1.94-224.3-6.6-340.02-2.63-35.6-16.95-66.93-31.05-99.16-14.61-33.41-20.89-64.41-23.67-100.58-4.02-52.31,4.24-95.62,22.86-144.6,18.18-47.81,41.01-96.12,42.53-148.17,1.15-39.16.43-75.11-19.58-109.7-18.52-32-50.08-63.91-56.21-101.48-3.49-21.38,11.05-37.46,19.79-55.77,13.57-28.44,28.91-56,42.54-84.42C122.64,114.87,151.2,48.62,107.46,0h18.5c51.78,47.08,11.42,118.87-17.18,167.84-16,27.4-33.56,53.84-49.71,81.13-11.41,19.28-26.18,34.34-19.11,57.7,12.24,40.47,52.3,72.63,77.38,105.28,27.71,36.06,35.56,69.82,30.13,115.08-12.27,102.27-107.92,172.85-100.85,280.52,2.41,36.7,11.71,65.75,30.9,97.15,18.28,29.91,36.4,58.58,39.79,94.39,5.41,57.03-27.68,112.1-45.09,164.56-11.32,34.11-21.48,72.62-13.14,108.57,8.63,37.23,34.68,59.58,66.89,77.77Z"/>
        <path class="cls-1" d="M105.25,1350h-18.86c-102.87-86.98-1.6-214.47-3.96-321.65-.83-37.57-11.09-73.03-21.45-108.83-10.5-36.29-13.39-69.8-16.35-107.09-1.94-24.45-6.71-47.25-5.17-72.06,1.59-25.65,6.56-50.94,12.11-75.98,11.1-50.07,25.55-100.35,22.91-152.15-.61-11.98-3.94-24.01-4.13-35.91-.12-7.96,2.49-14.99,3.16-23.06,1.4-16.92-3.75-33.82-9.56-49.51-11.59-31.3-33.71-64.01-33.02-98.46.4-20.28,13.78-36.28,20.38-54.88,9.72-27.38,21.15-54.1,31.21-81.35,20.02-54.28,40-117.34,3.87-169.05h18.86c42.9,48.87,15.41,114.69-8.68,166.2-13.27,28.36-28.22,55.91-41.41,84.31-8.5,18.32-23.02,34.48-19.93,55.74,5.41,37.19,35.91,69.09,53.66,100.98,19.21,34.53,19.31,70.77,18.54,109.45-1.03,51.99-22.9,100.53-40.3,148.6-17.85,49.3-25.19,92.7-21.12,144.97,2.82,36.25,8.68,67.6,22.87,101.32,13.71,32.56,27.58,64.34,30.05,100.06,7.93,114.85-121.6,250.97,6.32,338.38Z"/>
        <path class="cls-1" d="M84.54,1350h-19.22c-54.35-62.45-31.88-140.75-14.75-213.52,13.06-55.48,15.56-108.75,7.18-165.08-16.38-109.99-31.29-217.98-19.17-329.28,3.5-32.15,7.05-64.41,6.64-96.8-.34-26.57-8.75-54.93-5.05-80.55,6.58-45.64-8.89-84.01-14.09-128.85-2.23-19.23-.9-37.13,7.11-54.81,12.33-27.21,18.34-56.68,26.35-85.68C77.04,132.12,97.25,61.94,65.33,0h19.22c35.41,51.9,16.19,114.67-3.36,169.13-9.77,27.21-20.91,53.93-30.33,81.27-6.44,18.68-19.72,34.73-20.35,54.98-1.07,34.25,20.17,66.96,31.21,98.3,5.54,15.72,10.35,32.59,8.8,49.43-.74,8.08-3.4,15.08-3.27,23.05.19,11.89,3.59,23.95,4.26,35.91,2.92,51.73-10.83,102.1-21.35,152.26-5.26,25.08-9.94,50.4-11.31,76.03-1.33,24.79,3.59,47.64,5.52,72.07,2.96,37.38,5.58,71.17,15.73,107.66,10.02,36.06,19.97,71.8,20.7,109.51,2.06,106.55-96.79,233.39,3.77,320.4Z"/>
        <path class="cls-1" d="M63.83,1350h-19.58c-35.12-62.36-21.86-131.72-10.53-198.8,9.69-57.34,11.88-113.98,7.47-171.93-3.83-50.38-9.39-100.16-9.39-150.75,0-30.23-6.86-59.75-8.53-90.04-1.67-30.32-.95-60.68-.24-91.02.66-28.29,1.35-56.61.09-84.89-1.36-30.51-10.88-61.89-5.55-91.66,7.8-43.62-.39-86.06-.3-129.89.04-21.32,3.5-40.27,10.13-60.51,9.5-29,12.44-60.38,17.55-90.68,10.64-63.09,20.47-127.87-.71-189.84h19.58c31.24,62.09,11.73,132-5.3,195.46-7.78,29-13.51,58.51-25.7,85.72-7.95,17.74-9.42,35.7-7.4,54.99,4.72,44.86,19.41,83.47,12.77,129.01-3.73,25.57,4.73,53.95,5.19,80.46.56,32.34-2.75,64.56-6.01,96.69-11.3,111.21,3.53,219.69,19.24,329.68,8.04,56.29,5.63,109.69-7.17,165.14-16.73,72.44-38.73,150.27,14.36,212.84Z"/>
        <path class="cls-1" d="M43.12,1350h-19.93c-17.6-65.24-10.49-131.66-4.64-197.99,4.83-54.77,5.75-109.59,4.33-164.55-1.39-53.53-3.25-106.89-3.27-160.43-.02-56.06-7.83-112.57-8.87-168.88-.54-29.17-1.04-58.36-2.84-87.48-1.63-26.38-6.78-52.51-4.06-78.78,4.82-46.6,3.75-92.85,5.4-139.61.9-25.32,4.67-49.37,8.78-74.26,4.51-27.23,5.04-55.36,7.14-82.94,4.96-65.13,9.16-130.32-1.96-195.07h19.93c20.65,62.05,11.2,126.72.89,189.87-4.95,30.31-7.73,61.67-17.04,90.72-6.52,20.34-10,39.43-10.13,60.81-.27,43.95,7.5,86.59-.25,130.31-5.27,29.75,4.15,61.05,5.56,91.5,1.31,28.21.71,56.46.15,84.68-.6,30.26-1.22,60.55.49,90.79,1.71,30.21,8.51,59.67,8.49,89.83-.03,50.68,5.31,100.62,8.99,151.11,4.22,57.91,2.09,114.61-7.36,171.94-11.04,66.92-23.94,135.99,10.22,198.43Z"/>
        <path class="cls-1" d="M22.41,1350H2.12V0h20.29c10.72,64.78,6.72,129.95,1.96,195.09-2.02,27.59-2.51,55.7-6.86,82.97-3.99,25-7.67,49.22-8.57,74.62-1.66,46.93-.71,93.37-5.41,140.15-2.63,26.23,2.36,52.3,3.96,78.63,1.77,29.04,2.29,58.12,2.84,87.2,1.07,56.13,8.7,112.48,8.71,168.37,0,53.59,1.78,107.02,3.09,160.59,1.35,54.95.46,109.77-4.2,164.55-5.64,66.27-12.46,132.58,4.46,197.84Z"/>
      </g>
    </g>
  </g>
</svg>