<?xml version="1.0" encoding="UTF-8"?>
<svg id="Layer_2" data-name="Layer 2" xmlns="http://www.w3.org/2000/svg" xmlns:xlink="http://www.w3.org/1999/xlink" viewBox="0 0 2893.8 1372.83">
  <defs>
    <style>
      .cls-1, .cls-2 {
        fill: none;
      }

      .cls-2 {
        stroke: #cf9;
        stroke-miterlimit: 10;
        stroke-width: 2px;
      }

      .cls-3 {
        clip-path: url(#clippath);
      }
    </style>
    <clipPath id="clippath">
      <rect class="cls-1" x="907.4" width="1080" height="1350"/>
    </clipPath>
  </defs>
  <g id="Final">
    <g id="Password_Manager" data-name="Password Manager">
      <g class="cls-3">
        <g>
          <path class="cls-2" d="M889.59,1085.41c371.53,1.78,743.15.37,1114.69,0,293.25,98.67,588.86,190.97,883.19,286.42H6.33c147.2-47.73,294.39-95.47,441.59-143.2,66.29-21.5,132.58-43,198.87-64.49,39.79-12.91,84.39-19.93,112.53-52.6,15.26-17.72,34.03-58.29,61.94-55.06,27.23,3.15,37.9,30.73,68.34,28.94Z"/>
          <path class="cls-2" d="M174.35,1317.34h292.43c85.88,0,171.84-4.58,257.68-3.25,79.23,1.23,157.21,7.72,236.65,5.23,77.8-2.44,155.59-1.98,233.42-1.98,306.05,0,612.11.02,918.16,0,202.25-.01,404.5,0,606.76,0"/>
          <path class="cls-2" d="M307.27,1274.24c84.36,0,169.17,2.56,253.47-.72,79.1-3.07,159.05-14.95,237.25,2.65,70.28,15.81,141.47,24.76,213.45,27.68,70.8,2.87,138.54-9.63,208.21-20.29,67.02-10.25,133.49-9.32,201.08-9.32s136.51-.65,204.75.5c139.39,2.35,277.87,3.05,417.26.26,181.15-3.62,362.61-.76,543.79-.76"/>
          <path class="cls-2" d="M415.05,1239.28h2063.7"/>
          <path class="cls-2" d="M504.21,1210.37c250.81,0,501.49-.11,752.24,3.86,110.82,1.75,221.49-4.1,332.29-3.86,115.22.25,230.45,0,345.67,0h455.18"/>
          <path class="cls-2" d="M579.18,1186.06h371c54.71,0,109.99-2.88,164.2,5.76,50.55,8.06,99.88,22.66,150.76,28.83,106.23,12.88,207.66-32.44,313.21-34.58,106.09-2.15,212.46,0,318.58,0h417.7"/>
          <path class="cls-2" d="M643.11,1165.33h1607.59"/>
          <path class="cls-2" d="M698.26,1147.44h1497.28"/>
          <path class="cls-2" d="M746.54,1125.88c66.06-.68,131.61,2.49,197.56,5.72,62.48,3.06,123.42-3.2,185.73-4.53,51.82-1.1,103.46,3.03,155.22,4.36,53.64,1.38,107.22-.03,160.82-1.96,108.73-3.9,216.22-.07,324.85,3.69,125.37,4.34,251.31-1.31,376.74-1.31"/>
          <path class="cls-2" d="M790.21,1071.83c65.14,2.71,124.46,29.16,187.56,42.34,68.35,14.28,130.46-14.12,198.81-14.17,40.73-.03,78.5,14.19,118.72,17.37,48.35,3.83,96.69-7.41,143.52-17.93,45.88-10.3,93.15-21.46,140.48-17.75,61.76,4.85,121.97,23.45,182.19,36.83,58.66,13.04,113.05,17.23,172.85,12.4,57.03-4.6,113.54-12.04,170.84-12.79"/>
          <path class="cls-2" d="M828.27,1058.22c62.18,12.89,121.36,43.68,184.93,49.32,32.02,2.84,61.98-7.67,93.08-13.56,31.36-5.93,64-10.49,95.99-7.45,35.04,3.34,67.72,17.65,103.08,19.24,44.88,2.02,89.45-9.7,132.55-20.65,43.3-11,88.3-23.09,133.38-20.36,57.81,3.5,114.51,22.01,170.28,36.3,56.13,14.39,110.34,24.96,168.46,21.31,53.3-3.35,106.09-11.97,159.4-15.31"/>
          <path class="cls-2" d="M860.87,1079.73c56.45,7.04,113.38,19.04,170.52,16.96,53.71-1.95,105.32-13.65,159.53-10.63,41.52,2.31,82.57,8.83,124.23,9.09,42.93.27,85.62-3.77,128.29-8.02,93.33-9.28,181.76-7.17,274.85,4.26,106.67,13.1,210.67,8.6,317.73,4.85"/>
          <path class="cls-2" d="M1911.52,1085.5c120.24,52.43,245.37,95.46,367.87,143.13,122.66,47.73,245.33,95.47,367.99,143.2"/>
          <path class="cls-2" d="M1818.64,1085.56c96.03,51.13,195.82,95.19,294.26,143.07,98.13,47.73,196.26,95.47,294.39,143.2"/>
          <path class="cls-2" d="M1725.66,1085.46c27.71,13.21,51.11,25.37,73,46.52,12.54,12.12,30.92,20.88,45.61,30.41,34.04,22.08,68.09,44.16,102.13,66.24,73.57,47.72,147.17,95.45,220.79,143.2"/>
          <path class="cls-2" d="M1632.56,1085.2c2.72-1.08,9.64-8.36,11.24-8.35,12.39.12,23.7,29.38,28.37,38.11,10.3,19.24,24.16,32.36,39.65,47.43,22.69,22.08,45.4,44.14,68.08,66.23,20.55,20.02,38.37,41.9,59.68,61.09,29.57,26.63,58.95,54.32,87.52,82.11"/>
          <path class="cls-2" d="M1539.72,1085.24c-2.08-6.73-4.31-13.41-6.68-20.05,48.73,103.57,101.66,204.87,153.96,306.63"/>
          <path class="cls-2" d="M1446.88,1085.38c-20.75,1.6-5.14,25.97-2.35,39.55,2.89,14.12,2.69,27.78,1.93,42.16-.78,14.83-4.76,30.91-2.8,44.64.45,3.15,3.22,10.86,3.24,16.9.17,47.73,0,95.47,0,143.2"/>
          <path class="cls-2" d="M1354.04,1085.51c-27.5,45.99-43.61,94.4-63.18,143.97-1.43-4.84-2.09-9.8-1.98-14.87-17.09,19.08-25.09,49.42-37.58,71.62-15.75,28-29.81,57.02-44.49,85.6"/>
          <path class="cls-2" d="M1261.4,1085.27c-4.58,5.38-2.72,9.44-6.02,14.38-6.94,10.41-21.56,18.71-32.01,26.45-16.54,12.24-32.57,25.56-45.66,41.58-12.13,14.83-18.78,30.11-35.82,39.3-11.06,5.96-18.79,12.63-27.97,21.64-18.6,18.26-23.43,38.36-36.44,60.39-17.93,30.36-12.52-1.16-31.7,6-12.06,4.5-27.67,26.85-37.46,36.34-13.89,13.47-27.74,26.98-41.6,40.48"/>
          <path class="cls-2" d="M1169.42,1084.82c2.84-.02,6.05.73,8.91.93-49.49,32.15-102.2,59.38-151.85,91.58-30.65,19.88-61.88,39.1-92.05,59.7-17.95,12.26-32.82,28.94-49.54,42.72-12.38,10.2-37.4,42.69-53.82,43-7.73.15-11.23-5.44-20.23-3.92-8.71,1.46-17.28,9.57-24.39,14.18-19.95,12.94-39.9,25.88-59.85,38.82"/>
          <path class="cls-2" d="M1075.93,1085.11c-29.43,14.06-56.01,30.75-86.03,43.77-25.42,11.03-50.4,22.6-75.34,34.73-44.55,21.67-89.1,43.34-133.65,65.02-22.93,11.15-46.25,25.66-70.26,34.18-19.28,6.84-39.84-.31-58.04,12.29-28.59,19.8-52.51,41.49-84.22,56.91-27.29,13.28-54.58,26.55-81.88,39.83"/>
          <path class="cls-2" d="M982.54,1085.75c-19.57,9.14-31.17,5.11-51.46,3.17-25.39-2.44-40.01,12.27-57.19,28.62-26.15,24.88-61.37,33.99-94.54,46.9-54.98,21.4-109.96,42.79-164.94,64.19-122.66,47.73-245.33,95.47-367.99,143.2"/>
        </g>
      </g>
    </g>
  </g>
</svg>